<svg width="42" height="42" viewBox="0 0 42 42" fill="none" xmlns="http://www.w3.org/2000/svg">
<mask id="mask0_542_2380" style="mask-type:alpha" maskUnits="userSpaceOnUse" x="0" y="0" width="42" height="42">
<rect width="42" height="42" fill="#D9D9D9"/>
</mask>
<g mask="url(#mask0_542_2380)">
<path d="M26.2941 7.55585H18.7213C17.352 7.55585 16.9892 7.94892 16.4982 9.20261L6.37852 34H15.2839L25.0295 9.07272C25.3335 8.26719 25.7096 7.69152 26.2961 7.57931C26.3023 7.57795 26.306 7.57455 26.306 7.56809C26.306 7.5649 26.3048 7.56184 26.3025 7.55955C26.3003 7.55726 26.2973 7.55594 26.2941 7.55585Z" fill="#9E007E"/>
<path d="M34.741 26.1999C34.741 26.1999 28.6953 9.48259 28.6545 9.37514L28.6511 9.36528L28.6436 9.34726C28.374 8.64068 28.0417 8.01536 27.2243 8.00482C26.5585 8.04869 26.1478 8.64748 25.821 9.51354L23.1239 16.4121L26.6639 26.1999H34.741Z" fill="#00A9E0"/>
</g>
</svg>
