<svg width="42" height="42" viewBox="0 0 42 42" fill="none" xmlns="http://www.w3.org/2000/svg">
<mask id="mask0_542_2360" style="mask-type:alpha" maskUnits="userSpaceOnUse" x="0" y="0" width="42" height="42">
<rect width="42" height="42" fill="#D9D9D9"/>
</mask>
<g mask="url(#mask0_542_2360)">
<path d="M13.8472 13.3762C9.92867 15.4604 7.04986 18.9346 7.00005 22.2127C7.05935 26.1051 11.1068 30.2727 16.148 32.0635C15.7203 28.9578 13.8559 16.4305 13.8472 13.3762Z" fill="#474794"/>
<path d="M27.8852 16.2827C29.291 16.7468 30.02 17.7984 31.1198 18.899C32.3437 20.1237 33.9227 21.5074 34.5884 23.3235C35.4977 21.6149 35.9934 19.4872 35.9934 17.0046C35.9934 10.1266 32.7446 2.43583 22.2383 6.22626C17.0136 8.11278 14.7768 10.9734 13.847 13.3762C14.9816 12.7721 16.3565 12.7429 17.6216 12.4108C21.4452 11.3845 25.5654 12.7239 27.8852 16.2827Z" fill="#8C8ACC"/>
<path d="M28.0214 27.9244C25.1513 31.4484 21.4384 33.4345 17.5372 32.3877C17.0913 32.2699 16.5821 32.2177 16.148 32.0635C16.4398 32.4636 16.7647 32.8455 17.1245 33.2037C20.9813 37.0597 29.0912 38.6877 33.1639 34.668C35.9067 31.888 36.0197 27.2286 34.5886 23.3235C33.2334 25.8687 30.5808 27.0784 28.0214 27.9244Z" fill="#4C57B0"/>
<path d="M27.8855 16.2828C28.9537 17.9203 29.6084 19.9309 29.6123 22.2128C29.6084 24.3942 29.0075 26.3266 28.0215 27.9245C30.958 27.4786 33.2335 25.8688 34.5887 23.3237C33.923 21.5075 32.9252 19.8527 31.7005 18.6287C30.6014 17.5281 29.2913 16.747 27.8855 16.2828Z" fill="#353885"/>
<path d="M13.3016 17.7622C13.4115 19.3561 14.0496 20.8853 15.0419 22.2563C15.5495 21.0086 16.303 19.8329 17.3071 18.8114C20.2128 15.9579 24.3511 15.115 27.8854 16.2828C25.5656 12.7241 21.2921 10.9261 17.4684 11.9508C16.2034 12.2845 14.9818 12.7723 13.8472 13.3764C12.9063 15.8045 13.3016 17.7622 13.3016 17.7622Z" fill="#353885"/>
<path d="M28.0215 27.9244C27.4696 28.0074 26.8964 28.0517 26.3002 28.0517C22.0994 28.0517 17.4891 25.6386 15.042 22.2562C13.7239 25.5042 14.0924 29.2425 16.1481 32.0635C16.5822 32.2177 17.0218 32.3561 17.4685 32.4739C21.3696 33.5191 25.7357 31.6255 28.0215 27.9244Z" fill="#353885"/>
<path d="M27.9405 16.2256C24.3715 15.0468 20.1912 15.8975 17.2579 18.7803C16.2427 19.8129 15.4805 20.9989 14.9697 22.2592C17.4405 25.6748 22.0967 28.114 26.3394 28.114C26.9411 28.114 27.5215 28.069 28.0781 27.9836C29.0743 26.3706 29.6808 24.4185 29.6839 22.2157C29.68 19.9109 29.019 17.8797 27.9405 16.2256Z" fill="#282E70"/>
<path d="M14.9225 20.7428H23.7068C23.5882 19.42 23.2529 18.4277 22.6995 17.7651C21.8495 16.7388 20.7489 16.2249 19.3953 16.2249C18.1713 16.2249 17.1411 16.6345 16.307 17.4536C15.472 18.2743 15.0103 19.3702 14.9225 20.7428ZM23.6775 25.0542L26.4322 25.395C25.9989 27.0048 25.1932 28.2541 24.0183 29.1428C22.8418 30.0322 21.3419 30.475 19.5139 30.475C17.213 30.475 15.389 29.7674 14.0401 28.3505C12.692 26.9329 12.0184 24.9459 12.0184 22.3873C12.0184 19.741 12.6999 17.6861 14.063 16.2249C15.4254 14.763 17.1941 14.0324 19.366 14.0324C21.47 14.0324 23.1889 14.748 24.5219 16.1798C25.8542 17.6117 26.5215 19.6271 26.5215 22.2245C26.5215 22.3826 26.5168 22.6198 26.5065 22.9353H14.7746C14.8719 24.6637 15.3613 25.9872 16.2405 26.9052C17.1197 27.8247 18.2156 28.2833 19.5289 28.2833C20.5077 28.2833 21.3419 28.0263 22.0329 27.5132C22.724 26.9993 23.2719 26.1801 23.6775 25.0542Z" fill="#FABD17"/>
</g>
</svg>
