<?xml version="1.0" encoding="utf-8"?>
<!-- Generator: Adobe Illustrator 27.0.0, SVG Export Plug-In . SVG Version: 6.00 Build 0)  -->
<svg version="1.1" id="Layer_1" xmlns="http://www.w3.org/2000/svg" xmlns:xlink="http://www.w3.org/1999/xlink" x="0px" y="0px"
	 viewBox="0 0 1440 1024" style="enable-background:new 0 0 1440 1024;" xml:space="preserve">
<style type="text/css">
	.st0{fill:none;}
	.st1{fill:none;stroke:#D1E8F7;strokeWidth:1.9165;stroke-miterlimit:10;}
	.st2{fill:#FFBC49;}
	.st3{fill:#5661AE;}
	.st4{fill:#0B0188;}
	.st5{fill:none;stroke:#D1E8F7;strokeWidth:1.4297;stroke-miterlimit:10;}
	.st6{fill:url(#SVGID_1_);}
	.st7{fill:#FFFFFF;}
	.st8{fill:url(#SVGID_00000084506455311896392600000015118271678200011419_);}
	.st9{fill:url(#SVGID_00000180338084912541448190000006834899876064693145_);}
	.st10{fill:none;stroke:#0B0188;strokeWidth:11.6898;stroke-miterlimit:10;}
	.st11{fill:none;stroke:#FFFFFF;strokeWidth:11.6898;strokeLinecap:round;stroke-miterlimit:10;}
	.st12{fill:none;stroke:#FFFFFF;strokeWidth:5.9837;strokeLinecap:round;stroke-miterlimit:10;}
	
		.st13{opacity:0.4;fill:none;stroke:#FFFFFF;strokeWidth:5.9837;strokeLinecap:round;stroke-miterlimit:10;enable-background:new    ;}
	.st14{fill:url(#SVGID_00000108988114396847989220000002628323872864016304_);}
	.st15{fill:#A3B1FC;}
	.st16{fill:#6A88F8;}
	.st17{fill:none;stroke:#FFFFFF;strokeWidth:7.5651;strokeLinecap:round;stroke-miterlimit:10;}
	.st18{fill:none;stroke:#FFFFFF;strokeWidth:11.9991;strokeLinecap:round;stroke-miterlimit:10;}
	
		.st19{opacity:0.4;fill:none;stroke:#FFFFFF;strokeWidth:11.9991;strokeLinecap:round;stroke-miterlimit:10;enable-background:new    ;}
	.st20{fill:none;stroke:#6A88F8;strokeWidth:3;strokeLinecap:round;}
	.st21{fill:url(#SVGID_00000124143922689566310140000003385365603229235862_);}
	.st22{fill:none;stroke:#FFFFFF;strokeWidth:12;strokeLinecap:round;stroke-miterlimit:10;}
	
		.st23{opacity:0.4;fill:none;stroke:#FFFFFF;strokeWidth:12;strokeLinecap:round;stroke-miterlimit:10;enable-background:new    ;}
	.st24{fill:none;stroke:#0B0188;strokeWidth:11.6898;strokeLinecap:round;stroke-miterlimit:10;}
	.st25{fill:#182FA4;}
	.st26{fill:#8F9094;}
	.st27{fill:#989898;}
</style>
<rect x="245" y="93" class="st0" width="843.5" height="837"/>
<path class="st1" d="M681.7,839.6c198.1,0,358.7-160.6,358.7-358.7c0-198.1-160.6-358.7-358.7-358.7S323.1,282.9,323.1,481
	C323.1,679,483.6,839.6,681.7,839.6z"/>
<path class="st2" d="M389.9,283c7,0,12.6-5.7,12.6-12.6c0-7-5.7-12.6-12.6-12.6c-7,0-12.6,5.7-12.6,12.6
	C377.3,277.3,383,283,389.9,283z"/>
<path class="st3" d="M1040.4,507.3c7,0,12.6-5.7,12.6-12.6c0-7-5.7-12.6-12.6-12.6c-7,0-12.6,5.7-12.6,12.6
	C1027.8,501.6,1033.4,507.3,1040.4,507.3z"/>
<path class="st4" d="M696.4,852.3c7,0,12.6-5.7,12.6-12.6c0-7-5.7-12.6-12.6-12.6c-7,0-12.6,5.7-12.6,12.6
	C683.8,846.6,689.5,852.3,696.4,852.3z"/>
<path class="st5" d="M690,750.9c147.8,0,267.5-119.8,267.5-267.5c0-147.8-119.8-267.6-267.5-267.6c-147.8,0-267.6,119.8-267.6,267.6
	C422.5,631.1,542.3,750.9,690,750.9z"/>
<path class="st2" d="M953,546.6c5.2,0,9.4-4.2,9.4-9.4c0-5.2-4.2-9.4-9.4-9.4c-5.2,0-9.4,4.2-9.4,9.4
	C943.6,542.4,947.8,546.6,953,546.6z"/>
<path class="st3" d="M441.9,593.3c5.2,0,9.4-4.2,9.4-9.4c0-5.2-4.2-9.4-9.4-9.4c-5.2,0-9.4,4.2-9.4,9.4
	C432.5,589.1,436.7,593.3,441.9,593.3z"/>
<path class="st4" d="M570.2,253.3c5.2,0,9.4-4.2,9.4-9.4c0-5.2-4.2-9.4-9.4-9.4c-5.2,0-9.4,4.2-9.4,9.4
	C560.8,249.1,565,253.3,570.2,253.3z"/>
<path class="st4" d="M829.3,779.6h-309c-13.4,0-23.2-10.9-21.9-24.3l52.7-548.7c1.3-13.4,13.2-24.3,26.6-24.3h309
	c13.4,0,23.2,10.9,21.9,24.3l-52.7,548.7C854.6,768.7,842.7,779.6,829.3,779.6z"/>
<linearGradient id="SVGID_1_" gradientUnits="userSpaceOnUse" x1="586.1292" y1="1022.0704" x2="869.9661" y2="-400.3132" gradientTransform="matrix(1 0 0 -1 0 1024)">
	<stop  offset="0" style="stop-color:#FFFFFF"/>
	<stop  offset="1" style="stop-color:#94B9FF"/>
</linearGradient>
<path class="st6" d="M807.5,779.6h-309c-13.4,0-23.2-10.9-21.9-24.3l52.7-548.7c1.3-13.4,13.2-24.3,26.6-24.3h309
	c13.4,0,23.2,10.9,21.9,24.3l-52.7,548.7C832.8,768.7,820.9,779.6,807.5,779.6z"/>
<path class="st7" d="M795.8,761.4H513.7c-12.4,0-21.5-10.1-20.3-22.5L543,223.1c1.2-12.4,12.2-22.5,24.7-22.5h282.1
	c12.4,0,21.5,10.1,20.3,22.5l-49.6,515.8C819.3,751.3,808.2,761.4,795.8,761.4z"/>
<linearGradient id="SVGID_00000047743573096707334990000000110900651024737940_" gradientUnits="userSpaceOnUse" x1="669.6701" y1="789.9041" x2="697.1911" y2="361.488" gradientTransform="matrix(1 0 0 -1 0 1024)">
	<stop  offset="0" style="stop-color:#FFFFFF"/>
	<stop  offset="1" style="stop-color:#94B9FF"/>
</linearGradient>
<path style="fill:url(#SVGID_00000047743573096707334990000000110900651024737940_);" d="M818.4,435.2L515.8,435
	c-1.2,0-2.5-0.2-3.6-0.7c-1.1-0.5-2.2-1.2-3-2.1c-0.8-0.9-1.5-2-1.9-3.2c-0.4-1.2-0.5-2.4-0.4-3.6l16.3-181.1c0.3-2.6,1.5-5,3.5-6.8
	c2-1.8,4.5-2.7,7.1-2.8l302.6,0.3c1.2,0,2.5,0.2,3.6,0.7c1.1,0.5,2.2,1.2,3,2.1c0.8,0.9,1.5,2,1.9,3.2c0.4,1.2,0.5,2.4,0.4,3.6
	L829,425.7c-0.3,2.6-1.5,5-3.5,6.8C823.6,434.2,821,435.2,818.4,435.2z"/>
<linearGradient id="SVGID_00000160176365821788765310000007158338744324115861_" gradientUnits="userSpaceOnUse" x1="742.8229" y1="569.5108" x2="787.8398" y2="196.7538" gradientTransform="matrix(1 0 0 -1 0 1024)">
	<stop  offset="0" style="stop-color:#FFFFFF"/>
	<stop  offset="1" style="stop-color:#94B9FF"/>
</linearGradient>
<path style="fill:url(#SVGID_00000160176365821788765310000007158338744324115861_);" d="M808.9,630.4H681c-0.9,0-1.9-0.2-2.7-0.5
	c-0.9-0.4-1.6-0.9-2.3-1.6c-0.6-0.7-1.1-1.5-1.4-2.4c-0.3-0.9-0.4-1.8-0.3-2.8l15.5-161.5c0.2-2,1.2-3.9,2.7-5.2s3.4-2.1,5.4-2.2
	h127.9c0.9,0,1.9,0.2,2.7,0.5c0.9,0.4,1.6,0.9,2.3,1.6c0.6,0.7,1.1,1.5,1.4,2.4c0.3,0.9,0.4,1.9,0.3,2.8L817,623
	c-0.2,2-1.2,3.9-2.7,5.2C812.8,629.6,810.9,630.4,808.9,630.4z"/>
<path class="st10" d="M778.4,541.3c14.4-13.7,16-35.5,3.5-48.6c-12.5-13.1-34.3-12.6-48.7,1.2c-14.4,13.7-16,35.5-3.5,48.6
	C742.2,555.6,764,555,778.4,541.3z"/>
<path class="st11" d="M739.6,549.3c-12-5.2-19.5-17.4-18.2-31.8c1.8-19,18.7-34.4,37.7-34.4"/>
<path class="st12" d="M736.7,578.9h26.3"/>
<path class="st12" d="M733.9,608.7h26.3"/>
<path class="st13" d="M721.3,593.6h54.4"/>
<path class="st2" d="M652.5,630.4H524.6c-0.9,0-1.9-0.2-2.7-0.5c-0.9-0.4-1.6-0.9-2.3-1.6c-0.6-0.7-1.1-1.5-1.4-2.4
	c-0.3-0.9-0.4-1.8-0.3-2.8l15.5-161.5c0.2-2,1.2-3.9,2.7-5.2s3.4-2.1,5.4-2.2h127.9c0.9,0,1.9,0.2,2.7,0.5c0.9,0.4,1.6,0.9,2.3,1.6
	s1.1,1.5,1.4,2.4c0.3,0.9,0.4,1.9,0.3,2.8L660.6,623c-0.2,2-1.2,3.9-2.7,5.2C656.4,629.6,654.5,630.4,652.5,630.4z"/>
<path class="st10" d="M622,541.3c14.4-13.7,16-35.5,3.5-48.6c-12.5-13.1-34.3-12.6-48.7,1.2c-14.4,13.7-16,35.5-3.5,48.6
	C585.8,555.6,607.6,555,622,541.3z"/>
<path class="st11" d="M633.8,517.6c-1.8,19-18.7,34.4-37.7,34.4s-32.9-15.4-31.1-34.4c1.8-19,18.7-34.4,37.7-34.4"/>
<path class="st12" d="M580.3,578.9h26.3"/>
<path class="st12" d="M577.5,608.7h26.3"/>
<path class="st13" d="M564.9,593.6h54.4"/>
<linearGradient id="SVGID_00000054238125155393307430000005866801072814922426_" gradientUnits="userSpaceOnUse" x1="658.7026" y1="380.9902" x2="666.6316" y2="161.4382" gradientTransform="matrix(1 0 0 -1 0 1024)">
	<stop  offset="0" style="stop-color:#FFFFFF"/>
	<stop  offset="1" style="stop-color:#94B9FF"/>
</linearGradient>
<path style="fill:url(#SVGID_00000054238125155393307430000005866801072814922426_);" d="M798.2,745.9H513.1c-0.9,0-1.8-0.2-2.6-0.5
	c-0.8-0.4-1.6-0.9-2.2-1.5c-0.6-0.7-1-1.4-1.3-2.3c-0.3-0.9-0.4-1.8-0.2-2.6l8.5-88.5c0.2-1.9,1.1-3.7,2.5-4.9
	c1.4-1.3,3.2-2,5.2-2.1H808c0.9,0,1.8,0.2,2.6,0.5c0.8,0.4,1.6,0.9,2.2,1.5c0.6,0.7,1,1.4,1.3,2.3c0.3,0.9,0.4,1.8,0.2,2.6
	l-8.5,88.5c-0.2,1.9-1.1,3.7-2.5,4.9C801.9,745.2,800.1,745.9,798.2,745.9z"/>
<path class="st11" d="M533,725.4l4-41.8"/>
<path class="st11" d="M562.5,696.1l-2.8,29.3"/>
<path class="st11" d="M588.2,706.1l-1.9,19.3"/>
<path class="st11" d="M618.1,672.7l-5.1,52.7"/>
<path class="st11" d="M641.6,706.1l-1.9,19.3"/>
<path class="st11" d="M671.3,675.1l-4.8,50.4"/>
<path class="st11" d="M695.1,704.5l-2,20.9"/>
<path class="st11" d="M720.9,714.3l-1.1,11.1"/>
<path class="st11" d="M750.5,683.6l-4,41.8"/>
<path class="st11" d="M778.7,667.7l-5.6,57.8"/>
<path class="st15" d="M540.4,407.5l16,25.1c0.7,1.1,1,2.5,0.7,3.8c-0.3,1.3-1.1,2.5-2.2,3.2l-2.6,1.7c-4.3,2.8-9.5,4-14.7,3.2
	c-5.1-0.7-9.8-3.3-13.2-7.2l-21.3-24.8L540.4,407.5z"/>
<path class="st16" d="M528.1,417.1c0,0,5.9,20.4,17.8,26.9c3.1-1.2,6.1-2.7,8.9-4.5l-13.4-22.5"/>
<path class="st15" d="M254.1,508.7l62.9-30.2c5.9-2.8,10.9-7.3,14.5-12.8l60.8-95.6c3.8-6,9.3-10.6,15.8-13.4l87.6-37.7l-18.7,141.7
	l-0.3,5.2c0,0-23.2,60-79.9,81.8l-90.7,55.5L254.1,508.7z"/>
<path class="st16" d="M322.5,475.2c0,0,29.8,74.3,74,72.5L368.3,565c0,0-95.9-17.8-60-82.4L322.5,475.2z"/>
<path class="st16" d="M482,345.2c0,0-31,18.8-29.3,62.3l37.2-13.9L482,345.2z"/>
<path class="st15" d="M559.8,407.5l16,25.1c0.7,1.1,1,2.5,0.7,3.8c-0.3,1.3-1.1,2.5-2.2,3.2l-2.6,1.7c-4.3,2.8-9.5,4-14.7,3.2
	c-5.1-0.7-9.8-3.3-13.2-7.2l-21.3-24.8L559.8,407.5z"/>
<path class="st4" d="M796.6,417.4L494,417.1c-1.2,0-2.5-0.2-3.6-0.7c-1.1-0.5-2.2-1.2-3-2.1c-0.8-0.9-1.5-2-1.9-3.2
	s-0.5-2.4-0.4-3.6l16.3-181.1c0.3-2.6,1.5-5,3.5-6.8c2-1.8,4.5-2.7,7.1-2.8l302.6,0.3c1.2,0,2.5,0.2,3.6,0.7c1.1,0.5,2.2,1.2,3,2.1
	c0.8,0.9,1.5,2,1.9,3.2c0.4,1.2,0.5,2.4,0.4,3.6l-16.3,181.1c-0.3,2.6-1.5,5-3.5,6.8C801.8,416.3,799.2,417.3,796.6,417.4z"/>
<path class="st17" d="M514.1,324.3c0,0,27.2-5.5,34.5,7.3c7.3,12.7,13.6,36.7,33.1,33.6C601,362,615.9,299.5,635,300
	c19.1,0.6,12.4,41.6,33.2,42.1c20.8,0.6,17.1-22.9,31-22.2c16.8,0.8,10.6,49.4,32.5,50c21.9,0.6,25.5-64.2,58.7-63.1"/>
<path class="st18" d="M529.5,247.2l53.2,0"/>
<path class="st19" d="M527.3,271.6l110,0.1"/>
<path class="st15" d="M424.3,416.5l38.8-17.1l39.7-27.1c10.4-7.1,32.2-10.3,40.1-0.4c8,10.1-1,30-10.7,38.5l-36.7,32l-19.1,23.6
	L424.3,416.5z"/>
<path class="st20" d="M503.2,382.6c0,0,5.2,20.2,18.8,23.7l14.4-12.2c1.5-1.1,2.7-2.5,3.6-4c0.9-1.6,1.5-3.3,1.7-5.1
	c0.2-1.8,0.1-3.6-0.5-5.4c-0.5-1.7-1.4-3.4-2.5-4.8l0,0c-2-2.4-4.9-4.1-8-4.6c-3.1-0.5-6.4,0-9.1,1.6L503.2,382.6z"/>
<path class="st4" d="M319.4,476.1c0,0-7.5,53.8,57.9,84.6c0,0-47,43.1-65.2,50.4c-18.1,7.3-86.2-66.9-62-108.9
	C256.9,490.3,319.4,476.1,319.4,476.1z"/>
<path class="st16" d="M567.4,419.4c0,0-25.5,0.5-34.4,5.2l-6.4-7.5l39.3,0L567.4,419.4z"/>
<path class="st2" d="M1037.2,417.4H855.8c-13.7,0-23.8-11.1-22.6-24.7l24.3-274.9c1.2-13.7,13.3-24.7,26.9-24.7h181.4
	c13.7,0,23.8,11.1,22.6,24.7l-24.3,274.9C1062.9,406.3,1050.8,417.4,1037.2,417.4z"/>
<path class="st7" d="M1011.2,248.2c28.7-27.5,31.6-71.1,6.5-97.4c-25.2-26.3-68.8-25.3-97.6,2.2c-28.7,27.5-31.6,71.1-6.5,97.4
	C938.8,276.7,982.5,275.7,1011.2,248.2z"/>
<linearGradient id="SVGID_00000113328506794644542510000005700854996463346842_" gradientUnits="userSpaceOnUse" x1="998.1187" y1="821.401" x2="1004.8827" y2="732.825" gradientTransform="matrix(1 0 0 -1 0 1024)">
	<stop  offset="0" style="stop-color:#FFFFFF"/>
	<stop  offset="1" style="stop-color:#94B9FF"/>
</linearGradient>
<path style="fill:url(#SVGID_00000113328506794644542510000005700854996463346842_);" d="M969.5,202.7l45.5,41.5
	c0,0,10.4-11.1,13.4-19.1L969.5,202.7z"/>
<path class="st4" d="M972.5,123l-6.5,73.1c-0.1,1.3,0.1,2.7,0.7,3.9c0.6,1.2,1.6,2.2,2.7,2.8l61.8,34.4
	C1031.3,237.1,1068,134.8,972.5,123z"/>
<path class="st22" d="M875.8,320.1H951"/>
<path class="st22" d="M870.3,382.2h75.2"/>
<path class="st23" d="M873.1,350.8h155.3"/>
<path class="st15" d="M814.1,619.9c0,0,24.2-6.5,37.1,7.4c0,0,23.2-4.2,32.6,8.7c0,0,20.5,1.2,26.5,9.6c4.9,0.7,9.6,2.7,13.6,5.7
	c3.9,3.1,7,7.1,8.8,11.8c5.6,13.2,0.9,89.8-4.7,117.2c-1.4,6.9-0.9,14,1.4,20.6l14.2,40.8l-98.3,41.1l-23.3-60.9
	c0,0-28.4-45.6-32.5-53.8c-4.1-8.1,2.8-75.4-11-117.5L814.1,619.9z"/>
<path class="st16" d="M834.6,855l-2.8-7.4c0,0,51-3.3,97.6-46.7l4.5,12.8c0,0-5.8,26.4-31.9,38.9C875.6,865,834.6,855,834.6,855z"/>
<path class="st4" d="M834.6,855c0,0,61.7,5.6,99.2-41.3c0,0,13.8,7.2,35.1,60.3c6.5,16.3-102.4,74.4-120,50.2
	C848.8,924.2,833.6,892.1,834.6,855z"/>
<path class="st15" d="M784.5,676c0,0-2.1,11.3-12.2,11.3c-6.6,0-35-8.6-54-14.6c-5.2-1.6-10.7-1.6-15.9,0c-5.2,1.6-9.7,4.8-13,9.1
	l-1.2,1.5c-0.6,0.7-1,1.6-1.2,2.5c-0.2,0.9-0.3,1.9-0.1,2.8c0.1,0.9,0.5,1.8,1,2.6c0.5,0.8,1.1,1.5,1.9,2
	c16.1,11.2,59.5,41.7,65.1,47.3c6.8,6.8,44.9,45.2,44.9,45.2L784.5,676z"/>
<path class="st16" d="M782.2,664.7c0,0,20.6,27.9,17.5,33.9c-3,6.1-35-12.5-35-12.5S790.5,692.7,782.2,664.7z"/>
<path class="st15" d="M778.4,650.6l-34.6-105.1c-1.2-3.6-1.6-7.4-1.3-11.2c0.3-3.8,1.4-7.5,3.1-10.8c1.8-3.4,4.2-6.3,7.1-8.8
	c2.9-2.4,6.3-4.2,10-5.3c3-0.9,6.2-0.6,9,0.7c2.8,1.3,5.1,3.6,6.3,6.5l48.6,111.7L778.4,650.6z"/>
<path class="st20" d="M763.4,605c1,1.6,2.3,3,3.8,4.1c1.5,1.1,3.3,1.8,5.1,2.2"/>
<path class="st20" d="M775.9,551.2c4.2-1.9,8.9-4.5,10.9-7.5l-12.9-30.6c-0.3-0.7-0.7-1.3-1.2-1.7c-0.5-0.5-1.1-0.9-1.8-1.1
	c-0.7-0.2-1.4-0.3-2.1-0.2c-0.7,0.1-1.4,0.3-2,0.6c-4.6,2.6-10.6,7.4-10.9,14.3l8.7,21.7c0.4,1.1,1.1,2,1.9,2.8
	c0.8,0.8,1.8,1.4,2.8,1.9c1.1,0.4,2.2,0.6,3.3,0.6C773.7,551.9,774.8,551.7,775.9,551.2z"/>
<path class="st20" d="M822.7,619.2l11.9,26.3"/>
<path class="st20" d="M851.7,627.8c6.1,8.7,9.3,19,9.3,29.6"/>
<path class="st20" d="M884.3,636.5c0,0,6,13.8,6.5,24.7"/>
<path class="st20" d="M911.1,646.3c2.4,5.8,3.3,12.1,2.7,18.4"/>
<path class="st20" d="M715.1,706.1c0,0,7.1-9,4.7-13.6s-13.3-10.9-19.6-10.2c-3,0.5-5.9,1.4-8.5,2.9c-0.5,0.3-0.9,0.6-1.2,1.1
	c-0.3,0.5-0.5,1-0.5,1.5c0,0.5,0.1,1.1,0.3,1.6c0.2,0.5,0.6,0.9,1.1,1.2L715.1,706.1z"/>
<path class="st2" d="M592.8,816.2H376.2c-0.9,0-1.8-0.2-2.6-0.5c-0.8-0.4-1.6-0.9-2.2-1.5c-0.6-0.7-1-1.4-1.3-2.3
	c-0.3-0.9-0.4-1.8-0.2-2.6l8.5-88.5c0.2-1.9,1.1-3.7,2.5-4.9c1.4-1.3,3.2-2,5.2-2.1h216.6c0.9,0,1.8,0.2,2.6,0.5
	c0.8,0.4,1.6,0.9,2.2,1.5c0.6,0.7,1,1.4,1.3,2.3c0.3,0.9,0.4,1.8,0.2,2.6l-8.5,88.5c-0.2,1.9-1.1,3.7-2.5,4.9
	C596.6,815.5,594.8,816.2,592.8,816.2z"/>
<path class="st24" d="M396.6,736.8h133.7"/>
<path class="st11" d="M396.6,736.8h92.9"/>
<path class="st24" d="M394.6,765h133.7"/>
<path class="st11" d="M394.6,765h55.5"/>
<path class="st24" d="M390.2,793.2h133.7"/>
<path class="st11" d="M390.2,793.2h34"/>
<path class="st7" d="M577.6,744.8c4.4,0,8-3.6,8-8c0-4.4-3.6-8-8-8c-4.4,0-8,3.6-8,8C569.6,741.2,573.2,744.8,577.6,744.8z"/>
<path class="st7" d="M575,771.7c4.4,0,8-3.6,8-8c0-4.4-3.6-8-8-8s-8,3.6-8,8C567,768.2,570.6,771.7,575,771.7z"/>
<path class="st7" d="M572.1,801.1c4.4,0,8-3.6,8-8c0-4.4-3.6-8-8-8c-4.4,0-8,3.6-8,8C564.1,797.6,567.7,801.1,572.1,801.1z"/>
</svg>
