<svg width="33" height="32" viewBox="0 0 33 32" fill="none" xmlns="http://www.w3.org/2000/svg">
<mask id="mask0_537_5984" style="mask-type:alpha" maskUnits="userSpaceOnUse" x="0" y="0" width="33" height="32">
<rect x="0.202515" width="32.4051" height="32" fill="#D9D9D9"/>
</mask>
<g mask="url(#mask0_537_5984)">
<path d="M8.97888 26.6667C6.93106 26.6667 5.18141 25.9667 3.72993 24.5667C2.27846 23.1667 1.55272 21.4556 1.55272 19.4333C1.55272 17.7 2.08155 16.1556 3.13922 14.8C4.19688 13.4445 5.58085 12.5778 7.29112 12.2C7.67368 10.6 8.63008 9.07779 10.1603 7.63334C11.6906 6.1889 13.3221 5.46667 15.0548 5.46667C15.7974 5.46667 16.4332 5.72779 16.962 6.25001C17.4908 6.77223 17.7553 7.40001 17.7553 8.13334V16.2L19.9156 14.1333L21.8059 16L16.405 21.3333L11.0042 16L12.8945 14.1333L15.0548 16.2V8.13334C13.3446 8.44445 12.0169 9.26112 11.0717 10.5833C10.1266 11.9056 9.65399 13.2667 9.65399 14.6667H8.97888C7.67368 14.6667 6.55975 15.1222 5.63711 16.0333C4.71446 16.9445 4.25314 18.0445 4.25314 19.3333C4.25314 20.6222 4.71446 21.7222 5.63711 22.6333C6.55975 23.5445 7.67368 24 8.97888 24H25.1814C26.1266 24 26.9254 23.6778 27.578 23.0333C28.2306 22.3889 28.5569 21.6 28.5569 20.6667C28.5569 19.7333 28.2306 18.9445 27.578 18.3C26.9254 17.6556 26.1266 17.3333 25.1814 17.3333H23.1561V14.6667C23.1561 13.6 22.9086 12.6056 22.4135 11.6833C21.9184 10.7611 21.2658 9.97779 20.4557 9.33334V6.23334C22.1209 7.01112 23.4374 8.16112 24.405 9.68334C25.3727 11.2056 25.8565 12.8667 25.8565 14.6667C27.4093 14.8445 28.6976 15.5056 29.7215 16.65C30.7454 17.7945 31.2574 19.1333 31.2574 20.6667C31.2574 22.3333 30.6666 23.75 29.4852 24.9167C28.3038 26.0833 26.8692 26.6667 25.1814 26.6667H8.97888Z" fill="#D3EEE9"/>
</g>
</svg>
