<svg width="49" height="49" viewBox="0 0 49 49" fill="none" xmlns="http://www.w3.org/2000/svg">
<mask id="mask0_626_2369" style="mask-type:alpha" maskUnits="userSpaceOnUse" x="0" y="0" width="49" height="49">
<rect x="0.88623" y="0.851318" width="48" height="48" fill="#D9D9D9"/>
</mask>
<g mask="url(#mask0_626_2369)">
<path d="M28.8862 32.8513H32.8862V28.8513H36.8862V24.8513H32.8862V20.8513H28.8862V24.8513H24.8862V28.8513H28.8862V32.8513ZM8.88623 40.8513C7.78623 40.8513 6.84456 40.4597 6.06123 39.6763C5.2779 38.893 4.88623 37.9513 4.88623 36.8513L4.88623 12.8513C4.88623 11.7513 5.2779 10.8097 6.06123 10.0263C6.84456 9.24299 7.78623 8.85132 8.88623 8.85132H20.8862L24.8862 12.8513H40.8862C41.9862 12.8513 42.9279 13.243 43.7112 14.0263C44.4946 14.8097 44.8862 15.7513 44.8862 16.8513V36.8513C44.8862 37.9513 44.4946 38.893 43.7112 39.6763C42.9279 40.4597 41.9862 40.8513 40.8862 40.8513H8.88623ZM8.88623 12.8513V36.8513H40.8862V16.8513H23.2362L19.2362 12.8513H8.88623Z" fill="#F1F1F3"/>
</g>
</svg>
