<svg width="49" height="49" viewBox="0 0 49 49" fill="none" xmlns="http://www.w3.org/2000/svg">
<mask id="mask0_626_2366" style="mask-type:alpha" maskUnits="userSpaceOnUse" x="0" y="0" width="49" height="49">
<rect x="0.90918" y="0.888428" width="48" height="48" fill="#D9D9D9"/>
</mask>
<g mask="url(#mask0_626_2366)">
<path d="M6.15918 37.2384L2.90918 34.8884L12.9092 18.8884L18.9092 25.8884L26.9092 12.8884L32.3592 21.0384C31.5925 21.0718 30.8675 21.1634 30.1842 21.3134C29.5008 21.4634 28.8258 21.6718 28.1592 21.9384L27.0592 20.2884L19.4592 32.6384L13.4092 25.5884L6.15918 37.2384ZM44.0592 46.8884L37.8092 40.6384C37.1425 41.1051 36.4008 41.4551 35.5842 41.6884C34.7675 41.9218 33.9258 42.0384 33.0592 42.0384C30.5592 42.0384 28.4342 41.1634 26.6842 39.4134C24.9342 37.6634 24.0592 35.5384 24.0592 33.0384C24.0592 30.5384 24.9342 28.4134 26.6842 26.6634C28.4342 24.9134 30.5592 24.0384 33.0592 24.0384C35.5592 24.0384 37.6842 24.9134 39.4342 26.6634C41.1842 28.4134 42.0592 30.5384 42.0592 33.0384C42.0592 33.9051 41.9425 34.7468 41.7092 35.5634C41.4758 36.3801 41.1258 37.1384 40.6592 37.8384L46.9092 44.0384L44.0592 46.8884ZM33.0592 38.0384C34.4592 38.0384 35.6425 37.5551 36.6092 36.5884C37.5758 35.6218 38.0592 34.4384 38.0592 33.0384C38.0592 31.6384 37.5758 30.4551 36.6092 29.4884C35.6425 28.5218 34.4592 28.0384 33.0592 28.0384C31.6592 28.0384 30.4758 28.5218 29.5092 29.4884C28.5425 30.4551 28.0592 31.6384 28.0592 33.0384C28.0592 34.4384 28.5425 35.6218 29.5092 36.5884C30.4758 37.5551 31.6592 38.0384 33.0592 38.0384ZM37.5092 22.0384C36.8758 21.7718 36.2175 21.5551 35.5342 21.3884C34.8508 21.2218 34.1425 21.1218 33.4092 21.0884L43.6592 4.88843L46.9092 7.23843L37.5092 22.0384Z" fill="#F1F1F3"/>
</g>
</svg>
