<svg width="48" height="48" viewBox="0 0 48 48" fill="none" xmlns="http://www.w3.org/2000/svg">
<mask id="mask0_556_2277" style="mask-type:alpha" maskUnits="userSpaceOnUse" x="0" y="0" width="48" height="48">
<rect width="48" height="48" fill="#D9D9D9"/>
</mask>
<g mask="url(#mask0_556_2277)">
<path d="M37.05 18L34.85 13.2L30.05 11L34.85 8.8L37.05 4L39.25 8.8L44.05 11L39.25 13.2L37.05 18ZM41.05 32L39.45 28.6L36.05 27L39.45 25.4L41.05 22L42.65 25.4L46.05 27L42.65 28.6L41.05 32ZM15.05 44L14.45 39.3C14.1833 39.2 13.925 39.0667 13.675 38.9C13.425 38.7333 13.2166 38.5667 13.05 38.4L8.64995 40.3L3.69995 31.6L7.44995 28.8V27.2L3.69995 24.4L8.64995 15.7L13.05 17.6C13.2166 17.4333 13.425 17.2667 13.675 17.1C13.925 16.9333 14.1833 16.8 14.45 16.7L15.05 12H25.05L25.65 16.7C25.9166 16.8 26.175 16.9333 26.425 17.1C26.675 17.2667 26.8833 17.4333 27.05 17.6L31.45 15.7L36.4 24.4L32.65 27.2V28.8L36.4 31.6L31.45 40.3L27.05 38.4C26.8833 38.5667 26.675 38.7333 26.425 38.9C26.175 39.0667 25.9166 39.2 25.65 39.3L25.05 44H15.05ZM20.05 34C21.7166 34 23.1333 33.4167 24.3 32.25C25.4666 31.0833 26.05 29.6667 26.05 28C26.05 26.3333 25.4666 24.9167 24.3 23.75C23.1333 22.5833 21.7166 22 20.05 22C18.3833 22 16.9666 22.5833 15.8 23.75C14.6333 24.9167 14.05 26.3333 14.05 28C14.05 29.6667 14.6333 31.0833 15.8 32.25C16.9666 33.4167 18.3833 34 20.05 34ZM20.05 30C19.4833 30 19.0083 29.8083 18.625 29.425C18.2416 29.0417 18.05 28.5667 18.05 28C18.05 27.4333 18.2416 26.9583 18.625 26.575C19.0083 26.1917 19.4833 26 20.05 26C20.6166 26 21.0916 26.1917 21.475 26.575C21.8583 26.9583 22.05 27.4333 22.05 28C22.05 28.5667 21.8583 29.0417 21.475 29.425C21.0916 29.8083 20.6166 30 20.05 30ZM18.55 40H21.55L21.95 36.4C22.9166 36.1333 23.7416 35.7917 24.425 35.375C25.1083 34.9583 25.7833 34.4 26.45 33.7L29.75 35.2L31.15 32.7L28.25 30.5C28.5166 29.7333 28.65 28.9 28.65 28C28.65 27.1 28.5166 26.2667 28.25 25.5L31.15 23.3L29.75 20.8L26.45 22.3C25.7833 21.6 25.1083 21.0417 24.425 20.625C23.7416 20.2083 22.9166 19.8667 21.95 19.6L21.55 16H18.55L18.15 19.6C17.1833 19.8667 16.3583 20.2083 15.675 20.625C14.9916 21.0417 14.3166 21.6 13.65 22.3L10.35 20.8L8.94995 23.3L11.85 25.5C11.5833 26.2667 11.4416 27.1 11.425 28C11.4083 28.9 11.55 29.7333 11.85 30.5L8.94995 32.7L10.35 35.2L13.65 33.7C14.3166 34.4 14.9916 34.9583 15.675 35.375C16.3583 35.7917 17.1833 36.1333 18.15 36.4L18.55 40Z" fill="#F9F9FB"/>
</g>
</svg>
