<svg width="46" height="46" viewBox="0 0 46 46" fill="none" xmlns="http://www.w3.org/2000/svg">
<mask id="mask0_556_2268" style="mask-type:alpha" maskUnits="userSpaceOnUse" x="0" y="0" width="46" height="46">
<rect width="46" height="46" fill="#D9D9D9"/>
</mask>
<g mask="url(#mask0_556_2268)">
<path d="M1.91663 38.3333V32.9667C1.91663 31.8805 2.19614 30.8823 2.75517 29.9719C3.3142 29.0614 4.0569 28.3667 4.98329 27.8875C6.96385 26.8972 8.97635 26.1545 11.0208 25.6594C13.0652 25.1642 15.1416 24.9167 17.25 24.9167C19.3583 24.9167 21.4347 25.1642 23.4791 25.6594C25.5236 26.1545 27.5361 26.8972 29.5166 27.8875C30.443 28.3667 31.1857 29.0614 31.7448 29.9719C32.3038 30.8823 32.5833 31.8805 32.5833 32.9667V38.3333H1.91663ZM36.4166 38.3333V32.5833C36.4166 31.1778 36.0253 29.8281 35.2427 28.5344C34.46 27.2406 33.35 26.1305 31.9125 25.2042C33.5416 25.3958 35.075 25.7233 36.5125 26.1864C37.95 26.6496 39.2916 27.2167 40.5375 27.8875C41.6875 28.5264 42.5659 29.2371 43.1729 30.0198C43.7798 30.8024 44.0833 31.6569 44.0833 32.5833V38.3333H36.4166ZM17.25 23C15.1416 23 13.3368 22.2493 11.8354 20.7479C10.334 19.2465 9.58329 17.4417 9.58329 15.3333C9.58329 13.225 10.334 11.4201 11.8354 9.91874C13.3368 8.41735 15.1416 7.66666 17.25 7.66666C19.3583 7.66666 21.1632 8.41735 22.6645 9.91874C24.1659 11.4201 24.9166 13.225 24.9166 15.3333C24.9166 17.4417 24.1659 19.2465 22.6645 20.7479C21.1632 22.2493 19.3583 23 17.25 23ZM36.4166 15.3333C36.4166 17.4417 35.6659 19.2465 34.1645 20.7479C32.6632 22.2493 30.8583 23 28.75 23C28.3986 23 27.9513 22.9601 27.4083 22.8802C26.8652 22.8003 26.418 22.7125 26.0666 22.6167C26.9291 21.5944 27.592 20.4604 28.0552 19.2146C28.5184 17.9687 28.75 16.675 28.75 15.3333C28.75 13.9917 28.5184 12.6979 28.0552 11.4521C27.592 10.2062 26.9291 9.07221 26.0666 8.04999C26.5138 7.89027 26.9611 7.78645 27.4083 7.73853C27.8555 7.69061 28.3027 7.66666 28.75 7.66666C30.8583 7.66666 32.6632 8.41735 34.1645 9.91874C35.6659 11.4201 36.4166 13.225 36.4166 15.3333ZM5.74996 34.5H28.75V32.9667C28.75 32.6153 28.6621 32.2958 28.4864 32.0083C28.3107 31.7208 28.0791 31.4972 27.7916 31.3375C26.0666 30.475 24.3257 29.8281 22.5687 29.3969C20.8118 28.9656 19.0388 28.75 17.25 28.75C15.4611 28.75 13.6882 28.9656 11.9312 29.3969C10.1743 29.8281 8.43329 30.475 6.70829 31.3375C6.42079 31.4972 6.1892 31.7208 6.0135 32.0083C5.83781 32.2958 5.74996 32.6153 5.74996 32.9667V34.5ZM17.25 19.1667C18.3041 19.1667 19.2066 18.7913 19.9573 18.0406C20.7079 17.2899 21.0833 16.3875 21.0833 15.3333C21.0833 14.2792 20.7079 13.3767 19.9573 12.626C19.2066 11.8753 18.3041 11.5 17.25 11.5C16.1958 11.5 15.2934 11.8753 14.5427 12.626C13.792 13.3767 13.4166 14.2792 13.4166 15.3333C13.4166 16.3875 13.792 17.2899 14.5427 18.0406C15.2934 18.7913 16.1958 19.1667 17.25 19.1667Z" fill="#F9F9FB"/>
</g>
</svg>
