<svg width="200" height="74" viewBox="0 0 200 74" fill="none" xmlns="http://www.w3.org/2000/svg">
<path d="M143.63 74H144.302V64.1394H143.63V74Z" fill="#F3721D"/>
<path d="M150.048 64.8488H154.91V65.6382H150.984V67.8775H154.644V68.6648H150.984V71.1003H154.939V71.8896H150.048V64.8488Z" fill="black"/>
<path d="M156.526 71.8896H157.364V64.8488H156.526V71.8896Z" fill="black"/>
<path d="M159.259 66.7925H160.097V71.8896H159.259V66.7925ZM160.097 65.875H159.259V64.8488H160.097V65.875Z" fill="black"/>
<path d="M165.095 69.2571C164.442 69.7407 162.552 69.2655 162.552 70.5196C162.552 71.0701 163.024 71.2683 163.537 71.2683C164.641 71.2683 165.095 70.5869 165.095 70.1145V69.2571ZM166.456 71.8698C166.307 71.9585 166.101 72.0078 165.854 72.0078C165.42 72.0078 165.145 71.771 165.145 71.2185C164.681 71.771 164.061 72.0078 163.35 72.0078C162.422 72.0078 161.663 71.6039 161.663 70.5785C161.663 69.4234 162.52 69.1684 163.39 69.0107C164.306 68.8229 165.104 68.9008 165.104 68.2613C165.104 67.5205 164.494 67.4125 163.97 67.4125C163.26 67.4125 162.739 67.6299 162.697 68.3791H161.86C161.91 67.1174 162.877 66.6736 164.021 66.6736C164.937 66.6736 165.933 66.8805 165.933 68.0738V70.6963C165.933 71.0916 165.933 71.2683 166.199 71.2683C166.278 71.2683 166.365 71.2475 166.456 71.2185V71.8698Z" fill="black"/>
<path d="M176.463 71.0115C175.911 71.7422 175.023 72.0566 174.206 72.0566C172.105 72.0566 170.855 70.3511 170.855 68.5083C170.855 66.4572 171.977 64.6819 174.206 64.6819C175.734 64.6819 176.977 65.3719 177.233 67.0189H176.296C176.108 65.9542 175.259 65.471 174.206 65.471C172.499 65.471 171.79 66.9592 171.79 68.4577C171.79 69.9272 172.638 71.2686 174.206 71.2686C175.666 71.2686 176.513 70.2624 176.463 68.9703H174.216V68.1815H177.302V71.8896H176.709L176.463 71.0115Z" fill="black"/>
<path d="M179.056 66.7925H179.845V67.8664H179.866C180.269 67.0376 180.833 66.6448 181.739 66.6739V67.5611C180.388 67.5611 179.894 68.3201 179.894 69.6205V71.8896H179.056V66.7925Z" fill="black"/>
<path d="M185.111 71.2683C185.988 71.2683 186.698 70.5785 186.698 69.3459C186.698 68.1132 185.988 67.4125 185.111 67.4125C184.233 67.4125 183.524 68.1132 183.524 69.3459C183.524 70.5785 184.233 71.2683 185.111 71.2683ZM185.111 66.6736C186.728 66.6736 187.585 67.8473 187.585 69.3459C187.585 70.834 186.728 72.0078 185.111 72.0078C183.493 72.0078 182.635 70.834 182.635 69.3459C182.635 67.8473 183.493 66.6736 185.111 66.6736Z" fill="black"/>
<path d="M193.334 71.8893H192.546V71.0805H192.525C192.171 71.7121 191.607 72.0078 190.868 72.0078C189.528 72.0078 189.114 71.2389 189.114 70.1435V66.7921H189.952V70.2426C189.952 70.8742 190.346 71.2683 190.987 71.2683C192.004 71.2683 192.496 70.5869 192.496 69.6706V66.7921H193.334V71.8893Z" fill="black"/>
<path d="M197.535 67.4128C196.402 67.4128 195.978 68.3885 195.978 69.3358C195.978 70.3321 196.43 71.2685 197.584 71.2685C198.728 71.2685 199.114 70.2914 199.114 69.2956C199.114 68.3399 198.621 67.4128 197.535 67.4128ZM195.168 66.7924H196.006V67.4826H196.027C196.303 66.919 196.944 66.6738 197.654 66.6738C199.221 66.6738 200.001 67.9148 200.001 69.3545C200.001 70.8045 199.232 72.0081 197.673 72.0081C197.16 72.0081 196.392 71.8115 196.027 71.2097H196.006V73.8418H195.168V66.7924Z" fill="black"/>
<path d="M89.9256 32.4701H79.824L78.847 38.0243L78.9169 38.0945C80.2453 36.7347 81.7833 36.2078 83.7043 36.2078C88.528 36.2078 91.254 39.9528 91.254 44.5295C91.254 49.5592 87.0955 53.4389 82.1676 53.3328C77.4132 53.3328 73.1492 50.7148 73.0793 45.5764H78.0421C78.2893 47.7438 79.8939 49.2476 82.0596 49.2476C84.6484 49.2476 86.2912 46.9741 86.2912 44.5295C86.2912 41.978 84.7163 39.9528 82.0596 39.9528C80.2795 39.9528 79.3012 40.5783 78.3242 41.9085H73.8493L76.2601 28.3819H89.9256V32.4701Z" fill="black"/>
<path d="M101.563 49.2478C105.617 49.2478 105.617 43.2697 105.617 40.511C105.617 37.9587 105.617 31.9807 101.563 31.9807C97.5806 31.9807 97.5806 37.9587 97.5806 40.511C97.5806 43.2697 97.5806 49.2478 101.563 49.2478ZM101.563 27.8937C106.457 27.8937 110.582 30.9672 110.582 40.511C110.582 50.2583 106.457 53.333 101.563 53.333C96.7388 53.333 92.6172 50.2583 92.6172 40.511C92.6172 30.9672 96.7388 27.8937 101.563 27.8937Z" fill="black"/>
<path d="M113.227 27.5596H118.257V37.0845H118.362C119.639 35.0334 121.833 34.0409 123.707 34.0409C129.058 34.0409 130.403 37.0516 130.403 41.5854V52.8467H125.376V42.5034C125.376 39.4957 124.489 38.0057 122.151 38.0057C119.425 38.0057 118.257 39.5285 118.257 43.2473V52.8467H113.227V27.5596Z" fill="black"/>
<path d="M146.551 41.726C146.093 39.1778 144.994 37.8298 142.55 37.8298C139.365 37.8298 138.443 40.3076 138.373 41.726H146.551ZM138.373 44.9127C138.514 48.1004 140.074 49.5524 142.87 49.5524C144.888 49.5524 146.516 48.3147 146.838 47.1791H151.262C149.844 51.5011 146.838 53.3398 142.694 53.3398C136.92 53.3398 133.343 49.3767 133.343 43.7096C133.343 38.2199 137.134 34.0407 142.694 34.0407C148.926 34.0407 151.937 39.2819 151.583 44.9127H138.373Z" fill="black"/>
<path d="M154.556 34.538H159.337V37.9362H159.409C160.328 35.6332 162.807 34.0409 165.253 34.0409C165.606 34.0409 166.032 34.1121 166.35 34.2178V38.8911C165.891 38.79 165.145 38.7185 164.544 38.7185C160.858 38.7185 159.586 41.3698 159.586 44.5961V52.8467H154.556V34.538Z" fill="black"/>
<path d="M176.479 34.5383H180.163V37.8998H176.479V46.968C176.479 48.6665 176.904 49.0904 178.604 49.0904C179.136 49.0904 179.631 49.057 180.163 48.9513V52.8836C179.313 53.0226 178.213 53.0605 177.224 53.0605C174.142 53.0605 171.451 52.3516 171.451 48.7011V37.8998H168.405V34.5383H171.451V29.0481H176.479V34.5383Z" fill="black"/>
<path d="M183.207 49.0567L192.736 38.3275H183.916V34.538H199.357V38.3275L189.832 49.0567H200.028V52.8467H183.207V49.0567Z" fill="black"/>
<path d="M81.1679 17.8209C78.4892 13.0055 70.6736 11.4827 63.0624 14.4796C57.7516 16.5693 53.8837 20.3383 52.4654 24.2378C52.2012 24.785 51.9927 25.3309 51.8408 25.8629L46.7878 26.5863C47.2415 25.3933 47.8653 24.1751 48.6961 22.9462C55.876 12.359 68.6483 7.80451 79.252 9.22994C85.0637 10.0085 88.275 13.3915 89.3368 17.2998L81.1679 17.8209ZM194.274 12.9707L115.794 15.8723L99.3096 16.7639L95.2617 16.9813L90.1728 17.2649C88.8567 11.985 84.6205 8.29109 77.8182 7.37488C66.7965 5.89574 54.0993 12.1884 47.5423 19.987C45.6959 22.1791 43.8357 25.4876 43.7455 27.0193L38.8919 27.7055C41.4404 18.3373 51.8984 8.7356 65.604 4.19403C78.2316 0.00379944 90.1126 1.27135 96.4814 6.64307C90.6386 0.228321 77.2514 -1.37116 62.8281 3.40982C47.8443 8.38297 36.4958 18.6638 34.4814 28.1925L18.6807 30.6189L0 33.3001V33.3903L34.2254 32.4564C34.2709 32.8603 34.3247 33.2614 34.405 33.6545C35.4393 38.6559 41.0074 41.199 46.5477 42.8389C43.1752 40.8396 39.3713 38.7153 38.5714 34.828C38.4086 34.0576 38.325 33.2723 38.2974 32.4842L40.646 32.2815L42.7716 32.2151C43.6065 37.3989 48.9291 41.7432 56.707 42.301C60.0723 42.5394 63.5893 42.0996 67.0223 41.1573V38.8682C63.5906 39.7925 59.8082 40.2184 55.6846 39.998C49.0474 39.6504 44.9167 36.4777 43.6254 32.2011L53.1968 31.937C53.3429 32.0862 53.5115 32.2184 53.6904 32.3472C56.3316 35.4363 61.4819 36.6811 67.0223 35.5875V32.5626C60.82 33.8751 55.3401 32.4256 54.1618 28.8914C52.8146 24.8545 57.5916 19.6205 64.8321 17.2055C72.0731 14.7892 79.0346 16.1035 80.3811 20.1437C80.7564 21.2616 80.6451 22.4728 80.1546 23.6918L110.334 20.8286L115.759 20.3054L196.19 12.9707H194.274Z" fill="#F36518"/>
</svg>
