<svg width="91" height="44" viewBox="0 0 91 44" fill="none" xmlns="http://www.w3.org/2000/svg">
<path d="M69.4155 26.4307C69.807 26.4307 70.1357 26.3094 70.4024 26.0665C70.6692 25.824 70.8021 25.5178 70.8021 25.1511C70.8021 24.7838 70.6692 24.4781 70.4024 24.2356C70.1357 23.9922 69.807 23.871 69.4155 23.871C69.024 23.871 68.7014 23.9983 68.4472 24.2529C68.1917 24.508 68.0648 24.8072 68.0648 25.1511C68.0648 25.4945 68.1917 25.7941 68.4472 26.0483C68.7014 26.3038 69.0245 26.4307 69.4155 26.4307ZM29.8183 27.9204C28.3139 27.9204 27.3413 28.2633 26.5142 28.634L26.4631 28.6566L27.0295 30.3372L27.0901 30.3121C27.8666 29.9882 28.5828 29.7729 29.555 29.7729C30.9269 29.7729 31.6523 30.4069 31.6523 31.6065V31.7377C31.0949 31.5653 30.3878 31.3973 29.3736 31.3973C27.0858 31.3973 25.72 32.4673 25.72 34.2597V34.2926C25.72 36.1803 27.3491 37.0399 28.8626 37.0399C29.998 37.0399 30.9304 36.6475 31.6358 35.8733V36.8584H33.7027V31.6398C33.7027 30.4476 33.3805 29.5291 32.7457 28.9108C32.1152 28.2629 31.1027 27.9204 29.8183 27.9204ZM31.6852 33.6669C31.6852 34.7101 30.7338 35.4675 29.4229 35.4675C28.4443 35.4675 27.7869 34.9621 27.7869 34.2104V34.1774C27.7869 33.3079 28.5278 32.7887 29.7689 32.7887C30.6272 32.7887 31.279 32.9628 31.6852 33.1152V33.6669ZM45.8869 27.8541C44.6964 27.8541 43.739 28.3383 42.9638 29.3343C42.4485 28.379 41.5248 27.8541 40.35 27.8541C39.0309 27.8541 38.2713 28.56 37.7582 29.2299V28.0356H35.6419V36.8584H37.7582V31.8871C37.7582 30.6126 38.4649 29.7894 39.5596 29.7894C40.641 29.7894 41.2615 30.536 41.2615 31.8377V36.8584H43.3774V31.8871C43.3774 30.5931 44.0676 29.7894 45.1784 29.7894C46.2762 29.7894 46.8803 30.5225 46.8803 31.8537V36.8584H48.997V31.2444C48.997 29.1216 47.8343 27.8541 45.8869 27.8541ZM55.956 27.8541C54.7751 27.8541 53.8229 28.3469 53.0512 29.3598V28.0356H50.9349V40.5662H53.0512V35.6242C53.8233 36.5769 54.7756 37.0403 55.956 37.0403C57.9926 37.0403 60.0544 35.4684 60.0544 32.4635V32.4305C60.0544 29.4261 57.9931 27.8541 55.956 27.8541ZM57.9056 32.4635C57.9056 34.0419 56.8849 35.1873 55.4784 35.1873C54.0667 35.1873 53.0018 34.0164 53.0018 32.4635V32.4305C53.0018 30.8776 54.0667 29.7067 55.4788 29.7067C56.862 29.7067 57.9056 30.8776 57.9056 32.4305V32.4635ZM63.7322 33.4854C63.7322 31.3354 64.7915 30.1025 66.6371 30.1025H66.8138V27.8732L66.7549 27.8706C66.6999 27.8682 66.6449 27.8671 66.5899 27.8671C65.0318 27.8671 64.1848 28.8428 63.7322 29.7729V28.0356H61.6159V36.8584H63.7322V33.485V33.4854ZM68.3753 28.0356H70.4916V36.8584H68.3753V28.0356ZM90.9119 36.8584V31.2444C90.9119 29.1528 89.7011 27.8541 87.7528 27.8541C86.6516 27.8541 85.8028 28.2958 85.0948 29.2416V28.0356H82.9785V36.8584H85.0948V31.8871C85.0948 30.6126 85.8409 29.7894 86.9945 29.7894C88.1391 29.7894 88.7956 30.542 88.7956 31.8537V36.8584H90.9119ZM81.4355 32.4639V32.431C81.4355 29.8647 79.3742 27.8546 76.7439 27.8546C74.1037 27.8546 72.0359 29.8795 72.0359 32.4639V32.4972C72.0359 35.0539 74.0894 37.0568 76.711 37.0568C79.3604 37.0568 81.4355 35.0392 81.4355 32.4639ZM79.3193 32.4972C79.3193 34.0562 78.2362 35.1877 76.7439 35.1877C75.2906 35.1877 74.1522 33.9912 74.1522 32.4639V32.431C74.1522 30.8625 75.2283 29.724 76.711 29.724C78.1977 29.724 79.3193 30.9019 79.3193 32.4639V32.4972ZM66.7289 40.4739C65.8065 40.4739 65.1517 41.2318 65.1517 42.155V42.1671C65.1517 43.1631 65.8732 43.8417 66.8081 43.8417C67.4014 43.8417 67.8232 43.6035 68.1285 43.2367L67.6946 42.8513C67.4378 43.1025 67.181 43.2367 66.8207 43.2367C66.3435 43.2367 65.9711 42.9431 65.8914 42.4174H68.2632C68.2688 42.3438 68.2753 42.2771 68.2753 42.2096C68.2753 41.2807 67.7556 40.4739 66.7289 40.4739ZM65.8853 41.929C65.9524 41.4271 66.2703 41.0789 66.7224 41.0789C67.2117 41.0789 67.4932 41.4517 67.5417 41.9285L65.8853 41.929ZM69.8499 41.2932V40.5662H69.1102V43.7932H69.8499V42.5642C69.8499 41.7085 70.302 41.2867 70.9498 41.2867H70.9927V40.5047C70.4241 40.4804 70.0517 40.8108 69.8499 41.2932ZM73.5567 40.4986C73.0314 40.4986 72.6954 40.7675 72.4568 41.1036V39.3311H71.7176V43.7928H72.4572V43.2917C72.6833 43.5914 73.0189 43.8599 73.5572 43.8599C74.321 43.8599 75.0546 43.2549 75.0546 42.1853V42.1732C75.0546 41.0975 74.3154 40.4986 73.5572 40.4986H73.5567ZM74.3029 42.1853C74.3029 42.821 73.8871 43.2186 73.3796 43.2186C72.8786 43.2186 72.4386 42.8028 72.4386 42.1853V42.1732C72.4386 41.5557 72.8786 41.1404 73.3796 41.1404C73.8811 41.1404 74.3029 41.55 74.3029 42.1732V42.1853ZM76.1723 39.1159C76.0407 39.1159 75.9307 39.1592 75.8449 39.2449C75.8039 39.2839 75.7713 39.3309 75.7491 39.3829C75.7269 39.435 75.7156 39.491 75.7159 39.5476C75.7159 39.6633 75.7592 39.765 75.8449 39.8508C75.9315 39.9374 76.0381 39.9794 76.1723 39.9794C76.3044 39.9794 76.417 39.9382 76.5062 39.8564C76.5497 39.8178 76.5842 39.7701 76.6075 39.7168C76.6307 39.6635 76.6421 39.6058 76.6409 39.5476C76.6421 39.4895 76.6307 39.4318 76.6075 39.3784C76.5842 39.3251 76.5497 39.2775 76.5062 39.2389C76.4149 39.1565 76.2953 39.1124 76.1723 39.1159ZM75.8086 40.5662H76.5482V43.7928H75.8086V40.5662ZM79.3257 40.4986C78.8247 40.4986 78.5255 40.761 78.3172 41.0607V40.5662H77.578V43.7928H78.3172V41.9714C78.3172 41.4704 78.6169 41.1711 79.0447 41.1711C79.4851 41.1711 79.7354 41.4582 79.7354 41.9593V43.7928H80.4746V41.7332C80.4746 40.9879 80.0528 40.4986 79.3257 40.4986ZM83.8134 41.0663C83.5809 40.7606 83.2448 40.4982 82.713 40.4982C81.9426 40.4982 81.2156 41.1031 81.2156 42.1723V42.1849C81.2156 43.2545 81.9552 43.8595 82.713 43.8595C83.2383 43.8595 83.5748 43.591 83.8134 43.2545V43.7923H84.553V39.3298H83.8134V41.0663ZM83.8251 42.1849C83.8251 42.802 83.3851 43.2177 82.8901 43.2177C82.3891 43.2177 81.9613 42.8085 81.9613 42.1849V42.1723C81.9613 41.5314 82.3826 41.1399 82.8901 41.1399C83.3851 41.1399 83.8255 41.5492 83.8255 42.1723V42.1849H83.8251ZM86.9261 40.4951C86.0037 40.4951 85.349 41.253 85.349 42.1758V42.1883C85.349 43.1844 86.0704 43.8629 87.0054 43.8629C87.5986 43.8629 88.0204 43.6243 88.3257 43.258L87.8918 42.8726C87.635 43.1233 87.3782 43.258 87.0179 43.258C86.5407 43.258 86.1683 42.9644 86.0886 42.4386H88.4604C88.466 42.365 88.4725 42.2979 88.4725 42.2308C88.4725 41.3019 87.9529 40.4951 86.9261 40.4951ZM86.0826 41.9502C86.1497 41.4483 86.4675 41.1001 86.9196 41.1001C87.409 41.1001 87.6904 41.4725 87.7389 41.9497L86.0826 41.9502ZM90.9253 41.2019V40.5662H90.0575V39.6801H89.3178V40.5662H88.9086V41.2019H89.3178V42.9007C89.3178 43.61 89.7032 43.8482 90.2471 43.8482C90.5278 43.8482 90.73 43.7876 90.9132 43.6837V43.0774C90.7664 43.151 90.62 43.1882 90.455 43.1882C90.2043 43.1882 90.0575 43.0718 90.0575 42.7847V41.2019H90.9253ZM63.2394 42.9124L62.3803 40.5662H61.5873L62.9034 43.7928H63.5694L64.8794 40.5666H64.1042L63.2394 42.9124Z" fill="#151515"/>
<path d="M25.3635 0.137085H15.7191C13.9752 0.137085 13.5132 0.637685 12.8879 2.23432L0 33.815H11.3415L23.753 2.0689C24.1401 1.04302 24.619 0.30987 25.3661 0.166965C25.3738 0.165233 25.3786 0.160902 25.3786 0.152675C25.3786 0.148614 25.377 0.144713 25.3742 0.141801C25.3714 0.13889 25.3675 0.137198 25.3635 0.137085Z" fill="#9E007E"/>
<path d="M36.1211 23.881C36.1211 23.881 28.4216 2.59075 28.3696 2.45391L28.3653 2.44135L28.3558 2.4184C28.0124 1.51853 27.5893 0.722165 26.5483 0.70874C25.7004 0.764603 25.1772 1.5272 24.7611 2.63016L21.3262 11.4158L25.8346 23.881H36.1211Z" fill="#00A9E0"/>
</svg>
