<svg width="105" height="40" viewBox="0 0 105 40" fill="none" xmlns="http://www.w3.org/2000/svg">
<path d="M38.8 34.3044H39.1V39.5044H38.8V34.3044Z" fill="#FF7300"/>
<path d="M42.2 34.7044H44.7999V35.1044H42.7V36.3044H44.5999V36.7044H42.7V38.0044H44.7999V38.4044H42.2V34.7044ZM45.7 34.7044H46.0999V38.4044H45.7V34.7044ZM47.5999 35.2044H47.2V34.7044H47.5999V35.2044ZM47.0999 35.7044H47.5V38.4044H47.0999V35.7044ZM50.9 38.4044C50.8 38.5044 50.6999 38.5044 50.5999 38.5044C50.3999 38.5044 50.2 38.4044 50.2 38.1044C50 38.4044 49.6 38.6044 49.2 38.5044C48.7 38.5044 48.2999 38.3044 48.2999 37.7044C48.2999 37.1044 48.8 36.9044 49.2 36.9044C49.6 36.9044 50.0999 36.8044 50.0999 36.5044C50.0999 36.2044 49.7999 36.1044 49.5999 36.1044C49.3999 36.1044 49 36.1044 49 36.5044H48.5999C48.5999 35.8044 49.0999 35.6044 49.7999 35.6044C50.4999 35.6044 50.7999 35.7044 50.7999 36.3044V37.7044C50.7999 37.9044 50.8 38.0044 51 38.0044H51.0999L50.9 38.4044ZM50.2 37.0044C49.9 37.3044 48.9 37.0044 48.9 37.7044C48.9 38.0044 49.2 38.1044 49.4 38.1044C50 38.1044 50.2 37.7044 50.2 37.5044V37.0044ZM56.2999 37.9044C55.9999 38.3044 55.5999 38.5044 55.0999 38.5044C54.0999 38.5044 53.2999 37.7044 53.2999 36.7044V36.6044C53.1999 35.6044 53.9 34.7044 54.9 34.6044H55.0999C55.8999 34.5044 56.6 35.0044 56.7 35.8044H56.2C56.1 35.3044 55.5999 35.0044 55.0999 35.0044C54.1999 35.0044 53.7999 35.8044 53.7999 36.6044C53.6999 37.3044 54.2 38.0044 55 38.1044H55.0999C55.6999 38.1044 56.2999 37.7044 56.2999 37.1044V36.9044H55.0999V36.5044H56.7V38.5044H56.4L56.2999 37.9044ZM57.7 35.7044H58.0999V36.3044C58.2999 35.9044 58.6999 35.6044 59.0999 35.7044V36.2044C58.3999 36.2044 58.0999 36.6044 58.0999 37.3044V38.4044H57.7V35.7044ZM60.9 35.6044C61.7 35.5044 62.4 36.1044 62.4 36.9044C62.4 37.7044 61.8999 38.4044 61.0999 38.4044C60.2999 38.5044 59.5999 37.9044 59.5999 37.1044V37.0044C59.4999 36.3044 60.0999 35.7044 60.7999 35.6044H60.9ZM60.9 38.1044C61.4 38.1044 61.7 37.7044 61.7 37.1044C61.7 36.5044 61.3 36.1044 60.9 36.1044C60.5 36.1044 60.0999 36.5044 60.0999 37.1044C60.0999 37.7044 60.4 38.1044 60.9 38.1044ZM65.1999 38.4044H64.8V38.0044C64.6 38.3044 64.3 38.5044 63.9 38.5044C63.2 38.5044 63 38.1044 63 37.5044V35.7044H63.4V37.5044C63.4 37.8044 63.6 38.0044 63.9 38.0044H64C64.4 38.0044 64.8 37.7044 64.8 37.3044V35.7044H65.1999V38.4044ZM66.1999 35.7044H66.5999V36.0044C66.7999 35.7044 67.1 35.5044 67.5 35.6044C68.2 35.6044 68.8 36.2044 68.8 36.9044V37.1044C68.9 37.8044 68.3999 38.4044 67.6999 38.5044H67.5C67.2 38.5044 66.7999 38.4044 66.5999 38.1044V39.4044H66.1999V35.7044ZM67.5 36.0044C66.9 36.0044 66.6999 36.5044 66.6999 37.0044C66.6999 37.5044 66.9 38.0044 67.5 38.0044C68.1 38.0044 68.3 37.5044 68.3 37.0044C68.3 36.5044 68 36.0044 67.5 36.0044Z" fill="#394D55"/>
<path d="M103.3 7.10439L61.6 8.60439L52.8 9.10439L50.6 9.20439L48 9.40439C47.3 6.60439 45 4.60439 41.4 4.10439C35.5 3.30439 28.8 6.70439 25.3 10.8044C24.3 11.9044 23.7 13.2044 23.3 14.5044L20.7 14.9044C22 9.90439 27.6 4.80439 34.8 2.40439C41.5 0.204387 47.8 0.904387 51.2 3.70439C48.1 0.304387 41 -0.595613 33.3 2.00439C25.3 4.60439 19.3 10.1044 18.2 15.2044L9.8 16.5044L0 17.9044L18.2 17.4044C18.2 17.6044 18.2 17.8044 18.3 18.0044C18.8 20.7044 21.8 22.0044 24.8 22.9044C23 21.8044 21 20.7044 20.6 18.6044C20.5 18.2044 20.5 17.8044 20.4 17.3044L21.7 17.2044H22.8C23.3 20.0044 26.1 22.3044 30.2 22.6044C32 22.7044 33.9 22.5044 35.7 21.9044V20.7044C33.7 21.2044 31.7 21.4044 29.7 21.3044C26.2 21.1044 24 19.4044 23.3 17.2044L28.4 17.1044C28.5 17.2044 28.6 17.3044 28.7 17.3044C30.1 18.9044 32.8 19.6044 35.8 19.0044V17.4044C32.5 18.1044 29.6 17.3044 29 15.5044C28.3 13.3044 30.8 10.6044 34.7 9.30439C38.6 8.00439 42.2 8.70439 43 10.9044C43.2 11.5044 43.2 12.2044 42.9 12.8044L58.9 11.3044L61.8 11.1044L104.6 7.20439L103.3 7.10439ZM43.2 9.70439C41.8 7.10439 37.6 6.30439 33.6 7.90439C31.1 8.80439 29 10.7044 28 13.1044L27.7 14.0044L25 14.4044C25.3 13.7044 25.6 13.1044 26 12.5044C29.7 7.30439 35.9 4.40439 42.2 5.20439C44.7 5.30439 46.9 7.10439 47.6 9.50439L43.2 9.70439Z" fill="#FF7300"/>
<path d="M41.4999 24.1044C41.5999 25.8044 42.3999 26.6044 43.8999 26.6044C44.7999 26.6044 45.5999 26.1044 45.9999 25.3044H48.2999C47.7999 27.3044 45.8999 28.7044 43.6999 28.6044C41.0999 28.7044 38.7999 26.7044 38.6999 24.1044V23.5044C38.5999 20.8044 40.5999 18.5044 43.2999 18.4044H43.6999C46.9999 18.4044 48.5999 21.2044 48.3999 24.2044H41.4999V24.1044ZM45.7999 22.4044C45.5999 21.0044 44.9999 20.3044 43.6999 20.3044C42.4999 20.2044 41.4999 21.1044 41.4999 22.3044V22.4044H45.7999ZM50.3999 14.9044H52.9999V28.3044H50.2999V14.9044H50.3999ZM58.0999 17.0044H55.3999V14.8044H58.0999V17.0044ZM55.3999 18.5044H58.0999V28.2044H55.3999V18.5044ZM60.1999 21.6044C60.3999 19.1044 62.5999 18.3044 64.7999 18.3044C66.6999 18.3044 69.0999 18.7044 69.0999 21.1044V26.1044C68.9999 26.8044 69.1999 27.6044 69.3999 28.3044H66.6999C66.5999 28.0044 66.4999 27.7044 66.4999 27.4044C65.5999 28.2044 64.3999 28.7044 63.1999 28.6044C61.3999 28.6044 59.8999 27.7044 59.8999 25.7044C59.8999 23.5044 61.5999 23.0044 63.1999 22.7044C64.7999 22.4044 66.3999 22.5044 66.3999 21.4044C66.3999 20.3044 65.5999 20.1044 64.5999 20.1044C63.5999 20.1044 62.8999 20.5044 62.7999 21.6044H60.1999ZM66.3999 23.6044C65.6999 23.9044 64.9999 24.1044 64.1999 24.2044C63.3999 24.4044 62.5999 24.7044 62.5999 25.6044C62.5999 26.5044 63.3999 26.8044 64.1999 26.8044C65.2999 26.9044 66.2999 26.1044 66.3999 25.0044V23.6044Z" fill="#394D55"/>
</svg>
