<svg width="201" height="55" viewBox="0 0 201 55" fill="none" xmlns="http://www.w3.org/2000/svg">
<path d="M162.463 13.9014C155.782 17.4552 150.873 23.3791 150.788 28.9687C150.889 35.6058 157.79 42.7121 166.386 45.7657C165.657 40.4701 162.478 19.1094 162.463 13.9014Z" fill="#474794"/>
<path d="M186.4 18.8575C188.797 19.6489 190.04 21.442 191.916 23.3186C194.003 25.407 196.695 27.7663 197.83 30.8631C199.38 27.9497 200.226 24.3217 200.226 20.0884C200.226 8.36053 194.686 -4.75328 176.771 1.70993C167.863 4.9267 164.049 9.80443 162.463 13.9016C164.398 12.8716 166.742 12.8217 168.899 12.2554C175.419 10.5055 182.445 12.7893 186.4 18.8575Z" fill="#8C8ACC"/>
<path d="M186.632 38.7084C181.738 44.7172 175.407 48.1039 168.755 46.3189C167.995 46.118 167.126 46.029 166.386 45.7661C166.884 46.4483 167.438 47.0995 168.051 47.7102C174.628 54.2853 188.456 57.0612 195.401 50.2071C200.077 45.4668 200.27 37.522 197.83 30.8633C195.519 35.2031 190.996 37.2658 186.632 38.7084Z" fill="#4C57B0"/>
<path d="M186.4 18.8574C188.222 21.6495 189.338 25.0779 189.345 28.9688C189.338 32.6885 188.313 35.9834 186.632 38.7081C191.639 37.9477 195.519 35.2028 197.83 30.863C196.695 27.7662 194.994 24.9445 192.905 22.8575C191.031 20.9808 188.797 19.6488 186.4 18.8574Z" fill="#353885"/>
<path d="M161.533 21.3797C161.72 24.0977 162.808 26.705 164.5 29.0428C165.366 26.9154 166.651 24.9106 168.363 23.1688C173.317 18.3032 180.374 16.866 186.4 18.8573C182.445 12.7891 175.158 9.7233 168.638 11.4705C166.481 12.0395 164.398 12.8713 162.463 13.9013C160.859 18.0416 161.533 21.3797 161.533 21.3797Z" fill="#353885"/>
<path d="M186.632 38.7081C185.691 38.8497 184.714 38.9252 183.697 38.9252C176.534 38.9252 168.673 34.8105 164.5 29.043C162.253 34.5813 162.881 40.9555 166.386 45.7659C167.127 46.0288 167.876 46.2647 168.638 46.4656C175.29 48.2479 182.735 45.019 186.632 38.7081Z" fill="#353885"/>
<path d="M186.495 18.7601C180.409 16.7499 173.281 18.2006 168.279 23.116C166.548 24.8768 165.248 26.899 164.378 29.0481C168.591 34.8722 176.53 39.0314 183.764 39.0314C184.79 39.0314 185.78 38.9545 186.729 38.8089C188.428 36.0586 189.462 32.7299 189.467 28.9739C189.461 25.0439 188.333 21.5805 186.495 18.7601ZM4.95054 26.4622H19.9316C19.7293 24.2067 19.1564 22.5147 18.214 21.385C16.7647 19.635 14.8867 18.7587 12.5799 18.7587C10.4916 18.7587 8.73624 19.4571 7.31391 20.8538C5.89022 22.2532 5.10288 24.1218 4.95054 26.4622ZM19.8803 33.8139L24.5788 34.395C23.8373 37.1399 22.4662 39.27 20.4601 40.7854C18.4567 42.3021 15.8965 43.0571 12.7822 43.0571C8.85758 43.0571 5.74866 41.8504 3.44866 39.4345C1.14865 37.0172 0 33.6292 0 29.2665C0 24.7541 1.16214 21.2502 3.48641 18.7587C5.81068 16.2659 8.82388 15.0202 12.53 15.0202C16.1162 15.0202 19.0472 16.2403 21.3202 18.6819C23.5946 21.1234 24.7311 24.5599 24.7311 28.9887C24.7311 29.2584 24.7203 29.6628 24.7055 30.2008H4.69843C4.86695 33.1479 5.70148 35.4048 7.19931 36.97C8.69715 38.5379 10.5684 39.3199 12.8064 39.3199C14.4728 39.3199 15.8965 38.8817 17.0761 38.0068C18.2558 37.1304 19.1901 35.7337 19.8803 33.8139ZM36.4954 42.4517V15.6255H40.5885V19.4409C42.5595 16.4938 45.4042 15.0202 49.1265 15.0202C50.743 15.0202 52.2287 15.31 53.5836 15.8911C54.9399 16.4722 55.9524 17.2326 56.6292 18.179C57.3006 19.12 57.7725 20.2417 58.0421 21.5373C58.212 22.3772 58.2956 23.8522 58.2956 25.958V42.4517H53.7495V26.1346C53.7495 24.2822 53.5715 22.8976 53.2183 21.9782C52.8637 21.0614 52.2368 20.328 51.3362 19.7806C50.4356 19.2346 49.3773 18.9609 48.1653 18.9609C46.2293 18.9609 44.5575 19.5757 43.1527 20.8039C41.7466 22.0348 41.0442 24.3672 41.0442 27.801V42.4517H36.4954ZM81.4035 38.3856L82.0614 42.4018C80.7806 42.6715 79.636 42.8063 78.6248 42.8063C76.9747 42.8063 75.6939 42.5447 74.7852 42.0243C73.8752 41.5026 73.2348 40.8164 72.8668 39.963C72.4933 39.1163 72.31 37.3246 72.31 34.5958V19.1632H68.9745V15.6255H72.31V8.98436L76.8318 6.25293V15.6255H81.4035V19.1632H76.8318V34.848C76.8318 36.1463 76.9113 36.9808 77.0704 37.3502C77.2308 37.7196 77.4924 38.0162 77.855 38.2359C78.2163 38.453 78.7341 38.5635 79.4081 38.5635C79.9124 38.5635 80.5784 38.5042 81.4035 38.3856ZM90.2395 34.4462L94.7357 33.7384C94.9878 35.5396 95.6915 36.9201 96.8429 37.88C97.9983 38.8413 99.6107 39.3199 101.682 39.3199C103.77 39.3199 105.32 38.8952 106.33 38.0458C107.341 37.1938 107.847 36.1961 107.847 35.0502C107.847 34.0242 107.399 33.2153 106.507 32.6261C105.884 32.2217 104.335 31.7094 101.858 31.0852C98.5241 30.2452 96.2133 29.5145 94.9244 28.9011C93.6369 28.2863 92.6595 27.4356 91.9948 26.349C91.3275 25.2623 90.9972 24.0625 90.9972 22.7507C90.9972 21.5535 91.2708 20.4466 91.8168 19.4274C92.3642 18.4095 93.1084 17.5629 94.0521 16.8888C94.7613 16.3684 95.7239 15.9248 96.9453 15.5635C98.1668 15.2008 99.4759 15.0202 100.873 15.0202C102.977 15.0202 104.828 15.3222 106.419 15.9302C108.01 16.5355 109.184 17.3566 109.943 18.392C110.701 19.4274 111.223 20.8133 111.508 22.5485L107.062 23.1538C106.86 21.7732 106.276 20.6947 105.307 19.9208C104.337 19.1456 102.972 18.7587 101.202 18.7587C99.1132 18.7587 97.6221 19.1038 96.731 19.7941C95.8371 20.4857 95.3909 21.2933 95.3909 22.2195C95.3909 22.8087 95.5756 23.3385 95.9477 23.8104C96.3171 24.2997 96.8995 24.7042 97.6896 25.0224C98.1452 25.1909 99.484 25.5778 101.707 26.1845C104.923 27.0447 107.167 27.7471 108.44 28.2931C109.71 28.8431 110.708 29.6359 111.433 30.6821C112.156 31.7256 112.52 33.0225 112.52 34.5729C112.52 36.0869 112.076 37.5147 111.193 38.8521C110.309 40.1922 109.033 41.2276 107.367 41.961C105.699 42.693 103.812 43.0571 101.707 43.0571C98.2207 43.0571 95.5648 42.3344 93.738 40.8865C91.9085 39.4399 90.745 37.2909 90.2395 34.4462ZM127.114 29.04C127.114 32.4738 127.863 35.0475 129.361 36.757C130.86 38.4665 132.745 39.3199 135.021 39.3199C137.275 39.3199 139.154 38.4611 140.654 36.7449C142.151 35.0259 142.901 32.4064 142.901 28.8876C142.901 25.5697 142.147 23.0567 140.64 21.3486C139.133 19.6377 137.259 18.783 135.021 18.783C132.745 18.783 130.86 19.635 129.361 21.3351C127.863 23.0352 127.114 25.6034 127.114 29.04ZM122.441 29.04C122.441 24.0719 123.82 20.3914 126.583 17.9997C128.889 16.0138 131.703 15.0202 135.021 15.0202C138.708 15.0202 141.723 16.2282 144.064 18.6455C146.405 21.0614 147.575 24.3995 147.575 28.6598C147.575 32.1111 147.057 34.8291 146.022 36.8069C144.985 38.7847 143.477 40.3216 141.499 41.4163C139.521 42.511 137.36 43.0571 135.021 43.0571C131.265 43.0571 128.229 41.8558 125.914 39.4453C123.599 37.0401 122.441 33.5699 122.441 29.04Z" fill="#282E70"/>
<path d="M164.297 26.4626H179.275C179.073 24.207 178.501 22.5151 177.557 21.3853C176.108 19.6353 174.231 18.759 171.923 18.759C169.836 18.759 168.08 19.4574 166.657 20.8541C165.234 22.2535 164.446 24.1221 164.297 26.4626ZM179.225 33.8142L183.922 34.3953C183.183 37.1402 181.81 39.2703 179.806 40.7857C177.8 42.3024 175.243 43.0574 172.126 43.0574C168.202 43.0574 165.092 41.8508 162.792 39.4348C160.493 37.0175 159.345 33.6295 159.345 29.2668C159.345 24.7544 160.507 21.2505 162.831 18.759C165.154 16.2662 168.17 15.0205 171.873 15.0205C175.461 15.0205 178.392 16.2406 180.665 18.6822C182.937 21.1237 184.074 24.5603 184.074 28.9891C184.074 29.2587 184.066 29.6632 184.049 30.2011H164.045C164.21 33.1482 165.045 35.4051 166.544 36.9703C168.043 38.5383 169.912 39.3202 172.151 39.3202C173.82 39.3202 175.243 38.8821 176.421 38.0071C177.599 37.1308 178.533 35.734 179.225 33.8142Z" fill="#FABD17"/>
</svg>
