<svg width="101" height="24" viewBox="0 0 101 24" fill="none" xmlns="http://www.w3.org/2000/svg">
<g clip-path="url(#clip0_915_2908)">
<path d="M53.9432 22.0645C53.8667 22.1419 53.7137 22.1419 53.4841 22.1419H50.194C49.8114 22.1419 49.6584 21.9871 49.6584 21.6L50.5765 15.1742H45.3735L44.4553 21.6774C44.4553 21.9097 44.3788 21.9871 44.3023 22.0645C44.2258 22.1419 44.0727 22.1419 43.8432 22.1419H40.553C40.1705 22.1419 40.0174 21.9871 40.094 21.6L42.3129 5.57419C42.3894 5.26451 42.5424 5.03225 42.925 5.03225H46.2152C46.4447 5.03225 46.5977 5.03225 46.6743 5.10967C46.7508 5.18709 46.7508 5.34193 46.6743 5.49677L45.9091 11.2258H51.1121L51.8773 5.49677C51.9538 5.18709 52.1068 4.95483 52.4894 4.95483H55.7796C56.0856 4.95483 56.2387 4.95483 56.2387 5.03225C56.3152 5.10967 56.3152 5.26451 56.2387 5.41935L54.0197 21.6774C54.0197 21.9097 53.9432 22.0645 53.9432 22.0645Z" fill="white"/>
<path d="M65.7266 4.87744C66.7978 4.87744 67.7925 5.03228 68.6342 5.34196C69.4758 5.65163 70.0879 6.11615 70.6235 6.73551C71.1592 7.35486 71.5417 8.05163 71.8478 8.90325C72.0773 9.75486 72.2304 10.6839 72.2304 11.7678C72.2304 13.3162 72.0773 14.7871 71.6948 16.1032C71.3122 17.4194 70.7766 18.5032 70.0879 19.5097C69.3993 20.4387 68.4811 21.2129 67.4099 21.6774C66.3387 22.2194 65.1145 22.4516 63.6607 22.4516C62.5129 22.4516 61.5948 22.2968 60.7531 21.9871C59.9879 21.6774 59.2993 21.2129 58.7637 20.671C58.2281 20.0516 57.8455 19.3549 57.616 18.5032C57.3864 17.6516 57.2334 16.6452 57.2334 15.5613C57.2334 13.9355 57.4629 12.542 57.8455 11.2258C58.2281 9.9097 58.8402 8.74841 59.5289 7.81938C60.294 6.89034 61.1357 6.19357 62.2069 5.65163C63.2016 5.1097 64.3493 4.87744 65.7266 4.87744ZM65.2675 8.98067C64.6554 8.98067 64.1963 9.13551 63.7372 9.5226C63.2781 9.9097 62.972 10.3742 62.666 10.9936C62.3599 11.6129 62.1304 12.3097 62.0538 13.0065C61.9008 13.7807 61.8243 14.5549 61.8243 15.3291C61.8243 16.2581 61.9773 17.0323 62.3599 17.5742C62.7425 18.1162 63.2781 18.3484 64.1198 18.3484C64.7319 18.3484 65.191 18.1936 65.6501 17.8065C66.1092 17.4194 66.4152 16.9549 66.7213 16.3355C67.0273 15.7162 67.1804 15.0968 67.3334 14.3226C67.4864 13.5484 67.5629 12.8516 67.5629 12.0774C67.5629 11.6129 67.5629 11.2258 67.4864 10.8387C67.4099 10.4516 67.2569 10.142 67.1038 9.83228C66.9508 9.5226 66.7213 9.36776 66.4152 9.21292C66.0326 9.05809 65.7266 8.98067 65.2675 8.98067Z" fill="white"/>
<path d="M78.1985 16.4129L77.4333 21.7548C77.4333 21.9871 77.3568 22.0645 77.2803 22.1419C77.2038 22.2194 77.0508 22.2194 76.8212 22.2194H73.5311C73.1485 22.2194 72.9955 22.0645 73.072 21.7548L75.1379 6.81291C75.1379 6.58065 75.2144 6.42581 75.2909 6.19355C75.3674 5.96129 75.444 5.80645 75.597 5.65162C75.75 5.49678 75.903 5.41936 76.1326 5.26452C76.3621 5.1871 76.5917 5.10968 76.8977 5.10968H82.7129C83.5546 5.10968 84.3197 5.26452 84.9318 5.49678C85.544 5.72904 86.0796 6.11613 86.5387 6.50323C86.9212 6.96774 87.3038 7.43226 87.4568 8.05162C87.6864 8.67097 87.7629 9.29033 87.7629 9.9871C87.7629 10.2194 87.7629 10.529 87.6864 10.9161C87.6099 11.3032 87.5333 11.7677 87.3803 12.2323C87.2273 12.6968 86.9977 13.1613 86.6917 13.7032C86.3856 14.1677 85.9265 14.6323 85.3909 15.0194C84.8553 15.4065 84.1667 15.7161 83.4015 16.0258C82.6364 16.2581 81.6417 16.4129 80.494 16.4129H78.1985ZM79.1932 9.13549L78.6576 12.8516H81.0296C81.6417 12.8516 82.1008 12.6194 82.4834 12.2323C82.8659 11.7677 83.019 11.3032 83.019 10.6839C83.019 10.529 83.019 10.3742 82.9424 10.2194C82.8659 10.0645 82.8659 9.90968 82.7129 9.75484C82.6364 9.6 82.4833 9.52258 82.2538 9.36775C82.1008 9.29033 81.8712 9.21291 81.5652 9.21291L79.1932 9.13549Z" fill="white"/>
<path d="M93.5781 22.4516C93.0424 22.4516 92.5068 22.4516 91.9712 22.3742C91.4356 22.2968 90.8235 22.2194 90.2879 22.0645C89.7523 21.9097 89.2167 21.7549 88.7576 21.5226C88.2985 21.2903 87.8394 21.0581 87.4568 20.7484C87.3038 20.671 87.2273 20.5161 87.2273 20.4387C87.2273 20.3613 87.3038 20.1291 87.3803 19.8968L88.4515 17.5742C88.6046 17.2645 88.7576 17.1097 88.8341 17.1097C88.9871 17.1097 89.1402 17.1097 89.3697 17.1871C89.5993 17.2645 89.8288 17.4194 90.2114 17.4968C90.5174 17.6516 90.9 17.7291 91.2826 17.8839C91.6652 18.0387 92.1243 18.1162 92.5068 18.1936C92.9659 18.271 93.3485 18.3484 93.8076 18.3484C94.2667 18.3484 94.5727 18.271 94.8788 18.1936C95.1084 18.1162 95.3379 17.9613 95.4144 17.8065C95.5674 17.6516 95.644 17.4968 95.644 17.342C95.644 17.1871 95.7205 17.1097 95.7205 17.0323C95.7205 16.8 95.644 16.6452 95.4144 16.4129C95.1849 16.1807 94.8023 15.9484 94.1137 15.6387C93.425 15.2516 92.7364 14.942 92.1243 14.5549C91.5121 14.1678 90.9765 13.7807 90.594 13.3162C90.1349 12.8516 89.8288 12.3871 89.5993 11.8452C89.3697 11.3032 89.2167 10.7613 89.2167 10.142C89.2167 9.36776 89.3697 8.67099 89.5993 8.05163C89.8288 7.43228 90.2879 6.81292 90.8235 6.34841C91.3591 5.88389 92.0478 5.4968 92.8129 5.26454C93.5781 5.03228 94.4962 4.87744 95.5674 4.87744C96.0265 4.87744 96.4856 4.87744 97.0212 4.95486C97.4803 5.03228 97.9394 5.1097 98.3985 5.18712C98.8576 5.26454 99.2402 5.41938 99.6993 5.4968C100.082 5.65163 100.464 5.80647 100.77 5.96131C101 6.11615 101.153 6.19357 101.23 6.34841C101.306 6.50325 101.23 6.73551 101.077 7.1226L100.464 9.13551C100.388 9.44518 100.235 9.67744 100.082 9.67744C99.9288 9.75486 99.6993 9.67744 99.4697 9.60002C98.8576 9.36776 98.169 9.21292 97.4803 9.13551C96.7917 8.98067 96.1796 8.90325 95.5674 8.90325C94.9553 8.90325 94.5728 8.98067 94.4197 9.21292C94.1902 9.44518 94.1137 9.60002 94.1137 9.9097C94.1137 9.98712 94.1137 10.0645 94.1902 10.2194C94.2667 10.2968 94.3432 10.3742 94.4197 10.5291C94.4962 10.6065 94.6493 10.7613 94.8788 10.8387C95.1084 10.9162 95.3379 11.071 95.644 11.2258C96.4856 11.5355 97.1743 11.9226 97.8629 12.3097C98.475 12.6968 99.0871 13.0839 99.5462 13.5484C100.005 14.0129 100.311 14.4774 100.617 15.0968C100.847 15.6387 101 16.2581 101 16.9549C101 17.8839 100.847 18.7355 100.464 19.4323C100.158 20.1291 99.6227 20.671 99.0106 21.1355C98.3985 21.6 97.6334 21.9097 96.7917 22.142C95.644 22.3742 94.6493 22.4516 93.5781 22.4516Z" fill="white"/>
<path d="M21.3478 18.9677C22.8781 22.1419 24.4849 23.6129 26.3213 23.6129C28.1576 23.6129 29.7644 22.2193 31.2947 19.2C30.3001 17.1096 29.4584 14.6322 28.6932 12.1548C27.9281 9.90965 27.2394 7.66449 26.3213 5.729C25.4796 7.66449 24.6379 9.90965 23.9493 12.1548C23.1076 14.4774 22.266 16.9548 21.3478 18.9677Z" fill="#006F9E"/>
<path d="M10.4061 0.387085C8.4932 0.387085 6.88638 1.85805 5.35608 5.03225C6.27426 7.04515 7.11593 9.52257 7.88108 11.8451C8.64623 14.0903 9.33487 16.3355 10.253 18.271C11.0947 16.3355 11.9364 14.0903 12.625 11.8451C13.4667 9.44515 14.3084 6.89031 15.303 4.79999C13.8493 1.78063 12.2424 0.387085 10.4061 0.387085Z" fill="#3AAA35"/>
<path d="M13.3137 12.0774C12.472 14.4774 11.6303 17.0322 10.6356 19.1226C12.0894 22.1419 13.6962 23.5355 15.5326 23.6129C17.4455 23.6129 19.0523 22.1419 20.5826 18.9677C19.6644 16.9548 18.8227 14.4774 18.0576 12.1548C17.2924 9.90965 16.6038 7.66449 15.6856 5.729C14.844 7.58707 14.0788 9.90965 13.3137 12.0774Z" fill="#9C1006"/>
<path d="M31.6772 0.464539C29.8409 0.464539 28.234 1.85809 26.7037 4.87744C27.6984 6.96776 28.5401 9.44518 29.3052 11.9226C30.0704 14.1678 30.759 16.4129 31.6772 18.3484C32.5189 16.4129 33.3606 14.1678 34.0492 11.9226C34.8143 9.60002 35.656 7.1226 36.6507 5.1097C35.1969 1.93551 33.5901 0.464539 31.6772 0.464539Z" fill="#009FE3"/>
<path d="M21.0417 0.464539C19.2054 0.464539 17.5985 1.85809 16.0682 4.87744C17.0629 6.96776 17.9046 9.44518 18.6698 11.9226C19.3584 14.0129 20.1235 16.2581 20.8887 18.1162C21.7304 16.2581 22.4955 14.0903 23.1841 11.9226C24.0258 9.5226 24.8675 6.96776 25.8622 4.87744C24.4849 1.85809 22.8781 0.464539 21.0417 0.464539Z" fill="#E30613"/>
<path d="M2.67803 12.0774C1.83636 14.4774 0.994697 17.0322 0 19.0451C1.45379 22.0645 3.06061 23.458 4.89697 23.5355C6.73333 23.5355 8.34015 22.1419 9.87045 19.1226C8.87576 17.0322 8.03409 14.5548 7.26894 12.0774C6.5803 9.98708 5.81515 7.74191 5.05 5.88385C4.13182 7.74191 3.36667 9.90966 2.67803 12.0774Z" fill="#297825"/>
</g>
<defs>
<clipPath id="clip0_915_2908">
<rect width="101" height="24" fill="white"/>
</clipPath>
</defs>
</svg>
