<svg width="66" height="55" viewBox="0 0 66 55" fill="none" xmlns="http://www.w3.org/2000/svg">
<g clip-path="url(#clip0_915_3075)">
<mask id="mask0_915_3075" style="mask-type:luminance" maskUnits="userSpaceOnUse" x="0" y="0" width="66" height="55">
<path d="M66 0H0V55H66V0Z" fill="white"/>
</mask>
<g mask="url(#mask0_915_3075)">
<path d="M1.64109 36.0575C1.34946 36.0617 1.06028 36.0034 0.792946 35.8863C0.555135 35.7775 0.353192 35.6029 0.210787 35.3829C0.0643226 35.1443 -0.00897585 34.8677 4.13071e-06 34.5877V34.4366H0.717667V34.5927C0.708131 34.7084 0.725877 34.8247 0.76947 34.9322C0.81306 35.0399 0.881278 35.1356 0.968598 35.2118C1.16183 35.3574 1.39977 35.4304 1.64109 35.4182C1.86898 35.4345 2.09558 35.3724 2.28348 35.242C2.3528 35.1892 2.40854 35.1205 2.44608 35.0417C2.48361 34.963 2.50185 34.8763 2.49928 34.789C2.50532 34.6808 2.47335 34.5739 2.40895 34.487C2.32424 34.4013 2.22129 34.3358 2.10783 34.2957C1.98237 34.2503 1.82176 34.205 1.64109 34.1597L1.46043 34.1245C1.21261 34.07 0.971829 33.9872 0.742761 33.8779C0.55602 33.7943 0.394901 33.6622 0.276028 33.4953C0.16162 33.3117 0.105608 33.0975 0.115433 32.8811C0.109176 32.6514 0.17214 32.4251 0.296103 32.2317C0.41907 32.0475 0.593702 31.9039 0.797965 31.819C1.04393 31.7153 1.30915 31.6656 1.57585 31.673C1.84763 31.669 2.1174 31.7204 2.3688 31.8241C2.59125 31.9184 2.78138 32.0758 2.91583 32.2771C3.05774 32.5006 3.12782 32.7624 3.11658 33.0271V33.2234H2.40895V33.0271C2.41562 32.8805 2.37896 32.7351 2.30356 32.6093C2.23432 32.5055 2.13422 32.4262 2.01749 32.3828C1.87772 32.3318 1.72955 32.3078 1.58087 32.3123C1.37619 32.3021 1.17371 32.3586 1.00373 32.4734C0.909888 32.5567 0.84837 32.6705 0.830005 32.7948C0.811648 32.9192 0.837618 33.046 0.903358 33.153C0.97341 33.2373 1.06302 33.3029 1.16433 33.3443C1.3022 33.401 1.44501 33.4447 1.59091 33.4751L1.77158 33.5154C2.03121 33.5718 2.28494 33.6527 2.52939 33.7571C2.72506 33.8443 2.89712 33.9772 3.03126 34.1447C3.1597 34.3283 3.22329 34.5498 3.21193 34.7739C3.21558 35.0118 3.14735 35.2451 3.0162 35.4434C2.88153 35.6412 2.69355 35.7966 2.47419 35.8914C2.21211 36.0077 1.92761 36.0645 1.64109 36.0575Z" fill="#F2F7FB"/>
<path d="M3.86938 35.9971V31.7587H4.55694V35.9971H3.86938Z" fill="#F2F7FB"/>
<path d="M6.84035 36.0576C6.56334 36.0605 6.28968 35.9966 6.04238 35.8713C5.81578 35.7576 5.62479 35.5834 5.49033 35.368C5.35247 35.1188 5.28318 34.8374 5.28959 34.5525V34.4367C5.28373 34.1503 5.35295 33.8673 5.49033 33.6162C5.62479 33.4008 5.81578 33.2266 6.04238 33.1128C6.29012 32.9893 6.56375 32.9272 6.84035 32.9316C7.11536 32.927 7.3874 32.9892 7.63329 33.1128C7.85837 33.2269 8.04762 33.4011 8.18032 33.6162C8.31999 33.8664 8.38937 34.15 8.38108 34.4367V34.5324C8.38998 34.8175 8.32053 35.0996 8.18032 35.3478C8.04762 35.5629 7.85837 35.7371 7.63329 35.8512C7.38954 35.9834 7.11742 36.0542 6.84035 36.0576ZM6.84035 35.4435C6.95472 35.448 7.06875 35.4283 7.17509 35.3859C7.28142 35.3434 7.37768 35.279 7.45764 35.1968C7.54193 35.1051 7.60674 34.997 7.64816 34.8793C7.68954 34.7616 7.70673 34.6367 7.69851 34.5122V34.4518C7.70604 34.3281 7.68854 34.2041 7.64715 34.0874C7.60575 33.9706 7.5413 33.8634 7.45764 33.7722C7.29083 33.614 7.06995 33.5258 6.84035 33.5258C6.61075 33.5258 6.38986 33.614 6.22305 33.7722C6.1394 33.8634 6.07494 33.9706 6.03354 34.0874C5.99215 34.2041 5.97467 34.3281 5.98216 34.4518V34.5122C5.97399 34.6367 5.99113 34.7616 6.03254 34.8793C6.07395 34.997 6.13876 35.1051 6.22305 35.1968C6.30283 35.2792 6.39905 35.3438 6.50543 35.3863C6.61181 35.4288 6.72594 35.4483 6.84035 35.4435Z" fill="#F2F7FB"/>
<path d="M9.67086 35.9971L8.70227 32.9769H9.43495L10.1677 35.4435H10.2731L11.0058 32.9769H11.7385L10.7649 35.9971H9.67086Z" fill="#F2F7FB"/>
<path d="M13.5553 36.0576C13.2823 36.0625 13.0126 35.9967 12.7724 35.8663C12.5592 35.7384 12.3855 35.5537 12.2705 35.3328C12.1401 35.083 12.0744 34.8042 12.0798 34.5223V34.4468C12.0741 34.1654 12.138 33.887 12.2655 33.6363C12.3798 33.4149 12.5537 33.2301 12.7674 33.1027C13.0058 32.9724 13.2739 32.9065 13.5453 32.9115C13.8088 32.9064 14.0688 32.9725 14.2981 33.1027C14.513 33.2286 14.6873 33.4138 14.7999 33.6363C14.9253 33.884 14.9874 34.159 14.9806 34.4367V34.6834H12.7523C12.7526 34.7885 12.7746 34.8925 12.8169 34.9886C12.8592 35.0848 12.921 35.1711 12.9983 35.2422C13.1565 35.3842 13.3631 35.4599 13.5754 35.4535C13.755 35.4694 13.934 35.4173 14.0772 35.3076C14.1818 35.2137 14.2656 35.0987 14.3232 34.9703L14.8953 35.2673C14.8256 35.3914 14.7431 35.5078 14.6494 35.6146C14.5312 35.7459 14.3878 35.8521 14.2278 35.9268C14.0167 36.0216 13.7865 36.0664 13.5553 36.0576ZM12.7574 34.1599H14.263C14.2592 34.0705 14.2372 33.9828 14.1984 33.9023C14.1596 33.8218 14.1046 33.7501 14.0371 33.6917C13.897 33.5733 13.7184 33.5106 13.5353 33.5155C13.3523 33.512 13.1742 33.5745 13.0334 33.6917C12.8887 33.8098 12.7909 33.9758 12.7574 34.1599Z" fill="#F2F7FB"/>
<path d="M15.6882 35.9971V32.9768H16.3657V33.3946H16.461C16.527 33.2642 16.6256 33.1532 16.7471 33.0724C16.932 32.9584 17.148 32.9055 17.3644 32.9214C17.5769 32.92 17.7861 32.9737 17.9717 33.0775C18.1449 33.1824 18.287 33.3318 18.3832 33.5104C18.4836 33.7154 18.5334 33.9415 18.5288 34.1698V35.9971H17.8412V34.2453C17.8487 34.1484 17.8369 34.0509 17.8068 33.9585C17.7767 33.8661 17.7287 33.7806 17.6655 33.7067C17.5985 33.644 17.5194 33.5956 17.4332 33.5644C17.3469 33.5334 17.2552 33.5201 17.1637 33.5255C17.0551 33.5197 16.9466 33.5389 16.8466 33.5817C16.7465 33.6245 16.6576 33.6896 16.5865 33.7721C16.4277 33.9746 16.3522 34.2304 16.3758 34.487V35.9971H15.6882Z" fill="#F2F7FB"/>
<path d="M20.6014 36.0575C20.2681 36.0714 19.9386 35.9817 19.6579 35.8008C19.5324 35.7191 19.4267 35.6101 19.3486 35.4821C19.2704 35.3541 19.2218 35.2102 19.2063 35.0608L19.8437 34.8997C19.8614 35.0308 19.9113 35.1554 19.9892 35.2622C20.0614 35.3473 20.1549 35.4116 20.2601 35.4484C20.3702 35.4852 20.4855 35.5039 20.6014 35.5038C20.7512 35.5145 20.9005 35.4775 21.0281 35.3981C21.071 35.3704 21.1063 35.3325 21.1308 35.2876C21.1553 35.2428 21.1683 35.1925 21.1686 35.1413C21.1714 35.0923 21.1601 35.0435 21.1361 35.0006C21.1121 34.9578 21.0763 34.9228 21.033 34.8997C20.9033 34.8352 20.7646 34.7911 20.6215 34.7689L20.4358 34.7387C20.2449 34.7029 20.0582 34.6472 19.8788 34.5725C19.7209 34.5111 19.581 34.4107 19.4723 34.2806C19.3684 34.1493 19.315 33.985 19.3217 33.8174C19.315 33.6883 19.3403 33.5595 19.3956 33.4427C19.4507 33.3258 19.534 33.2245 19.6379 33.148C19.8855 32.9827 20.1788 32.8999 20.476 32.9114C20.7655 32.8998 21.0514 32.979 21.294 33.1379C21.5036 33.2761 21.654 33.488 21.7156 33.7319L21.0782 33.9232C21.0704 33.852 21.0476 33.7833 21.0112 33.7216C20.9749 33.66 20.9259 33.6068 20.8674 33.5657C20.75 33.5032 20.619 33.4705 20.486 33.4705C20.353 33.4705 20.2221 33.5032 20.1046 33.5657C20.0635 33.5908 20.0296 33.6263 20.0067 33.6688C19.9837 33.7113 19.9725 33.7591 19.9741 33.8073C19.9726 33.8549 19.9846 33.9018 20.0085 33.9428C20.0325 33.9838 20.0675 34.0171 20.1097 34.039C20.2182 34.0999 20.3375 34.1393 20.4609 34.1547L20.6466 34.19C20.8493 34.2269 21.0489 34.279 21.2439 34.346C21.4073 34.4 21.5543 34.4954 21.6704 34.6229C21.7817 34.766 21.837 34.9451 21.826 35.1263C21.8267 35.259 21.7956 35.39 21.7352 35.5083C21.675 35.6265 21.5874 35.7285 21.4797 35.8058C21.221 35.9811 20.9134 36.0692 20.6014 36.0575Z" fill="#F2F7FB"/>
<path d="M22.5287 35.9971V31.7587H23.2212V34.1245H23.3216L24.3906 32.9768H25.2989L23.8637 34.4366L25.3692 35.9468H24.4508L23.3216 34.7336H23.2212V35.9971H22.5287Z" fill="#F2F7FB"/>
<path d="M26.7392 36.0576C26.5463 36.0593 26.3551 36.0217 26.1772 35.9469C26.0165 35.8783 25.8776 35.7669 25.7757 35.6247C25.6771 35.4757 25.6263 35.3001 25.6301 35.1213C25.6232 34.9421 25.6743 34.7655 25.7757 34.6179C25.878 34.4775 26.0195 34.3707 26.1822 34.3108C26.3691 34.2373 26.5686 34.2014 26.7694 34.2051H27.6276V33.9836C27.6314 33.9132 27.6204 33.8427 27.5953 33.7768C27.5702 33.7109 27.5316 33.651 27.482 33.601C27.4214 33.5474 27.3506 33.5069 27.2738 33.4817C27.1969 33.4567 27.1158 33.4476 27.0353 33.4551C26.8709 33.4429 26.7079 33.4933 26.5787 33.596C26.4765 33.6935 26.4065 33.82 26.3779 33.9585L25.7406 33.747C25.7903 33.5913 25.8686 33.4461 25.9714 33.3192C26.0878 33.1849 26.2339 33.0798 26.398 33.0121C26.6027 32.9259 26.8235 32.8847 27.0454 32.8913C27.3751 32.8737 27.6999 32.9776 27.9588 33.1833C28.0741 33.2901 28.1642 33.4216 28.2223 33.5679C28.2805 33.7143 28.3054 33.8718 28.295 34.0289V35.1968C28.295 35.3176 28.3503 35.378 28.4606 35.378H28.7116V35.9972H28.2097C28.0817 36.0037 27.9553 35.9644 27.8534 35.8864C27.8084 35.8526 27.7721 35.8085 27.7477 35.7577C27.7232 35.7068 27.7113 35.6509 27.7129 35.5945H27.6125C27.5791 35.668 27.537 35.7373 27.487 35.8009C27.4152 35.8912 27.322 35.9621 27.2161 36.0072C27.0623 36.0572 26.8999 36.0743 26.7392 36.0576ZM26.8547 35.4938C27.0585 35.5017 27.2576 35.4315 27.4118 35.2975C27.4814 35.2338 27.5366 35.1559 27.5738 35.0692C27.611 34.9823 27.6293 34.8886 27.6276 34.7941V34.7337H26.8095C26.6837 34.727 26.559 34.7605 26.4532 34.8293C26.4073 34.8599 26.3702 34.9021 26.3455 34.9515C26.3209 35.0009 26.3096 35.056 26.3127 35.1112C26.3121 35.168 26.325 35.2241 26.3503 35.2748C26.3756 35.3256 26.4126 35.3696 26.4582 35.4032C26.5765 35.4771 26.7161 35.5089 26.8547 35.4938ZM26.6439 32.6447L27.0956 31.7737H27.8785L27.2562 32.6447H26.6439Z" fill="#F2F7FB"/>
<path d="M1.57587 42.2491C1.30283 42.2541 1.03316 42.1882 0.792958 42.0579C0.571438 41.9352 0.387503 41.7541 0.260987 41.5344C0.132206 41.2841 0.0683449 41.0054 0.0752976 40.7239V40.6484C0.0670206 40.3668 0.130957 40.0877 0.260987 39.8379C0.373913 39.6156 0.548096 39.4304 0.762849 39.3044C0.999661 39.1746 1.26594 39.1087 1.53572 39.1131C1.80087 39.1073 2.06266 39.1734 2.29353 39.3044C2.50993 39.4283 2.68465 39.614 2.7954 39.8379C2.92081 40.0856 2.98288 40.3607 2.97606 40.6383V40.885H0.772889C0.770871 40.9905 0.79183 41.0951 0.834308 41.1916C0.876778 41.2881 0.939747 41.3742 1.0188 41.4438C1.17549 41.5851 1.38027 41.6608 1.59092 41.6551C1.77027 41.6687 1.94844 41.6168 2.09279 41.5092C2.19631 41.4143 2.27992 41.2996 2.3387 41.1719L2.9058 41.4689C2.83789 41.5929 2.75715 41.7093 2.66491 41.8162C2.54669 41.9476 2.40332 42.0537 2.24335 42.1284C2.03261 42.2181 1.80455 42.2593 1.57587 42.2491ZM0.777909 40.3514H2.28349C2.27952 40.2626 2.25796 40.1754 2.22004 40.0951C2.18213 40.0147 2.12863 39.9427 2.06268 39.8832C1.9221 39.7657 1.74383 39.7031 1.56081 39.7071C1.36905 39.6952 1.18018 39.7584 1.03386 39.8832C0.893048 40.0016 0.801692 40.1687 0.777909 40.3514Z" fill="#F2F7FB"/>
<path d="M3.70374 42.1637V37.9503H4.41638V42.1637H3.70374Z" fill="#F2F7FB"/>
<path d="M6.62958 42.2491C6.35655 42.2541 6.08687 42.1882 5.84667 42.0579C5.62557 41.9363 5.44298 41.755 5.31972 41.5344C5.18687 41.2855 5.12113 41.0061 5.12901 40.7239V40.6484C5.12073 40.3668 5.18467 40.0877 5.3147 39.8379C5.42763 39.6156 5.60181 39.4304 5.81656 39.3044C6.05337 39.1746 6.31966 39.1087 6.58943 39.1131C6.85459 39.1073 7.11637 39.1734 7.34725 39.3044C7.56218 39.4302 7.73639 39.6154 7.84913 39.8379C7.97046 40.0869 8.03071 40.3613 8.0248 40.6383V40.885H5.8266C5.82591 40.9903 5.84746 41.0945 5.88984 41.1908C5.93224 41.2871 5.99449 41.3733 6.07251 41.4438C6.23074 41.5859 6.43737 41.6616 6.64966 41.6551C6.82905 41.6691 7.00738 41.6172 7.15152 41.5092C7.25504 41.4143 7.33865 41.2996 7.39743 41.1719L7.96954 41.4689C7.89809 41.5918 7.81575 41.7081 7.72365 41.8162C7.60542 41.9476 7.46205 42.0537 7.30207 42.1284C7.0898 42.2187 6.85995 42.2601 6.62958 42.2491ZM5.83162 40.3514H7.33721C7.33324 40.2626 7.31167 40.1754 7.27375 40.0951C7.23584 40.0147 7.18234 39.9427 7.11639 39.8832C6.9758 39.7657 6.79753 39.7031 6.61452 39.7071C6.4313 39.7017 6.25254 39.7644 6.11266 39.8832C5.96436 39.999 5.8642 40.1658 5.83162 40.3514Z" fill="#F2F7FB"/>
<path d="M8.76245 42.1637V37.9503H9.43496V40.3162H9.53534L10.6043 39.1887H11.5127L10.0774 40.6284L11.583 42.1385H10.6796L9.55038 40.9254H9.43496V42.1385L8.76245 42.1637Z" fill="#F2F7FB"/>
<path d="M13.2391 42.1635C13.1546 42.1677 13.0701 42.1548 12.9908 42.1254C12.9114 42.0959 12.8388 42.0507 12.7774 41.9924C12.7196 41.9295 12.6747 41.8558 12.6455 41.7754C12.6162 41.6951 12.6031 41.6097 12.6068 41.5242V39.7624H11.8339V39.1886H12.6068V38.2321H13.2993V39.1886H14.1525V39.7624H13.2993V41.4085C13.2993 41.5293 13.3545 41.5897 13.4649 41.5897H14.0621V42.1635H13.2391Z" fill="#F2F7FB"/>
<path d="M14.8551 42.1636V39.1887H15.5326V39.5209H15.633C15.6717 39.4066 15.7501 39.3102 15.8538 39.249C15.9693 39.1924 16.0967 39.1647 16.2252 39.1685H16.5865V39.7826H16.2152C16.0344 39.7701 15.8554 39.8257 15.7133 39.9386C15.646 40.0028 15.5944 40.0815 15.5621 40.1687C15.53 40.256 15.5182 40.3495 15.5276 40.442V42.1636H14.8551Z" fill="#F2F7FB"/>
<path d="M17.5451 38.8111C17.4248 38.8097 17.3091 38.7651 17.2189 38.6852C17.1348 38.5972 17.0879 38.48 17.0879 38.3581C17.0879 38.2361 17.1348 38.119 17.2189 38.0309C17.3067 37.9472 17.424 37.9019 17.5451 37.905C17.6051 37.9032 17.6648 37.9134 17.7208 37.935C17.7768 37.9566 17.828 37.9892 17.8713 38.0309C17.949 38.122 17.9918 38.238 17.9918 38.3581C17.9918 38.4781 17.949 38.5941 17.8713 38.6852C17.7827 38.7676 17.6659 38.8126 17.5451 38.8111ZM17.1988 42.1637V39.1886H17.8913V42.1637H17.1988Z" fill="#F2F7FB"/>
<path d="M18.6542 42.1637V41.3331L20.3455 39.8532V39.7626H18.7144V39.1887H21.0882V40.0243L19.3969 41.5042V41.5948H21.1384V42.1687L18.6542 42.1637Z" fill="#F2F7FB"/>
<path d="M22.7947 42.2492C22.6018 42.2505 22.4107 42.2128 22.2326 42.1386C22.0731 42.0679 21.9347 41.9569 21.8311 41.8163C21.7325 41.6674 21.6817 41.4918 21.6856 41.3129C21.6786 41.1338 21.7297 40.9572 21.8311 40.8096C21.9344 40.6703 22.0756 40.5637 22.2376 40.5025C22.4245 40.429 22.6241 40.3931 22.8248 40.3968H23.683V40.2156C23.6868 40.1452 23.6758 40.0747 23.6507 40.0088C23.6256 39.9429 23.587 39.883 23.5375 39.833C23.4772 39.7785 23.4065 39.737 23.3297 39.711C23.2529 39.685 23.1716 39.6752 23.0908 39.682C22.9257 39.6713 22.7626 39.7234 22.6341 39.828C22.5312 39.9249 22.461 40.0516 22.4334 40.1904L21.796 39.979C21.8455 39.8221 21.9257 39.6766 22.0318 39.5511C22.1463 39.4169 22.2908 39.3117 22.4534 39.244C22.6581 39.1579 22.8789 39.1167 23.1008 39.1233C23.4306 39.1057 23.7554 39.2095 24.0142 39.4152C24.1296 39.5222 24.2196 39.6535 24.2777 39.7999C24.3359 39.9462 24.3608 40.1037 24.3504 40.2609V41.4287C24.3504 41.5496 24.4057 41.6099 24.516 41.6099H24.7721V42.1838H24.2701C24.1421 42.1903 24.0158 42.1512 23.9138 42.0731C23.8695 42.039 23.8339 41.9946 23.8103 41.9438C23.7867 41.893 23.7758 41.8371 23.7784 41.7811H23.688C23.6537 41.8542 23.6116 41.9234 23.5626 41.9875C23.4907 42.0778 23.3976 42.1488 23.2915 42.1939C23.1319 42.2484 22.9623 42.2673 22.7947 42.2492ZM22.9101 41.6804C23.1207 41.6936 23.328 41.6231 23.4873 41.4841C23.5568 41.4204 23.6121 41.3426 23.6493 41.2558C23.6865 41.1689 23.7048 41.0752 23.7031 40.9807V40.9203H22.865C22.7391 40.9137 22.6144 40.9472 22.5086 41.0159C22.4627 41.0466 22.4256 41.0887 22.401 41.1382C22.3763 41.1876 22.365 41.2427 22.3681 41.2979C22.3675 41.3546 22.3804 41.4107 22.4057 41.4615C22.431 41.5122 22.468 41.5562 22.5136 41.5899C22.632 41.6637 22.7716 41.6956 22.9101 41.6804Z" fill="#F2F7FB"/>
<path d="M26.6589 42.2492C26.3888 42.2532 26.1218 42.191 25.881 42.068C25.6544 41.9542 25.4634 41.7801 25.3289 41.5646C25.1909 41.3119 25.1217 41.0272 25.1282 40.7391V40.6535C25.1217 40.3654 25.1909 40.0807 25.3289 39.8279C25.4634 39.6125 25.6544 39.4384 25.881 39.3245C26.115 39.2112 26.3706 39.1498 26.6305 39.1446C26.8904 39.1395 27.1482 39.1905 27.3866 39.2944C27.5861 39.387 27.7588 39.529 27.8884 39.7072C28.0134 39.882 28.0959 40.0836 28.1293 40.2961L27.4619 40.432C27.4464 40.3136 27.409 40.1992 27.3514 40.0948C27.2911 39.9899 27.2024 39.9043 27.0955 39.8481C26.9698 39.7841 26.83 39.7529 26.689 39.7575C26.5353 39.7548 26.3834 39.7912 26.2474 39.8632C26.1159 39.9357 26.0093 40.0462 25.9412 40.1803C25.8631 40.3362 25.8252 40.5093 25.8308 40.6837V40.7442C25.8245 40.9185 25.8625 41.0918 25.9412 41.2475C26.0093 41.3816 26.1159 41.4922 26.2474 41.5646C26.3829 41.6384 26.5348 41.6765 26.689 41.6754C26.7898 41.6821 26.891 41.6687 26.9867 41.6358C27.0823 41.603 27.1705 41.5514 27.2461 41.4841C27.3762 41.3459 27.4589 41.1695 27.4819 40.9807L28.1494 41.1418C28.101 41.3469 28.0123 41.5403 27.8884 41.7106C27.7573 41.8872 27.585 42.0289 27.3866 42.1234C27.1567 42.2201 26.9078 42.2631 26.6589 42.2492ZM26.2524 38.8312L25.5397 37.9604H26.2474L26.6137 38.4235H26.7141L27.0804 37.9604H27.7881L27.0755 38.8312H26.2524Z" fill="#F2F7FB"/>
<path d="M28.8119 42.1636V39.1886H29.5095V39.6014H29.6099C29.6756 39.4737 29.7722 39.3646 29.8909 39.2843C30.0758 39.1702 30.2917 39.1174 30.5082 39.1333C30.7208 39.1304 30.9304 39.1842 31.1154 39.2893C31.2898 39.3928 31.4322 39.5426 31.527 39.7222C31.6314 39.9259 31.6831 40.1527 31.6776 40.3816V42.1636H30.9649V40.437C30.9724 40.3401 30.9607 40.2426 30.9306 40.1502C30.9004 40.0577 30.8524 39.9722 30.7893 39.8984C30.7222 39.8357 30.6432 39.7873 30.5568 39.7561C30.4706 39.725 30.3789 39.7118 30.2874 39.7172C30.1788 39.7114 30.0703 39.7306 29.9703 39.7734C29.8703 39.8161 29.7813 39.8813 29.7103 39.9638C29.5563 40.161 29.4812 40.4087 29.4994 40.6585V42.1686L28.8119 42.1636Z" fill="#F2F7FB"/>
<path d="M33.4191 42.2492C33.2262 42.2505 33.0351 42.2128 32.857 42.1385C32.6976 42.0679 32.5592 41.9568 32.4555 41.8163C32.3589 41.6665 32.3083 41.4914 32.31 41.3129C32.3055 41.1341 32.3563 40.9583 32.4555 40.8095C32.5601 40.6714 32.7008 40.5651 32.8621 40.5025C33.0489 40.429 33.2485 40.3931 33.4492 40.3968H34.3074V40.2155C34.3118 40.1455 34.3017 40.0752 34.2775 40.0094C34.2533 39.9434 34.2156 39.8834 34.1669 39.833C34.1055 39.7788 34.0339 39.7376 33.9563 39.7116C33.8787 39.6857 33.7967 39.6756 33.7152 39.682C33.5501 39.6713 33.387 39.7234 33.2585 39.8279C33.1556 39.9248 33.0854 40.0515 33.0578 40.1904L32.4254 39.979C32.473 39.8223 32.5516 39.6768 32.6562 39.5511C32.7707 39.4169 32.9152 39.3117 33.0779 39.244C33.2825 39.1579 33.5033 39.1167 33.7252 39.1232C34.0564 39.1067 34.3824 39.2103 34.6437 39.4152C34.7572 39.5232 34.8457 39.6549 34.903 39.8011C34.9602 39.9472 34.9847 40.1042 34.9749 40.2608V41.4288C34.9749 41.5495 35.0301 41.6099 35.1405 41.6099H35.3965V42.1838H34.8946C34.7666 42.1895 34.6406 42.1503 34.5382 42.0731C34.4939 42.0389 34.4583 41.9946 34.4347 41.9438C34.4111 41.893 34.4002 41.8371 34.4028 41.7811H34.2973C34.2649 41.8552 34.2227 41.9247 34.1719 41.9875C34.1001 42.0778 34.0069 42.1487 33.9009 42.1939C33.7461 42.2468 33.5818 42.2657 33.4191 42.2492ZM33.5345 41.6805C33.7383 41.6883 33.9375 41.6181 34.0916 41.4841C34.1612 41.4204 34.2164 41.3426 34.2537 41.2557C34.2909 41.169 34.3091 41.0751 34.3074 40.9807V40.9203H33.4944C33.3669 40.913 33.2403 40.9464 33.133 41.0159C33.0872 41.0466 33.05 41.0887 33.0254 41.1382C33.0007 41.1876 32.9894 41.2427 32.9925 41.2978C32.9919 41.3546 33.0048 41.4107 33.0301 41.4614C33.0555 41.5122 33.0924 41.5562 33.138 41.5898C33.2535 41.6615 33.3893 41.6934 33.5245 41.6805H33.5345ZM33.3238 38.8312L33.7754 37.9604H34.5583L33.936 38.8312H33.3238Z" fill="#F2F7FB"/>
<path d="M0.21582 49.5584V45.3804H0.903372V45.773H1.00375C1.08281 45.6364 1.19502 45.5221 1.32995 45.4407C1.52806 45.3328 1.75223 45.2822 1.97736 45.2947C2.21698 45.2919 2.45269 45.3558 2.65825 45.4793C2.86382 45.6029 3.03117 45.7812 3.14168 45.9944C3.27274 46.2493 3.33667 46.5334 3.32737 46.82V46.9157C3.336 47.2021 3.27212 47.4862 3.14168 47.7412C3.03028 47.9537 2.86272 48.1314 2.65736 48.2549C2.452 48.3783 2.21675 48.4426 1.97736 48.4409C1.81724 48.4448 1.65766 48.4209 1.50561 48.3704C1.39237 48.3364 1.2879 48.278 1.19947 48.1993C1.12891 48.1351 1.06654 48.0624 1.01378 47.9828H0.903372V49.5584H0.21582ZM1.76657 47.8369C1.886 47.8411 2.00495 47.8199 2.11565 47.7748C2.22636 47.7297 2.32631 47.6616 2.40896 47.5751C2.49322 47.4802 2.55789 47.3695 2.59923 47.2494C2.64058 47.1294 2.65779 47.0022 2.64985 46.8754V46.815C2.65876 46.6884 2.64151 46.5614 2.5992 46.4419C2.55688 46.3224 2.49041 46.2128 2.40394 46.1203C2.32282 46.04 2.22625 45.9773 2.12011 45.9357C2.01398 45.8941 1.90052 45.8747 1.78665 45.8787C1.67213 45.8755 1.55812 45.8953 1.45128 45.9368C1.34444 45.9782 1.24689 46.0407 1.16434 46.1203C1.07788 46.2128 1.0114 46.3224 0.969087 46.4419C0.926771 46.5614 0.909526 46.6884 0.918429 46.815V46.8754C0.910025 47.0026 0.927492 47.1303 0.969763 47.2506C1.01203 47.3708 1.07823 47.4813 1.16434 47.5751C1.32289 47.7385 1.5393 47.8325 1.76657 47.8369Z" fill="#F2F7FB"/>
<path d="M4.05505 48.3553V45.3803H4.73257V45.7226H4.83295C4.87295 45.6076 4.95318 45.511 5.05878 45.4508C5.17389 45.3932 5.30159 45.3655 5.43016 45.3703H5.79151V45.9844H5.42013C5.2393 45.9719 5.06033 46.0275 4.91826 46.1404C4.85193 46.2052 4.80084 46.284 4.76872 46.3711C4.7366 46.4581 4.72425 46.5513 4.73257 46.6438V48.3654L4.05505 48.3553Z" fill="#F2F7FB"/>
<path d="M7.64838 48.4408C7.37534 48.4457 7.10567 48.3798 6.86547 48.2495C6.64301 48.1252 6.46027 47.9402 6.33852 47.7159C6.208 47.4661 6.14241 47.1874 6.14781 46.9055V46.83C6.14213 46.5486 6.20592 46.2702 6.3335 46.0195C6.44779 45.7981 6.62164 45.6133 6.83536 45.4859C7.07399 45.3562 7.34188 45.2904 7.61325 45.2946C7.87676 45.2896 8.13677 45.3557 8.36608 45.4859C8.58096 45.6117 8.75525 45.797 8.86791 46.0195C8.99331 46.2671 9.05539 46.5422 9.04856 46.8199V47.0716H6.8454C6.84564 47.1767 6.86762 47.2807 6.90994 47.3768C6.95227 47.473 7.01403 47.5593 7.09131 47.6303C7.24954 47.7725 7.45616 47.8482 7.66846 47.8418C7.84798 47.8566 8.02664 47.8046 8.1703 47.6958C8.27491 47.6018 8.35871 47.4869 8.41627 47.3585L8.98832 47.6555C8.9204 47.7806 8.83782 47.8972 8.74243 48.0029C8.62424 48.1342 8.48089 48.2403 8.32087 48.315C8.10929 48.4081 7.87921 48.4512 7.64838 48.4408ZM6.85042 46.5682H8.35602C8.35226 46.4788 8.33031 46.3912 8.29148 46.3107C8.25257 46.2301 8.1977 46.1584 8.13017 46.1001C7.99026 45.9812 7.81152 45.9184 7.6283 45.9239C7.43519 45.9133 7.24521 45.9762 7.09633 46.1001C6.96283 46.2228 6.87592 46.3883 6.85042 46.5682Z" fill="#F2F7FB"/>
<path d="M9.78137 48.3553V45.3803H10.4388V45.7931H10.5391C10.6069 45.6653 10.7052 45.5564 10.8252 45.4759C11.01 45.3619 11.226 45.309 11.4425 45.3249C11.6551 45.3228 11.8644 45.3765 12.0498 45.481C12.223 45.5859 12.365 45.7353 12.4613 45.9139C12.5616 46.1189 12.6115 46.345 12.6069 46.5733V48.3553H11.9444V46.6287C11.9532 46.5317 11.9423 46.4338 11.912 46.3412C11.8819 46.2486 11.8331 46.1631 11.7687 46.0901C11.702 46.0269 11.623 45.9782 11.5366 45.947C11.4503 45.9159 11.3585 45.9029 11.2668 45.9089C11.1583 45.9035 11.05 45.9229 10.95 45.9656C10.85 46.0083 10.761 46.0733 10.6897 46.1556C10.5358 46.3527 10.4606 46.6004 10.4789 46.8502V48.3604L9.78137 48.3553Z" fill="#F2F7FB"/>
<path d="M14.8752 48.4409C14.5998 48.4438 14.3278 48.3799 14.0823 48.2547C13.8547 48.1423 13.6634 47.9678 13.5302 47.7513C13.39 47.5031 13.3206 47.2209 13.3295 46.9359V46.8401C13.3212 46.5535 13.3906 46.2699 13.5302 46.0196C13.6634 45.8032 13.8547 45.6287 14.0823 45.5162C14.3297 45.3971 14.6007 45.3352 14.8752 45.3352C15.1497 45.3352 15.4207 45.3971 15.6681 45.5162C15.8957 45.6287 16.087 45.8032 16.2202 46.0196C16.3576 46.2708 16.4268 46.5538 16.421 46.8401V46.9359C16.4274 47.2207 16.3581 47.5021 16.2202 47.7513C16.087 47.9678 15.8957 48.1423 15.6681 48.2547C15.4228 48.3804 15.1507 48.4444 14.8752 48.4409ZM14.8752 47.8268C14.9902 47.8304 15.1048 47.8105 15.2118 47.768C15.3189 47.7256 15.4161 47.6617 15.4975 47.5801C15.5809 47.4879 15.6448 47.3798 15.6854 47.2621C15.7259 47.1444 15.7423 47.0197 15.7334 46.8955V46.8352C15.7419 46.7117 15.7253 46.588 15.6848 46.4712C15.6443 46.3544 15.5806 46.247 15.4975 46.1555C15.3299 45.997 15.1081 45.9087 14.8777 45.9087C14.6473 45.9087 14.4256 45.997 14.2579 46.1555C14.1742 46.2468 14.1098 46.3539 14.0684 46.4707C14.027 46.5875 14.0095 46.7114 14.017 46.8352V46.8955C14.0088 47.0201 14.026 47.145 14.0674 47.2627C14.1088 47.3804 14.1736 47.4884 14.2579 47.5801C14.3386 47.6613 14.435 47.725 14.5411 47.7675C14.6473 47.8099 14.761 47.8301 14.8752 47.8268Z" fill="#F2F7FB"/>
<path d="M18.3782 48.4408C18.0432 48.4554 17.7119 48.3657 17.4297 48.1841C17.3042 48.1023 17.1985 47.9935 17.1203 47.8654C17.0422 47.7374 16.9935 47.5934 16.978 47.4441L17.6154 47.2831C17.6323 47.4151 17.6844 47.5404 17.766 47.6455C17.8353 47.7316 17.9275 47.7962 18.032 47.8317C18.1436 47.8688 18.2606 47.8875 18.3782 47.8871C18.5263 47.8971 18.6738 47.8601 18.7998 47.7814C18.8434 47.7544 18.8792 47.7166 18.9038 47.6716C18.9284 47.6266 18.941 47.576 18.9403 47.5247C18.9431 47.4756 18.9319 47.4268 18.9079 47.3839C18.8839 47.3411 18.8481 47.3061 18.8048 47.2831C18.6751 47.2185 18.5363 47.1744 18.3933 47.1521L18.2076 47.122C18.0168 47.0855 17.8302 47.0298 17.6505 46.9558C17.4927 46.8945 17.3528 46.794 17.244 46.6639C17.1402 46.5326 17.0868 46.3682 17.0935 46.2007C17.0864 46.071 17.1121 45.9416 17.1683 45.8246C17.2245 45.7076 17.3092 45.6066 17.4147 45.5312C17.663 45.3633 17.9587 45.2804 18.2578 45.2947C18.5481 45.2838 18.8349 45.3611 19.0808 45.5161C19.2896 45.6565 19.4382 45.8703 19.4974 46.1152L18.8651 46.3064C18.8447 46.1641 18.7689 46.0356 18.6543 45.9491C18.5352 45.8759 18.3974 45.8392 18.2578 45.8434C18.1284 45.8362 17.9997 45.8659 17.8864 45.9289C17.8452 45.954 17.8114 45.9895 17.7885 46.032C17.7656 46.0744 17.7543 46.1223 17.7559 46.1705C17.7544 46.2181 17.7663 46.265 17.7904 46.306C17.8143 46.3469 17.8494 46.3803 17.8914 46.4021C18 46.4631 18.1193 46.5024 18.2428 46.5179L18.4284 46.5531C18.6326 46.5908 18.8339 46.6429 19.0307 46.7092C19.1924 46.764 19.3375 46.8593 19.4523 46.9861C19.5657 47.1281 19.6213 47.308 19.6078 47.4894C19.6155 47.6267 19.5892 47.7638 19.5315 47.8885C19.4737 48.0131 19.3862 48.1216 19.2766 48.2042C19.0094 48.3761 18.6951 48.4589 18.3782 48.4408Z" fill="#F2F7FB"/>
<path d="M21.7106 48.4409C21.4335 48.4437 21.1599 48.3798 20.9126 48.2545C20.6851 48.1421 20.4938 47.9676 20.3606 47.7512C20.2204 47.503 20.1509 47.2208 20.1598 46.9357V46.84C20.1515 46.5534 20.2209 46.2698 20.3606 46.0196C20.4938 45.8031 20.6851 45.6286 20.9126 45.5162C21.1603 45.3926 21.434 45.3305 21.7106 45.335C21.984 45.3298 22.2546 45.3919 22.4985 45.5162C22.726 45.6286 22.9173 45.8031 23.0505 46.0196C23.1902 46.2698 23.2596 46.5534 23.2513 46.84V46.9357C23.2602 47.2208 23.1908 47.503 23.0505 47.7512C22.9173 47.9676 22.726 48.1421 22.4985 48.2545C22.255 48.3803 21.9845 48.4442 21.7106 48.4409ZM21.7106 47.8267C21.8248 47.83 21.9385 47.8097 22.0447 47.7673C22.1508 47.7249 22.2472 47.6612 22.3278 47.58C22.4122 47.4882 22.477 47.3802 22.5184 47.2626C22.5598 47.1448 22.577 47.0199 22.5687 46.8954V46.835C22.5763 46.7113 22.5588 46.5874 22.5174 46.4706C22.476 46.3538 22.4116 46.2467 22.3278 46.1554C22.1602 45.9969 21.9385 45.9086 21.7081 45.9086C21.4777 45.9086 21.256 45.9969 21.0883 46.1554C21.0055 46.2473 20.9417 46.3546 20.9004 46.4712C20.859 46.5878 20.841 46.7114 20.8474 46.835V46.8954C20.8406 47.0198 20.8584 47.1443 20.8998 47.2618C20.9411 47.3793 21.0052 47.4874 21.0883 47.58C21.1697 47.6615 21.2669 47.7255 21.374 47.7679C21.481 47.8103 21.5955 47.8304 21.7106 47.8267Z" fill="#F2F7FB"/>
<path d="M24.5412 48.3553L23.5675 45.3804H24.3003L25.0329 47.847H25.1383L25.876 45.3804H26.6088L25.6351 48.3553H24.5412Z" fill="#F2F7FB"/>
<path d="M28.0039 48.441C27.8104 48.443 27.6188 48.4035 27.4418 48.3251C27.2813 48.2588 27.1424 48.1489 27.0403 48.0081C26.9437 47.8581 26.8931 47.6831 26.8948 47.5047C26.8903 47.3258 26.9412 47.1499 27.0403 47.0013C27.1448 46.8631 27.2856 46.7568 27.4468 46.6942C27.6338 46.6207 27.8333 46.5847 28.034 46.5884H28.8922V46.4073C28.8967 46.3372 28.8865 46.2669 28.8623 46.2011C28.8381 46.1352 28.8004 46.0751 28.7517 46.0247C28.6905 45.9703 28.6189 45.9289 28.5412 45.9029C28.4636 45.877 28.3816 45.867 28.3 45.8737C28.1363 45.8617 27.9743 45.914 27.8484 46.0197C27.7422 46.1147 27.6699 46.242 27.6426 46.382L27.0002 46.1505C27.0478 45.9938 27.1263 45.8483 27.231 45.7227C27.3455 45.5884 27.49 45.4833 27.6526 45.4156C27.8573 45.3294 28.0781 45.2882 28.3 45.2948C28.6313 45.2774 28.9576 45.3811 29.2184 45.5868C29.332 45.6948 29.4205 45.8265 29.4778 45.9727C29.535 46.1188 29.5595 46.2757 29.5496 46.4324V47.6003C29.5496 47.7211 29.6049 47.7815 29.7203 47.7815H29.9713V48.3553H29.5095C29.3816 48.3611 29.2555 48.3219 29.1532 48.2446C29.1091 48.2103 29.0738 48.1658 29.0502 48.1151C29.0267 48.0643 29.0155 48.0086 29.0177 47.9527H28.9123C28.8799 48.0268 28.8377 48.0962 28.7869 48.159C28.715 48.2494 28.6219 48.3203 28.5158 48.3654C28.3533 48.4302 28.1781 48.456 28.0039 48.441ZM28.1193 47.8721C28.3234 47.8816 28.5231 47.8112 28.6764 47.6758C28.746 47.6121 28.8012 47.5342 28.8384 47.4474C28.8757 47.3607 28.894 47.2669 28.8922 47.1724V47.0718H28.0792C27.9517 47.0644 27.8252 47.0979 27.7179 47.1674C27.6727 47.1987 27.6361 47.241 27.6115 47.2902C27.587 47.3395 27.5752 47.3942 27.5774 47.4493C27.5768 47.506 27.5897 47.5621 27.6149 47.6129C27.6402 47.6636 27.6772 47.7076 27.7229 47.7412C27.8365 47.8286 27.9762 47.8748 28.1193 47.8721ZM27.9086 45.0229L28.3602 44.1521H29.1482L28.5057 45.0229H27.9086Z" fill="#F2F7FB"/>
<path d="M1.44537 54.6225C1.11036 54.637 0.779065 54.5474 0.496842 54.3657C0.371314 54.284 0.265604 54.1751 0.187452 54.047C0.1093 53.919 0.0606855 53.7751 0.045166 53.6257L0.682531 53.4646C0.699504 53.5968 0.751497 53.7219 0.833093 53.8271C0.90237 53.9132 0.994616 53.9778 1.09908 54.0133C1.21077 54.0505 1.32771 54.0691 1.44537 54.0687C1.59346 54.0787 1.74094 54.0417 1.86693 53.963C1.91047 53.936 1.94631 53.8982 1.97093 53.8532C1.99556 53.8082 2.00814 53.7576 2.00745 53.7063C2.01029 53.6572 1.99903 53.6084 1.97501 53.5656C1.95099 53.5227 1.91522 53.4877 1.87195 53.4646C1.74225 53.4002 1.60346 53.356 1.46042 53.3338L1.27473 53.3035C1.08379 53.2678 0.897089 53.2121 0.717662 53.1375C0.559775 53.076 0.419934 52.9757 0.311153 52.8455C0.207285 52.7142 0.15386 52.5499 0.160594 52.3824C0.153497 52.2527 0.179223 52.1233 0.23538 52.0062C0.291538 51.8891 0.376302 51.7882 0.481786 51.7129C0.732558 51.5615 1.0197 51.4815 1.31237 51.4815C1.60504 51.4815 1.89218 51.5615 2.14295 51.7129C2.35253 51.8511 2.50292 52.063 2.56452 52.3069L1.92715 52.4982C1.91938 52.427 1.89656 52.3583 1.86021 52.2967C1.82387 52.235 1.77483 52.1818 1.71637 52.1407C1.59892 52.0782 1.46795 52.0454 1.33495 52.0454C1.20196 52.0454 1.07099 52.0782 0.953535 52.1407C0.912346 52.1657 0.878548 52.2013 0.855617 52.2438C0.832678 52.2863 0.821443 52.3341 0.823054 52.3824C0.821543 52.4299 0.833469 52.4768 0.857451 52.5178C0.881426 52.5587 0.916483 52.5921 0.958554 52.6139C1.06711 52.6749 1.18641 52.7142 1.30986 52.7297L1.49555 52.7649C1.69824 52.8019 1.89787 52.8541 2.09276 52.921C2.25543 52.9768 2.40193 53.0719 2.51935 53.1979C2.63063 53.341 2.68594 53.52 2.67493 53.7012C2.68249 53.839 2.65571 53.9765 2.597 54.1013C2.53829 54.2262 2.44952 54.3343 2.33868 54.4161C2.07071 54.5792 1.7575 54.6516 1.44537 54.6225Z" fill="#F2F7FB"/>
<path d="M4.50676 54.6225C4.29414 54.6254 4.08456 54.5716 3.89951 54.4665C3.72417 54.3643 3.58144 54.2141 3.48799 54.0336C3.38943 53.8299 3.34123 53.6054 3.34746 53.3792V51.5972H4.02999V53.3238C4.02256 53.4207 4.03424 53.5182 4.06437 53.6106C4.09452 53.703 4.14252 53.7886 4.20564 53.8624C4.274 53.9226 4.3535 53.9686 4.43961 53.9981C4.52572 54.0274 4.61675 54.0395 4.70751 54.0336C4.81593 54.0395 4.92431 54.0214 5.02495 53.9805C5.12558 53.9396 5.21597 53.8769 5.28967 53.7969C5.44363 53.5998 5.51879 53.3521 5.50046 53.1023V51.5921H6.18299V54.5672H5.51551V54.1191H5.42015C5.35404 54.2481 5.25541 54.3574 5.13409 54.4362C4.9506 54.5648 4.73046 54.6302 4.50676 54.6225ZM4.34115 51.2448L4.79283 50.3689H5.58075L4.95342 51.2448H4.34115Z" fill="#F2F7FB"/>
<path d="M8.28566 54.6225C7.9509 54.6354 7.62006 54.5459 7.33718 54.3657C7.2142 54.2812 7.1104 54.1716 7.03257 54.0441C6.95474 53.9166 6.90462 53.774 6.8855 53.6258L7.52286 53.4646C7.54436 53.5956 7.59591 53.7196 7.67342 53.8271C7.74269 53.9132 7.83494 53.9778 7.93939 54.0134C8.05113 54.0505 8.16801 54.0692 8.28566 54.0687C8.43393 54.0801 8.58181 54.0431 8.70729 53.963C8.7508 53.936 8.78664 53.8982 8.81128 53.8532C8.83591 53.8083 8.8485 53.7576 8.84781 53.7063C8.85172 53.6577 8.84152 53.609 8.81834 53.566C8.79516 53.5232 8.76009 53.4879 8.71727 53.4646C8.58726 53.401 8.44859 53.3569 8.30576 53.3338L8.12004 53.3036C7.92772 53.267 7.73939 53.2114 7.55799 53.1375C7.40192 53.0754 7.26388 52.975 7.15651 52.8455C7.04919 52.7158 6.99374 52.5508 7.00092 52.3824C6.99383 52.2527 7.01956 52.1233 7.07571 52.0062C7.13187 51.8892 7.21663 51.7883 7.32212 51.7129C7.57384 51.5617 7.8618 51.4818 8.15519 51.4818C8.44866 51.4818 8.73661 51.5617 8.98833 51.7129C9.20736 51.8464 9.36714 52.0589 9.43498 52.3069L8.79762 52.4982C8.78979 52.427 8.767 52.3583 8.73062 52.2967C8.69432 52.235 8.64528 52.1819 8.5868 52.1408C8.46793 52.067 8.33002 52.0303 8.19034 52.035C8.06256 52.0278 7.9354 52.0575 7.82396 52.1207C7.78206 52.1448 7.7476 52.1803 7.72458 52.2229C7.70156 52.2656 7.69081 52.3139 7.6935 52.3623C7.69212 52.4091 7.70348 52.4555 7.7265 52.4963C7.74952 52.5371 7.78321 52.5708 7.82396 52.5938C7.93448 52.6545 8.05535 52.6938 8.18029 52.7096L8.36601 52.7448C8.56854 52.7824 8.76815 52.8346 8.96323 52.9009C9.12378 52.958 9.26837 53.0529 9.38479 53.1777C9.49822 53.3198 9.55378 53.4996 9.54035 53.6811C9.54802 53.8184 9.52185 53.9555 9.46406 54.0802C9.40628 54.2049 9.31871 54.3133 9.20912 54.396C8.93484 54.5719 8.61006 54.6516 8.28566 54.6225Z" fill="#F2F7FB"/>
<path d="M11.282 54.5469C11.1975 54.5511 11.113 54.5381 11.0336 54.5087C10.9543 54.4792 10.8817 54.434 10.8202 54.3757C10.7624 54.3129 10.7177 54.2391 10.6884 54.1587C10.659 54.0784 10.6459 53.993 10.6496 53.9076V52.1457H9.87671V51.5719H10.6496V50.5953H11.3421V51.5517H12.1953V52.1256H11.3421V53.7717C11.3421 53.8925 11.3974 53.9529 11.5078 53.9529H12.105V54.5268L11.282 54.5469Z" fill="#F2F7FB"/>
<path d="M13.8062 54.6223C13.6134 54.6232 13.4223 54.5855 13.2441 54.5116C13.0847 54.4433 12.9474 54.3317 12.8476 54.1894C12.7472 54.0411 12.6947 53.8654 12.6971 53.686C12.692 53.5064 12.7448 53.3298 12.8476 53.1827C12.9491 53.0435 13.0885 52.9369 13.2491 52.8756C13.4379 52.8026 13.639 52.7667 13.8413 52.7699H14.6995V52.5887C14.7034 52.5183 14.6923 52.4478 14.6673 52.3818C14.6422 52.316 14.6036 52.2561 14.5539 52.2061C14.4926 52.1521 14.4209 52.1113 14.3432 52.0862C14.2655 52.0611 14.1835 52.0522 14.1023 52.0601C13.9392 52.0467 13.7773 52.0972 13.6506 52.2011C13.5469 52.2974 13.4765 52.4243 13.4499 52.5635L12.8125 52.3521C12.8622 52.1963 12.9406 52.0512 13.0434 51.9242C13.1519 51.7864 13.2911 51.6761 13.4499 51.6021C13.6562 51.5154 13.8787 51.4741 14.1023 51.4812C14.4321 51.4637 14.7569 51.5675 15.0157 51.7732C15.1293 51.8813 15.2178 52.013 15.275 52.1591C15.3323 52.3052 15.3568 52.4622 15.3469 52.6189V53.7867C15.3469 53.9076 15.4021 53.968 15.5175 53.968H15.7685V54.5418H15.2666C15.1397 54.5509 15.0142 54.5113 14.9153 54.4311C14.8694 54.3981 14.8324 54.3541 14.8078 54.3031C14.7833 54.2521 14.7719 54.1957 14.7748 54.1391H14.6744C14.6411 54.2127 14.5989 54.282 14.549 54.3455C14.4762 54.437 14.3811 54.5081 14.2729 54.5519C14.1241 54.6083 13.965 54.6323 13.8062 54.6223ZM13.9217 54.0535C14.1256 54.063 14.3254 53.9926 14.4787 53.8572C14.5492 53.794 14.6054 53.7164 14.6434 53.6295C14.6816 53.5427 14.7007 53.4487 14.6995 53.3538V53.2934H13.8815C13.754 53.2861 13.6274 53.3196 13.5201 53.389C13.4755 53.4207 13.4397 53.4631 13.416 53.5124C13.3923 53.5617 13.3814 53.6163 13.3847 53.671C13.3831 53.7274 13.395 53.7833 13.4194 53.8342C13.4439 53.885 13.4801 53.9291 13.5252 53.9629C13.6425 54.0396 13.782 54.075 13.9217 54.0636V54.0535Z" fill="#F2F7FB"/>
<path d="M16.8375 54.547L15.8689 51.572H16.6016L17.3343 54.0385H17.4347L18.1724 51.572H18.9052L17.9315 54.547H16.8375Z" fill="#F2F7FB"/>
<path d="M20.3054 54.6223C20.1109 54.6236 19.9181 54.5859 19.7383 54.5116C19.5789 54.4433 19.4416 54.3317 19.3418 54.1894C19.2415 54.0411 19.1889 53.8654 19.1913 53.686C19.1861 53.5064 19.2389 53.3298 19.3418 53.1827C19.4432 53.0435 19.5827 52.9369 19.7433 52.8756C19.9321 52.8026 20.1331 52.7667 20.3355 52.7699H21.1937V52.5887C21.1975 52.5183 21.1865 52.4478 21.1614 52.3818C21.1363 52.316 21.0977 52.2561 21.0482 52.2061C20.9868 52.1521 20.9151 52.1113 20.8373 52.0862C20.7597 52.0611 20.6777 52.0522 20.5964 52.0601C20.4334 52.0467 20.2715 52.0972 20.1448 52.2011C20.041 52.2974 19.9707 52.4243 19.944 52.5635L19.3067 52.3521C19.3564 52.1963 19.4347 52.0512 19.5375 51.9242C19.654 51.782 19.8041 51.6712 19.9741 51.6021C20.1789 51.5159 20.3997 51.4747 20.6215 51.4812C20.9513 51.4637 21.2761 51.5675 21.535 51.7732C21.6485 51.8813 21.737 52.013 21.7943 52.1591C21.8515 52.3052 21.8761 52.4622 21.8662 52.6189V53.7867C21.8662 53.9076 21.9264 53.968 22.0368 53.968H22.2877V54.5418H21.7859C21.6594 54.5476 21.535 54.5084 21.4346 54.4311C21.3886 54.3981 21.3516 54.3541 21.3271 54.3031C21.3025 54.2521 21.2911 54.1957 21.2941 54.1391H21.1937C21.1603 54.2127 21.1182 54.282 21.0682 54.3455C20.9954 54.437 20.9004 54.5081 20.7922 54.5519C20.6371 54.6113 20.4709 54.6354 20.3054 54.6223ZM20.4158 54.0535C20.6199 54.065 20.8208 53.9985 20.9779 53.8673C21.0467 53.803 21.1014 53.7251 21.1386 53.6384C21.1758 53.5517 21.1945 53.4582 21.1937 53.3639V53.3035H20.3757C20.2483 53.2978 20.1222 53.3312 20.0143 53.3991C19.9697 53.4307 19.9338 53.4731 19.9101 53.5225C19.8864 53.5718 19.8757 53.6264 19.8788 53.6811C19.8772 53.7374 19.8892 53.7934 19.9136 53.8442C19.9381 53.895 19.9743 53.9392 20.0193 53.973C20.1382 54.0454 20.2773 54.0773 20.4158 54.0636V54.0535Z" fill="#F2F7FB"/>
<path d="M40.1962 28.394L39.4865 29.1059L65.2962 54.994L66.0059 54.2821L40.1962 28.394Z" fill="url(#paint0_linear_915_3075)"/>
<path d="M24.4909 4.3493H16.461L18.7997 6.70012C18.0394 7.44379 17.4361 8.33329 17.0256 9.31573C16.6152 10.2982 16.4062 11.3534 16.4108 12.4186C16.4207 14.3175 17.0917 16.1532 18.3079 17.6085C19.0561 18.5053 19.9922 19.2256 21.0496 19.7181C22.1071 20.2105 23.2597 20.4631 24.4256 20.4577H24.4909C25.533 20.4617 26.5656 20.2583 27.5287 19.8591C28.4918 19.4598 29.3664 18.8728 30.1016 18.132V18.0867L27.8634 15.8617C26.9481 16.7557 25.7231 17.2591 24.4457 17.2662C23.6936 17.2713 22.9509 17.0989 22.2776 16.7628C21.1618 16.2017 20.3122 15.221 19.9138 14.0345H32.3199C32.4196 13.5031 32.4749 12.9642 32.4855 12.4236C32.4726 10.5277 31.8038 8.69507 30.5935 7.23874C29.8491 6.33839 28.9168 5.61295 27.8623 5.11368C26.8078 4.6144 25.6569 4.35347 24.4909 4.3493ZM19.9138 10.8279L20.23 10.0426C21.3207 8.40158 22.7159 7.58105 24.4156 7.58105C25.2477 7.59417 26.0655 7.80094 26.8044 8.1851C27.8166 8.78039 28.585 9.717 28.9725 10.8279H19.9138Z" fill="url(#paint1_linear_915_3075)"/>
<path d="M9.96191 2.20484L12.0547 4.35429H16.3255H16.446L12.1601 0L9.96191 2.20484Z" fill="url(#paint2_linear_915_3075)"/>
<path d="M3.37754 4.64113C2.64468 4.84867 1.9875 5.26482 1.48552 5.83919C0.680026 6.77793 0.233542 7.97338 0.225844 9.21187C0.209634 9.83383 0.316122 10.4528 0.53919 11.0334C0.762258 11.6139 1.0975 12.1445 1.52567 12.5946C2.06178 13.0931 2.69124 13.4798 3.37754 13.7323C3.86065 13.9064 4.3698 13.9966 4.88313 13.9991H9.52036C10.8285 13.9991 11.4826 14.5411 11.4826 15.625L11.3722 16.2995C11.2546 16.5981 11.0453 16.8511 10.7745 17.0223C10.5038 17.1933 10.1858 17.2734 9.86663 17.251H0.220825V21.8318L3.37754 24.9981V20.4676H10.0623C10.7602 20.4491 11.4454 20.2773 12.0698 19.9642C12.8891 19.5981 13.5791 18.9922 14.0493 18.226C14.5194 17.4598 14.7479 16.569 14.7046 15.6703C14.6999 15.0335 14.5949 14.4016 14.3935 13.7977C13.5938 11.8177 11.8941 10.8277 9.29451 10.8277H4.99856L4.4164 10.6969C4.11043 10.6061 3.84435 10.4136 3.66193 10.1511C3.47951 9.88852 3.3916 9.57151 3.41268 9.25213C3.42862 8.79257 3.58644 8.34936 3.86435 7.98361C4.07513 7.70174 4.61213 7.56077 5.48537 7.56077H15.2516L12.0548 4.34916H5.49541C4.77877 4.33811 4.06463 4.43656 3.37754 4.64113Z" fill="url(#paint3_linear_915_3075)"/>
<path d="M60.7958 17.251H51.0897L54.2916 20.4576H60.9764C61.6741 20.4384 62.3592 20.2666 62.9839 19.9542C63.8032 19.5881 64.4932 18.9822 64.9634 18.2161C65.4335 17.4498 65.6619 16.559 65.6187 15.6604C65.6148 15.0232 65.508 14.3907 65.3025 13.7878C64.5028 11.8145 62.8032 10.8279 60.2036 10.8279H55.9126L55.3204 10.7171C55.0154 10.6248 54.7504 10.4319 54.5682 10.1697C54.3861 9.90754 54.2975 9.59137 54.3167 9.27237C54.3326 8.81281 54.4905 8.36953 54.7684 8.00385C54.9792 7.72198 55.5212 7.58099 56.3894 7.58099H65.5936L62.3917 4.36939H56.3693C55.6527 4.35904 54.9387 4.45748 54.2515 4.66136C53.5194 4.86765 52.8636 5.28408 52.3644 5.85942C51.5576 6.79767 51.1093 7.99301 51.0998 9.23211C51.0845 9.85437 51.1919 10.4735 51.4158 11.054C51.6397 11.6345 51.9758 12.165 52.4046 12.6148C52.9386 13.1136 53.5665 13.5004 54.2515 13.7525C54.7345 13.9266 55.2437 14.0168 55.7571 14.0193H60.3993C61.7041 14.0193 62.3616 14.563 62.3616 15.6453L62.2512 16.3198C62.1331 16.606 61.9301 16.8488 61.6697 17.0154C61.4094 17.182 61.1043 17.2642 60.7958 17.251Z" fill="url(#paint4_linear_915_3075)"/>
<path d="M41.5843 20.3922H42.2167C43.4049 20.347 44.568 20.0356 45.6205 19.4807C46.673 18.9258 47.5883 18.1416 48.2993 17.1856C49.3381 15.8835 49.9075 14.2675 49.9153 12.5997V12.0964C49.8837 10.3789 49.2894 8.71956 48.224 7.37461C47.485 6.42349 46.5416 5.65169 45.4643 5.1166C44.3869 4.58149 43.2031 4.29685 42.0009 4.28381H33.8607V21.8117L37.0375 25.0233V20.3922H38.7187C39.8027 20.4275 40.6308 20.3922 41.5843 20.3922ZM37.0676 17.1856V7.50548H41.9256C42.9017 7.52651 43.8505 7.83268 44.6558 8.38642C45.2912 8.82008 45.812 9.40224 46.1731 10.0828C46.5342 10.7633 46.7248 11.5218 46.7285 12.2927V12.4337C46.7108 13.4615 46.3798 14.4593 45.7799 15.2929C44.6691 16.5614 43.453 17.1957 42.1314 17.1957L37.0676 17.1856Z" fill="url(#paint5_linear_915_3075)"/>
</g>
</g>
<defs>
<linearGradient id="paint0_linear_915_3075" x1="3.34233" y1="41.689" x2="63.7717" y2="41.689" gradientUnits="userSpaceOnUse">
<stop stop-color="#00944A"/>
<stop offset="1" stop-color="#374EA2"/>
</linearGradient>
<linearGradient id="paint1_linear_915_3075" x1="3.34232" y1="12.4035" x2="63.7717" y2="12.4035" gradientUnits="userSpaceOnUse">
<stop stop-color="#00944A"/>
<stop offset="1" stop-color="#374EA2"/>
</linearGradient>
<linearGradient id="paint2_linear_915_3075" x1="3.33733" y1="2.17463" x2="63.7716" y2="2.17463" gradientUnits="userSpaceOnUse">
<stop stop-color="#00944A"/>
<stop offset="1" stop-color="#374EA2"/>
</linearGradient>
<linearGradient id="paint3_linear_915_3075" x1="3.34241" y1="14.6736" x2="63.7717" y2="14.6736" gradientUnits="userSpaceOnUse">
<stop stop-color="#00944A"/>
<stop offset="1" stop-color="#374EA2"/>
</linearGradient>
<linearGradient id="paint4_linear_915_3075" x1="3.34251" y1="12.4035" x2="63.7718" y2="12.4035" gradientUnits="userSpaceOnUse">
<stop stop-color="#00944A"/>
<stop offset="1" stop-color="#374EA2"/>
</linearGradient>
<linearGradient id="paint5_linear_915_3075" x1="3.34239" y1="14.6586" x2="63.7718" y2="14.6586" gradientUnits="userSpaceOnUse">
<stop stop-color="#00944A"/>
<stop offset="1" stop-color="#374EA2"/>
</linearGradient>
<clipPath id="clip0_915_3075">
<rect width="66" height="55" fill="white"/>
</clipPath>
</defs>
</svg>
