<svg width="119" height="15" viewBox="0 0 119 15" fill="none" xmlns="http://www.w3.org/2000/svg">
<g clip-path="url(#clip0_915_2991)">
<path d="M23.0097 14.1326L27.0249 5.70107L31.0383 14.1326H33.1862L28.2017 3.3584H25.8517L20.8611 14.1326H23.0097Z" fill="#BFBB0D"/>
<path d="M54.7636 4.16703C53.8379 3.37344 52.5929 3.05343 51.3472 3.05343C49.1434 3.05343 46.9555 4.09025 46.9555 6.31622C46.9555 10.1767 52.6089 8.81798 52.6089 11.1809C52.6089 12.1741 51.499 12.66 50.5223 12.66C49.5801 12.66 48.6882 12.2497 48.1661 11.5329L46.5679 12.9358C47.5433 13.9867 48.9917 14.3989 50.4732 14.3989C52.8116 14.3989 54.8312 13.2705 54.8312 10.953C54.8312 7.10919 49.1765 8.34502 49.1765 6.17986C49.1765 5.19034 50.1519 4.79109 51.1286 4.79109C51.9535 4.79109 52.7612 5.06687 53.2145 5.64609L54.7636 4.16703ZM31.7436 0.440125H22.3053V2.18147H31.7436V0.440125ZM105.28 14.1341H107.236L110.001 5.90033H110.033L112.798 14.1341H114.821L118.293 3.31933H116.136L113.792 11.109H113.759L111.13 3.31933H109.039L106.36 11.109H106.326L104.084 3.31933H101.758L105.28 14.1341ZM100.867 6.03791C100.867 4.06808 99.0129 3.32056 97.2095 3.32056H92.5574V14.1329H96.8557C99.1137 14.1329 101.372 13.3988 101.372 11.0482C101.372 9.65696 100.294 8.5882 98.793 8.43648V8.407C100.024 8.06979 100.867 7.26085 100.867 6.03791ZM94.6801 9.36827H96.72C98.4386 9.36827 99.2488 9.76506 99.2488 10.894C99.2488 12.316 97.7316 12.4824 96.6358 12.4824H94.6801V9.36827ZM98.7433 6.35916C98.7433 7.16871 98.0344 7.71906 96.6193 7.71906H94.6801V4.96854H96.4338C98.0345 4.96854 98.7433 5.42798 98.7433 6.35916ZM82.6896 14.1341H84.8143V5.06129H88.4701V3.31933H79.0325V5.06129H82.6896V14.1341ZM69.2941 14.1341H77.5014V12.3915H71.4168V9.45979H76.8958V7.71906H71.4168V5.06129H77.1986V3.31933H69.2941V14.1341ZM56.674 14.1341H58.7974V5.84013H58.8311L64.7314 14.1341H67.4273V3.31933H65.3033V11.3535L65.2707 11.3848H65.3033L65.2707 11.3535L59.4871 3.31933H56.674V14.1341ZM34.2173 14.1341H36.342V5.84013H36.3751L42.2748 14.1341H44.9713V3.31933H42.8467V11.3535L42.8135 11.3848H42.8467L42.8135 11.3535L37.0324 3.31933H34.2173V14.1341ZM19.6633 6.41984C19.6633 3.99179 17.5074 3.31921 15.2138 3.31921H11.0678V14.134H13.1918V9.5518H14.7433L17.5074 14.134H20.0681L16.9005 9.35279C18.6701 9.12368 19.6633 7.97753 19.6633 6.41984ZM17.4404 6.40387C17.4404 7.81046 16.0406 7.90321 14.8441 7.90321H13.1918V4.96842H15.0296C16.1248 4.96842 17.4404 5.12259 17.4404 6.40387ZM0.418701 3.31927V5.06122H4.07767V14.1328H6.19984V5.06122H9.85758V3.31927H0.418701Z" fill="#054653"/>
</g>
<defs>
<clipPath id="clip0_915_2991">
<rect width="118.712" height="14.839" fill="white"/>
</clipPath>
</defs>
</svg>
