<svg width="140" height="52" viewBox="0 0 140 52" fill="none" xmlns="http://www.w3.org/2000/svg">
<mask id="mask0_790_3098" style="mask-type:alpha" maskUnits="userSpaceOnUse" x="0" y="0" width="140" height="52">
<rect width="140" height="52" fill="#D9D9D9"/>
</mask>
<g mask="url(#mask0_790_3098)">
<mask id="mask1_790_3098" style="mask-type:alpha" maskUnits="userSpaceOnUse" x="0" y="2" width="140" height="48">
<rect y="2" width="140" height="47.8528" fill="#D9D9D9"/>
</mask>
<g mask="url(#mask1_790_3098)">
<mask id="mask2_790_3098" style="mask-type:luminance" maskUnits="userSpaceOnUse" x="17" y="6" width="106" height="40">
<path d="M17 45.2515H122.378V6.59622H17V45.2515Z" fill="white"/>
</mask>
<g mask="url(#mask2_790_3098)">
<path d="M92.6766 45.2516H93.0306V40.0561H92.6766V45.2516Z" fill="#F3721D"/>
<path d="M96.0582 40.4298H98.6195V40.8457H96.5512V42.0256H98.4794V42.4404H96.5512V43.7237H98.6349V44.1396H96.0582V40.4298Z" fill="black"/>
<path d="M99.4716 44.1396H99.913V40.4298H99.4716V44.1396Z" fill="black"/>
<path d="M100.911 41.4539H101.353V44.1396H100.911V41.4539ZM101.353 40.9705H100.911V40.4298H101.353V40.9705Z" fill="black"/>
<path d="M103.986 42.7527C103.642 43.0075 102.646 42.7571 102.646 43.4179C102.646 43.708 102.895 43.8124 103.166 43.8124C103.747 43.8124 103.986 43.4533 103.986 43.2044V42.7527ZM104.703 44.1293C104.625 44.1761 104.517 44.202 104.386 44.202C104.157 44.202 104.013 44.0772 104.013 43.7861C103.768 44.0772 103.441 44.202 103.067 44.202C102.578 44.202 102.178 43.9892 102.178 43.4489C102.178 42.8404 102.63 42.706 103.088 42.6229C103.571 42.5239 103.991 42.565 103.991 42.228C103.991 41.8377 103.669 41.7808 103.394 41.7808C103.02 41.7808 102.745 41.8954 102.723 42.2901H102.282C102.308 41.6253 102.817 41.3915 103.42 41.3915C103.903 41.3915 104.428 41.5005 104.428 42.1292V43.511C104.428 43.7193 104.428 43.8124 104.568 43.8124C104.61 43.8124 104.656 43.8014 104.703 43.7861V44.1293Z" fill="black"/>
<path d="M109.976 43.6768C109.685 44.0618 109.217 44.2275 108.787 44.2275C107.68 44.2275 107.021 43.3288 107.021 42.3579C107.021 41.2772 107.612 40.3418 108.787 40.3418C109.592 40.3418 110.247 40.7053 110.381 41.5731H109.888C109.789 41.0122 109.342 40.7576 108.787 40.7576C107.887 40.7576 107.514 41.5417 107.514 42.3312C107.514 43.1055 107.961 43.8122 108.787 43.8122C109.556 43.8122 110.002 43.2821 109.976 42.6013H108.792V42.1857H110.418V44.1394H110.106L109.976 43.6768Z" fill="black"/>
<path d="M111.342 41.4539H111.758V42.0197H111.769C111.981 41.5831 112.278 41.3761 112.756 41.3915V41.8589C112.044 41.8589 111.784 42.2588 111.784 42.9439V44.1396H111.342V41.4539Z" fill="black"/>
<path d="M114.532 43.8124C114.995 43.8124 115.369 43.4489 115.369 42.7995C115.369 42.15 114.995 41.7808 114.532 41.7808C114.07 41.7808 113.696 42.15 113.696 42.7995C113.696 43.4489 114.07 43.8124 114.532 43.8124ZM114.532 41.3915C115.384 41.3915 115.836 42.0099 115.836 42.7995C115.836 43.5836 115.384 44.202 114.532 44.202C113.68 44.202 113.228 43.5836 113.228 42.7995C113.228 42.0099 113.68 41.3915 114.532 41.3915Z" fill="black"/>
<path d="M118.864 44.1396H118.45V43.7134H118.439C118.252 44.0462 117.955 44.202 117.566 44.202C116.86 44.202 116.641 43.7969 116.641 43.2198V41.4539H117.083V43.272C117.083 43.6048 117.29 43.8124 117.628 43.8124C118.164 43.8124 118.423 43.4533 118.423 42.9706V41.4539H118.864V44.1396Z" fill="black"/>
<path d="M121.079 41.7809C120.481 41.7809 120.258 42.295 120.258 42.7941C120.258 43.3191 120.496 43.8125 121.104 43.8125C121.707 43.8125 121.91 43.2976 121.91 42.7729C121.91 42.2694 121.65 41.7809 121.079 41.7809ZM119.831 41.454H120.273V41.8177H120.284C120.429 41.5207 120.767 41.3916 121.141 41.3916C121.967 41.3916 122.377 42.0454 122.377 42.804C122.377 43.568 121.972 44.2021 121.151 44.2021C120.881 44.2021 120.476 44.0985 120.284 43.7814H120.273V45.1683H119.831V41.454Z" fill="black"/>
<path d="M64.3804 23.3702H59.058L58.5432 26.2967L58.58 26.3337C59.2799 25.6172 60.0903 25.3396 61.1025 25.3396C63.644 25.3396 65.0803 27.3128 65.0803 29.7242C65.0803 32.3743 62.8892 34.4185 60.2928 34.3626C57.7877 34.3626 55.5411 32.9832 55.5043 30.2758H58.1191C58.2493 31.4178 59.0948 32.2101 60.2359 32.2101C61.5999 32.2101 62.4655 31.0123 62.4655 29.7242C62.4655 28.3799 61.6357 27.3128 60.2359 27.3128C59.298 27.3128 58.7825 27.6424 58.2678 28.3432H55.91L57.1802 21.2162H64.3804V23.3702Z" fill="black"/>
<path d="M70.512 32.2102C72.6478 32.2102 72.6478 29.0604 72.6478 27.6069C72.6478 26.2621 72.6478 23.1124 70.512 23.1124C68.4136 23.1124 68.4136 26.2621 68.4136 27.6069C68.4136 29.0604 68.4136 32.2102 70.512 32.2102ZM70.512 20.959C73.0904 20.959 75.2637 22.5784 75.2637 27.6069C75.2637 32.7426 73.0904 34.3627 70.512 34.3627C67.9701 34.3627 65.7985 32.7426 65.7985 27.6069C65.7985 22.5784 67.9701 20.959 70.512 20.959Z" fill="black"/>
<path d="M76.658 20.7828H79.3079V25.8014H79.3631C80.0361 24.7207 81.1922 24.1978 82.1795 24.1978C84.9989 24.1978 85.7076 25.7841 85.7076 28.1729V34.1063H83.059V28.6566C83.059 27.0718 82.5916 26.2868 81.3596 26.2868C79.9233 26.2868 79.3079 27.0891 79.3079 29.0485V34.1063H76.658V20.7828Z" fill="black"/>
<path d="M94.2156 28.247C93.9739 26.9044 93.395 26.1942 92.1074 26.1942C90.4294 26.1942 89.9436 27.4996 89.9067 28.247H94.2156ZM89.9067 29.926C89.9811 31.6056 90.8027 32.3706 92.2758 32.3706C93.3391 32.3706 94.1972 31.7185 94.3666 31.1202H96.6978C95.9505 33.3974 94.3666 34.3662 92.183 34.3662C89.141 34.3662 87.2561 32.2781 87.2561 29.2921C87.2561 26.3997 89.2539 24.1977 92.183 24.1977C95.4668 24.1977 97.0531 26.9593 96.8666 29.926H89.9067Z" fill="black"/>
<path d="M98.4341 24.4597H100.953V26.2502H100.991C101.475 25.0367 102.781 24.1978 104.07 24.1978C104.256 24.1978 104.481 24.2353 104.648 24.291V26.7533C104.406 26.7 104.013 26.6624 103.696 26.6624C101.754 26.6624 101.084 28.0593 101.084 29.7592V34.1063H98.4341V24.4597Z" fill="black"/>
<path d="M109.985 24.4596H111.925V26.2308H109.985V31.0087C109.985 31.9036 110.208 32.1269 111.104 32.1269C111.384 32.1269 111.645 32.1094 111.925 32.0537V34.1256C111.478 34.1988 110.898 34.2188 110.377 34.2188C108.753 34.2188 107.335 33.8452 107.335 31.9218V26.2308H105.73V24.4596H107.335V21.5669H109.985V24.4596Z" fill="black"/>
<path d="M113.529 32.1094L118.55 26.4563H113.903V24.4597H122.039V26.4563L117.02 32.1094H122.392V34.1063H113.529V32.1094Z" fill="black"/>
<path d="M59.7663 15.6517C58.3549 13.1145 54.237 12.3122 50.2267 13.8912C47.4285 14.9922 45.3906 16.9781 44.6433 19.0326C44.5041 19.321 44.3942 19.6086 44.3142 19.8889L41.6518 20.2701C41.8909 19.6415 42.2195 18.9996 42.6573 18.3521C46.4403 12.7739 53.1699 10.3741 58.7569 11.1252C61.819 11.5354 63.511 13.3179 64.0704 15.3771L59.7663 15.6517ZM119.361 13.0961L78.0102 14.6249L69.325 15.0948L67.1922 15.2093L64.5109 15.3587C63.8174 12.5768 61.5855 10.6305 58.0014 10.1478C52.1942 9.36844 45.5042 12.684 42.0494 16.7929C41.0765 17.9479 40.0964 19.6912 40.0489 20.4982L37.4916 20.8598C38.8343 15.9237 44.3446 10.8647 51.5659 8.47182C58.2192 6.26404 64.4792 6.9319 67.8348 9.7622C64.7563 6.38234 57.7027 5.53959 50.1033 8.05863C42.2085 10.6789 36.2291 16.0958 35.1677 21.1164L26.8426 22.3948L16.9999 23.8075V23.855L35.0328 23.3629C35.0568 23.5757 35.0852 23.7871 35.1275 23.9942C35.6725 26.6294 38.6062 27.9693 41.5253 28.8333C39.7484 27.78 37.7442 26.6607 37.3227 24.6125C37.2369 24.2066 37.1929 23.7928 37.1784 23.3776L38.4158 23.2708L39.5357 23.2358C39.9756 25.9671 42.78 28.2561 46.8781 28.55C48.6513 28.6755 50.5044 28.4438 52.3132 27.9474V26.7412C50.505 27.2282 48.5121 27.4526 46.3394 27.3365C42.8424 27.1534 40.666 25.4817 39.9856 23.2284L45.0286 23.0893C45.1056 23.1679 45.1945 23.2375 45.2887 23.3054C46.6804 24.933 49.394 25.5889 52.3132 25.0127V23.4189C49.0452 24.1104 46.1579 23.3467 45.5371 21.4846C44.8273 19.3576 47.3442 16.5998 51.1592 15.3274C54.9744 14.0543 58.6423 14.7468 59.3518 16.8755C59.5495 17.4646 59.4909 18.1027 59.2324 18.745L75.1335 17.2364L77.9918 16.9607L120.37 13.0961H119.361Z" fill="#F36518"/>
</g>
</g>
</g>
</svg>
