<svg width="48" height="48" viewBox="0 0 48 48" fill="none" xmlns="http://www.w3.org/2000/svg">
<mask id="mask0_800_2355" style="mask-type:alpha" maskUnits="userSpaceOnUse" x="0" y="0" width="48" height="48">
<rect width="48" height="48" fill="#D9D9D9"/>
</mask>
<g mask="url(#mask0_800_2355)">
<path d="M34 34C34.8333 34 35.5417 33.7083 36.125 33.125C36.7083 32.5417 37 31.8333 37 31C37 30.1667 36.7083 29.4583 36.125 28.875C35.5417 28.2917 34.8333 28 34 28C33.1667 28 32.4583 28.2917 31.875 28.875C31.2917 29.4583 31 30.1667 31 31C31 31.8333 31.2917 32.5417 31.875 33.125C32.4583 33.7083 33.1667 34 34 34ZM34 40C35.0333 40 35.9833 39.7583 36.85 39.275C37.7167 38.7917 38.4167 38.15 38.95 37.35C38.2167 36.9167 37.4333 36.5833 36.6 36.35C35.7667 36.1167 34.9 36 34 36C33.1 36 32.2333 36.1167 31.4 36.35C30.5667 36.5833 29.7833 36.9167 29.05 37.35C29.5833 38.15 30.2833 38.7917 31.15 39.275C32.0167 39.7583 32.9667 40 34 40ZM24 44C19.3667 42.8333 15.5417 40.175 12.525 36.025C9.50833 31.875 8 27.2667 8 22.2V10L24 4L40 10V21.35C39.3667 21.0833 38.7167 20.8417 38.05 20.625C37.3833 20.4083 36.7 20.25 36 20.15V12.8L24 8.3L12 12.8V22.2C12 23.7667 12.2083 25.3333 12.625 26.9C13.0417 28.4667 13.625 29.9583 14.375 31.375C15.125 32.7917 16.0333 34.1 17.1 35.3C18.1667 36.5 19.35 37.5 20.65 38.3C21.0167 39.3667 21.5 40.3833 22.1 41.35C22.7 42.3167 23.3833 43.1833 24.15 43.95C24.1167 43.95 24.0917 43.9583 24.075 43.975C24.0583 43.9917 24.0333 44 24 44ZM34 44C31.2333 44 28.875 43.025 26.925 41.075C24.975 39.125 24 36.7667 24 34C24 31.2333 24.975 28.875 26.925 26.925C28.875 24.975 31.2333 24 34 24C36.7667 24 39.125 24.975 41.075 26.925C43.025 28.875 44 31.2333 44 34C44 36.7667 43.025 39.125 41.075 41.075C39.125 43.025 36.7667 44 34 44Z" fill="#F9F9FB"/>
</g>
</svg>
