<svg width="140" height="52" viewBox="0 0 140 52" fill="none" xmlns="http://www.w3.org/2000/svg">
<mask id="mask0_790_2901" style="mask-type:alpha" maskUnits="userSpaceOnUse" x="0" y="0" width="140" height="52">
<rect width="140" height="52" fill="#D9D9D9"/>
</mask>
<g mask="url(#mask0_790_2901)">
<path d="M94.4155 30.4307C94.807 30.4307 95.1357 30.3094 95.4024 30.0665C95.6692 29.824 95.8021 29.5178 95.8021 29.1511C95.8021 28.7838 95.6692 28.4781 95.4024 28.2356C95.1357 27.9922 94.807 27.871 94.4155 27.871C94.024 27.871 93.7014 27.9983 93.4472 28.2529C93.1917 28.508 93.0648 28.8072 93.0648 29.1511C93.0648 29.4945 93.1917 29.7941 93.4472 30.0483C93.7014 30.3038 94.0245 30.4307 94.4155 30.4307ZM54.8183 31.9204C53.3139 31.9204 52.3413 32.2633 51.5142 32.634L51.4631 32.6566L52.0295 34.3372L52.0901 34.3121C52.8666 33.9882 53.5828 33.7729 54.555 33.7729C55.9269 33.7729 56.6523 34.4069 56.6523 35.6065V35.7377C56.0949 35.5653 55.3878 35.3973 54.3736 35.3973C52.0858 35.3973 50.72 36.4673 50.72 38.2597V38.2926C50.72 40.1803 52.3491 41.0399 53.8626 41.0399C54.998 41.0399 55.9304 40.6475 56.6358 39.8733V40.8584H58.7027V35.6398C58.7027 34.4476 58.3805 33.5291 57.7457 32.9108C57.1152 32.2629 56.1027 31.9204 54.8183 31.9204ZM56.6852 37.6669C56.6852 38.7101 55.7338 39.4675 54.4229 39.4675C53.4443 39.4675 52.7869 38.9621 52.7869 38.2104V38.1774C52.7869 37.3079 53.5278 36.7887 54.7689 36.7887C55.6272 36.7887 56.279 36.9628 56.6852 37.1152V37.6669ZM70.8869 31.8541C69.6964 31.8541 68.739 32.3383 67.9638 33.3343C67.4485 32.379 66.5248 31.8541 65.35 31.8541C64.0309 31.8541 63.2713 32.56 62.7582 33.2299V32.0356H60.6419V40.8584H62.7582V35.8871C62.7582 34.6126 63.4649 33.7894 64.5596 33.7894C65.641 33.7894 66.2615 34.536 66.2615 35.8377V40.8584H68.3774V35.8871C68.3774 34.5931 69.0676 33.7894 70.1784 33.7894C71.2762 33.7894 71.8803 34.5225 71.8803 35.8537V40.8584H73.997V35.2444C73.997 33.1216 72.8343 31.8541 70.8869 31.8541ZM80.956 31.8541C79.7751 31.8541 78.8229 32.3469 78.0512 33.3598V32.0356H75.9349V44.5662H78.0512V39.6242C78.8233 40.5769 79.7756 41.0403 80.956 41.0403C82.9926 41.0403 85.0544 39.4684 85.0544 36.4635V36.4305C85.0544 33.4261 82.9931 31.8541 80.956 31.8541ZM82.9056 36.4635C82.9056 38.0419 81.8849 39.1873 80.4784 39.1873C79.0667 39.1873 78.0018 38.0164 78.0018 36.4635V36.4305C78.0018 34.8776 79.0667 33.7067 80.4788 33.7067C81.862 33.7067 82.9056 34.8776 82.9056 36.4305V36.4635ZM88.7322 37.4854C88.7322 35.3354 89.7915 34.1025 91.6371 34.1025H91.8138V31.8732L91.7549 31.8706C91.6999 31.8682 91.6449 31.8671 91.5899 31.8671C90.0318 31.8671 89.1848 32.8428 88.7322 33.7729V32.0356H86.6159V40.8584H88.7322V37.485V37.4854ZM93.3753 32.0356H95.4916V40.8584H93.3753V32.0356ZM115.912 40.8584V35.2444C115.912 33.1528 114.701 31.8541 112.753 31.8541C111.652 31.8541 110.803 32.2958 110.095 33.2416V32.0356H107.978V40.8584H110.095V35.8871C110.095 34.6126 110.841 33.7894 111.995 33.7894C113.139 33.7894 113.796 34.542 113.796 35.8537V40.8584H115.912ZM106.436 36.4639V36.431C106.436 33.8647 104.374 31.8546 101.744 31.8546C99.1037 31.8546 97.0359 33.8795 97.0359 36.4639V36.4972C97.0359 39.0539 99.0894 41.0568 101.711 41.0568C104.36 41.0568 106.436 39.0392 106.436 36.4639ZM104.319 36.4972C104.319 38.0562 103.236 39.1877 101.744 39.1877C100.291 39.1877 99.1522 37.9912 99.1522 36.4639V36.431C99.1522 34.8625 100.228 33.724 101.711 33.724C103.198 33.724 104.319 34.9019 104.319 36.4639V36.4972ZM91.7289 44.4739C90.8065 44.4739 90.1517 45.2318 90.1517 46.155V46.1671C90.1517 47.1631 90.8732 47.8417 91.8081 47.8417C92.4014 47.8417 92.8232 47.6035 93.1285 47.2367L92.6946 46.8513C92.4378 47.1025 92.181 47.2367 91.8207 47.2367C91.3435 47.2367 90.9711 46.9431 90.8914 46.4174H93.2632C93.2688 46.3438 93.2753 46.2771 93.2753 46.2096C93.2753 45.2807 92.7556 44.4739 91.7289 44.4739ZM90.8853 45.929C90.9524 45.4271 91.2703 45.0789 91.7224 45.0789C92.2117 45.0789 92.4932 45.4517 92.5417 45.9285L90.8853 45.929ZM94.8499 45.2932V44.5662H94.1102V47.7932H94.8499V46.5642C94.8499 45.7085 95.302 45.2867 95.9498 45.2867H95.9927V44.5047C95.4241 44.4804 95.0517 44.8108 94.8499 45.2932ZM98.5567 44.4986C98.0314 44.4986 97.6954 44.7675 97.4568 45.1036V43.3311H96.7176V47.7928H97.4572V47.2917C97.6833 47.5914 98.0189 47.8599 98.5572 47.8599C99.321 47.8599 100.055 47.2549 100.055 46.1853V46.1732C100.055 45.0975 99.3154 44.4986 98.5572 44.4986H98.5567ZM99.3029 46.1853C99.3029 46.821 98.8871 47.2186 98.3796 47.2186C97.8786 47.2186 97.4386 46.8028 97.4386 46.1853V46.1732C97.4386 45.5557 97.8786 45.1404 98.3796 45.1404C98.8811 45.1404 99.3029 45.55 99.3029 46.1732V46.1853ZM101.172 43.1159C101.041 43.1159 100.931 43.1592 100.845 43.2449C100.804 43.2839 100.771 43.3309 100.749 43.3829C100.727 43.435 100.716 43.491 100.716 43.5476C100.716 43.6633 100.759 43.765 100.845 43.8508C100.932 43.9374 101.038 43.9794 101.172 43.9794C101.304 43.9794 101.417 43.9382 101.506 43.8564C101.55 43.8178 101.584 43.7701 101.607 43.7168C101.631 43.6635 101.642 43.6058 101.641 43.5476C101.642 43.4895 101.631 43.4318 101.607 43.3784C101.584 43.3251 101.55 43.2775 101.506 43.2389C101.415 43.1565 101.295 43.1124 101.172 43.1159ZM100.809 44.5662H101.548V47.7928H100.809V44.5662ZM104.326 44.4986C103.825 44.4986 103.525 44.761 103.317 45.0607V44.5662H102.578V47.7928H103.317V45.9714C103.317 45.4704 103.617 45.1711 104.045 45.1711C104.485 45.1711 104.735 45.4582 104.735 45.9593V47.7928H105.475V45.7332C105.475 44.9879 105.053 44.4986 104.326 44.4986ZM108.813 45.0663C108.581 44.7606 108.245 44.4982 107.713 44.4982C106.943 44.4982 106.216 45.1031 106.216 46.1723V46.1849C106.216 47.2545 106.955 47.8595 107.713 47.8595C108.238 47.8595 108.575 47.591 108.813 47.2545V47.7923H109.553V43.3298H108.813V45.0663ZM108.825 46.1849C108.825 46.802 108.385 47.2177 107.89 47.2177C107.389 47.2177 106.961 46.8085 106.961 46.1849V46.1723C106.961 45.5314 107.383 45.1399 107.89 45.1399C108.385 45.1399 108.826 45.5492 108.826 46.1723V46.1849H108.825ZM111.926 44.4951C111.004 44.4951 110.349 45.253 110.349 46.1758V46.1883C110.349 47.1844 111.07 47.8629 112.005 47.8629C112.599 47.8629 113.02 47.6243 113.326 47.258L112.892 46.8726C112.635 47.1233 112.378 47.258 112.018 47.258C111.541 47.258 111.168 46.9644 111.089 46.4386H113.46C113.466 46.365 113.473 46.2979 113.473 46.2308C113.473 45.3019 112.953 44.4951 111.926 44.4951ZM111.083 45.9502C111.15 45.4483 111.468 45.1001 111.92 45.1001C112.409 45.1001 112.69 45.4725 112.739 45.9497L111.083 45.9502ZM115.925 45.2019V44.5662H115.057V43.6801H114.318V44.5662H113.909V45.2019H114.318V46.9007C114.318 47.61 114.703 47.8482 115.247 47.8482C115.528 47.8482 115.73 47.7876 115.913 47.6837V47.0774C115.766 47.151 115.62 47.1882 115.455 47.1882C115.204 47.1882 115.057 47.0718 115.057 46.7847V45.2019H115.925ZM88.2394 46.9124L87.3803 44.5662H86.5874L87.9034 47.7928H88.5694L89.8794 44.5666H89.1042L88.2394 46.9124Z" fill="#151515"/>
<path d="M50.3635 4.13708H40.7191C38.9752 4.13708 38.5132 4.63769 37.8879 6.23432L25 37.815H36.3415L48.753 6.0689C49.1401 5.04302 49.619 4.30987 50.3661 4.16697C50.3738 4.16523 50.3786 4.1609 50.3786 4.15267C50.3786 4.14861 50.377 4.14471 50.3742 4.1418C50.3714 4.13889 50.3675 4.1372 50.3635 4.13708Z" fill="#9E007E"/>
<path d="M61.1211 27.881C61.1211 27.881 53.4216 6.59075 53.3696 6.45391L53.3653 6.44135L53.3558 6.4184C53.0124 5.51853 52.5893 4.72216 51.5483 4.70874C50.7004 4.7646 50.1772 5.5272 49.7611 6.63016L46.3262 15.4158L50.8346 27.881H61.1211Z" fill="#00A9E0"/>
</g>
</svg>
