<svg width="24" height="24" viewBox="0 0 24 24" fill="none" xmlns="http://www.w3.org/2000/svg">
<mask id="mask0_956_2356" style="mask-type:alpha" maskUnits="userSpaceOnUse" x="0" y="0" width="24" height="24">
<rect width="24" height="24" fill="#D9D9D9"/>
</mask>
<g mask="url(#mask0_956_2356)">
<path d="M14.25 21.95C13.9333 22.0333 13.6458 21.9792 13.3875 21.7875C13.1292 21.5958 13 21.3333 13 21V16C13 15.6667 13.1292 15.4042 13.3875 15.2125C13.6458 15.0208 13.9417 14.9667 14.275 15.05C14.8917 15.2167 15.5083 15.3333 16.125 15.4C16.7417 15.4667 17.3667 15.5 18 15.5C18.6333 15.5 19.2625 15.4667 19.8875 15.4C20.5125 15.3333 21.1333 15.2167 21.75 15.05C22.0667 14.9667 22.3542 15.0208 22.6125 15.2125C22.8708 15.4042 23 15.6667 23 16V21C23 21.3333 22.8708 21.5958 22.6125 21.7875C22.3542 21.9792 22.0667 22.0333 21.75 21.95C21.1333 21.7833 20.5125 21.6667 19.8875 21.6C19.2625 21.5333 18.6333 21.5 18 21.5C17.3667 21.5 16.7375 21.5333 16.1125 21.6C15.4875 21.6667 14.8667 21.7833 14.25 21.95ZM9.25001 22L8.85001 18.8C8.63335 18.7167 8.42918 18.6167 8.23751 18.5C8.04585 18.3833 7.85835 18.2583 7.67501 18.125L4.70001 19.375L1.95001 14.625L4.52501 12.675C4.50835 12.5583 4.50001 12.4458 4.50001 12.3375V11.6625C4.50001 11.5542 4.50835 11.4417 4.52501 11.325L1.95001 9.375L4.70001 4.625L7.67501 5.875C7.85835 5.74167 8.05001 5.61667 8.25001 5.5C8.45001 5.38333 8.65001 5.28333 8.85001 5.2L9.25001 2H14.75L15.15 5.2C15.3667 5.28333 15.5708 5.38333 15.7625 5.5C15.9542 5.61667 16.1417 5.74167 16.325 5.875L19.3 4.625L22.05 9.375L19.475 11.325C19.4917 11.4417 19.5 11.5542 19.5 11.6625V12.5C19.5 12.6667 19.4833 12.8333 19.45 13H17.4C17.4333 12.8333 17.4583 12.6667 17.475 12.5C17.4917 12.3333 17.5 12.1667 17.5 12C17.4833 11.6833 17.4583 11.4042 17.425 11.1625C17.3917 10.9208 17.3417 10.6917 17.275 10.475L19.425 8.85L18.45 7.15L15.975 8.2C15.6083 7.81667 15.2042 7.49583 14.7625 7.2375C14.3208 6.97917 13.8417 6.78333 13.325 6.65L13 4H11.025L10.675 6.65C10.1583 6.78333 9.67918 6.97917 9.23751 7.2375C8.79585 7.49583 8.39168 7.80833 8.02501 8.175L5.55001 7.15L4.57501 8.85L6.72501 10.45C6.64168 10.7 6.58335 10.95 6.55001 11.2C6.51668 11.45 6.50001 11.7167 6.50001 12C6.50001 12.2667 6.51668 12.525 6.55001 12.775C6.58335 13.025 6.64168 13.275 6.72501 13.525L4.57501 15.15L5.55001 16.85L8.02501 15.8C8.42501 16.2167 8.87501 16.5667 9.37501 16.85C9.87501 17.1333 10.4167 17.3167 11 17.4V22H9.25001ZM11 15.35V13.075C10.8667 12.9417 10.7583 12.7833 10.675 12.6C10.5917 12.4167 10.55 12.2167 10.55 12C10.55 11.5833 10.6958 11.2292 10.9875 10.9375C11.2792 10.6458 11.6333 10.5 12.05 10.5C12.4667 10.5 12.8208 10.6458 13.1125 10.9375C13.4042 11.2292 13.55 11.5833 13.55 12C13.55 12.1833 13.5208 12.3625 13.4625 12.5375C13.4042 12.7125 13.3083 12.8667 13.175 13H15.4C15.45 12.8333 15.4875 12.6708 15.5125 12.5125C15.5375 12.3542 15.55 12.1833 15.55 12C15.55 11.0333 15.2083 10.2083 14.525 9.525C13.8417 8.84167 13.0167 8.5 12.05 8.5C11.0667 8.5 10.2375 8.84167 9.56251 9.525C8.88751 10.2083 8.55001 11.0333 8.55001 12C8.55001 12.8 8.77918 13.5 9.23751 14.1C9.69585 14.7 10.2833 15.1167 11 15.35Z" fill="#F9F9FB"/>
</g>
</svg>
