<svg width="60" height="60" viewBox="0 0 60 60" fill="none" xmlns="http://www.w3.org/2000/svg">
<path d="M12.495 22.5V2.5H48.75L57.5 11.25V57.5H10M45 2.5V15H57.5M17.5 32.5H12.5C10 32.5 7.5 33.75 7.5 36.25V43.75C7.5 46.25 10 47.5 12.5 47.5H17.5M33.125 32.5H26.875C23.125 32.5 21.875 33.75 21.875 36.25C21.875 38.75 23.125 40 26.875 40C30.625 40 31.875 41.25 31.875 43.75C31.875 46.25 30.625 47.5 26.875 47.5H20.625M51.25 30V31.25C51.25 32.5 45 47.5 45 47.5H43.75C43.75 47.5 37.5 32.5 37.5 31.25V30" stroke="#F9F9FB" stroke-width="4"/>
</svg>
