<svg width="64" height="60" viewBox="0 0 64 60" fill="none" xmlns="http://www.w3.org/2000/svg">
<path d="M12.495 22.5V2.5H48.75L57.5 11.25V57.5H10M45 2.5V15H57.5M17.5 32.5H12.5C10 32.5 7.5 33.75 7.5 36.25V43.75C7.5 46.25 10 47.5 12.5 47.5H17.5M33.125 32.5H26.875C23.125 32.5 21.875 33.75 21.875 36.25C21.875 38.75 23.125 40 26.875 40C30.625 40 31.875 41.25 31.875 43.75C31.875 46.25 30.625 47.5 26.875 47.5H20.625M51.25 30V31.25C51.25 32.5 45 47.5 45 47.5H43.75C43.75 47.5 37.5 32.5 37.5 31.25V30" stroke="#F9F9FB" stroke-width="4"/>
<circle cx="54.4151" cy="50.9433" r="9.0566" fill="#D3EEE9"/>
<mask id="mask0_713_2365" style="mask-type:alpha" maskUnits="userSpaceOnUse" x="49" y="45" width="11" height="12">
<rect x="49.2399" y="45.7681" width="10.3504" height="10.3504" fill="#D9D9D9"/>
</mask>
<g mask="url(#mask0_713_2365)">
<path d="M51.8275 54.3934C51.5903 54.3934 51.3873 54.309 51.2184 54.1401C51.0494 53.9712 50.965 53.7681 50.965 53.5309V52.2371H51.8275V53.5309H57.0027V52.2371H57.8653V53.5309C57.8653 53.7681 57.7808 53.9712 57.6119 54.1401C57.443 54.309 57.2399 54.3934 57.0027 54.3934H51.8275ZM53.9838 52.6684V49.1535L52.8626 50.2748L52.2588 49.6495L54.4151 47.4932L56.5715 49.6495L55.9677 50.2748L54.8464 49.1535V52.6684H53.9838Z" fill="#17161B"/>
</g>
</svg>
