<svg width="140" height="52" viewBox="0 0 140 52" fill="none" xmlns="http://www.w3.org/2000/svg">
<mask id="mask0_790_2988" style="mask-type:alpha" maskUnits="userSpaceOnUse" x="0" y="0" width="140" height="52">
<rect width="140" height="52" fill="#D9D9D9"/>
</mask>
<g mask="url(#mask0_790_2988)">
<path d="M107.478 17.9696C103.492 20.0896 100.564 23.6236 100.513 26.958C100.574 30.9174 104.691 35.1567 109.819 36.9783C109.384 33.8192 107.487 21.0764 107.478 17.9696Z" fill="#474794"/>
<path d="M121.758 20.9262C123.188 21.3983 123.929 22.468 125.048 23.5875C126.293 24.8333 127.899 26.2408 128.576 28.0882C129.501 26.3501 130.005 24.1859 130.005 21.6605C130.005 14.6642 126.701 6.84112 116.014 10.6968C110.699 12.6157 108.424 15.5256 107.478 17.9697C108.632 17.3553 110.031 17.3255 111.318 16.9877C115.207 15.9438 119.398 17.3062 121.758 20.9262Z" fill="#8C8ACC"/>
<path d="M121.896 32.7683C118.977 36.3529 115.2 38.3732 111.232 37.3084C110.778 37.1885 110.26 37.1355 109.819 36.9786C110.115 37.3856 110.446 37.774 110.812 38.1384C114.735 42.0608 122.984 43.7167 127.127 39.6279C129.917 36.8001 130.032 32.0605 128.576 28.0883C127.198 30.6772 124.5 31.9077 121.896 32.7683Z" fill="#4C57B0"/>
<path d="M121.758 20.9262C122.844 22.5919 123.51 24.6371 123.514 26.9582C123.51 29.1772 122.899 31.1428 121.896 32.7682C124.883 32.3146 127.198 30.6771 128.576 28.0882C127.899 26.2408 126.884 24.5575 125.638 23.3125C124.52 22.193 123.188 21.3983 121.758 20.9262Z" fill="#353885"/>
<path d="M106.923 22.431C107.035 24.0524 107.684 25.6078 108.694 27.0024C109.21 25.7333 109.976 24.5373 110.998 23.4982C113.954 20.5957 118.163 19.7383 121.758 20.9262C119.398 17.3062 115.051 15.4773 111.162 16.5196C109.875 16.859 108.633 17.3553 107.478 17.9697C106.521 20.4396 106.923 22.431 106.923 22.431Z" fill="#353885"/>
<path d="M121.896 32.7682C121.335 32.8527 120.752 32.8977 120.145 32.8977C115.872 32.8977 111.183 30.4431 108.694 27.0024C107.353 30.3064 107.728 34.1089 109.819 36.9785C110.26 37.1354 110.707 37.2761 111.162 37.3959C115.13 38.4592 119.571 36.533 121.896 32.7682Z" fill="#353885"/>
<path d="M121.814 20.8682C118.184 19.669 113.932 20.5344 110.948 23.4668C109.915 24.5171 109.14 25.7235 108.62 27.0055C111.134 30.48 115.87 32.9611 120.186 32.9611C120.798 32.9611 121.388 32.9153 121.954 32.8284C122.968 31.1877 123.584 29.202 123.588 26.9613C123.584 24.6169 122.911 22.5507 121.814 20.8682ZM13.5137 25.463H22.4507C22.33 24.1174 21.9882 23.1081 21.426 22.4341C20.5614 21.3902 19.4411 20.8674 18.065 20.8674C16.8192 20.8674 15.7721 21.284 14.9236 22.1172C14.0743 22.952 13.6046 24.0668 13.5137 25.463ZM22.4201 29.8486L25.223 30.1952C24.7806 31.8327 23.9627 33.1035 22.7659 34.0075C21.5708 34.9123 20.0435 35.3626 18.1857 35.3626C15.8444 35.3626 13.9898 34.6428 12.6177 33.2016C11.2457 31.7595 10.5604 29.7384 10.5604 27.1358C10.5604 24.444 11.2537 22.3537 12.6403 20.8674C14.0268 19.3803 15.8243 18.6372 18.0353 18.6372C20.1746 18.6372 21.9231 19.365 23.2791 20.8216C24.6358 22.2781 25.3138 24.3281 25.3138 26.9701C25.3138 27.131 25.3074 27.3723 25.2986 27.6932H13.3633C13.4638 29.4513 13.9617 30.7976 14.8552 31.7314C15.7487 32.6667 16.865 33.1332 18.2001 33.1332C19.1942 33.1332 20.0435 32.8718 20.7472 32.3499C21.451 31.8271 22.0083 30.9939 22.4201 29.8486ZM32.3318 35.0015V18.9983H34.7736V21.2744C35.9494 19.5162 37.6464 18.6372 39.867 18.6372C40.8313 18.6372 41.7176 18.8101 42.5259 19.1567C43.335 19.5034 43.939 19.957 44.3427 20.5216C44.7432 21.0829 45.0247 21.7521 45.1856 22.525C45.2869 23.026 45.3368 23.9059 45.3368 25.1622V35.0015H42.6248V25.2675C42.6248 24.1625 42.5187 23.3365 42.3079 22.788C42.0964 22.2411 41.7224 21.8036 41.1852 21.477C40.6479 21.1513 40.0166 20.988 39.2936 20.988C38.1386 20.988 37.1413 21.3548 36.3033 22.0875C35.4645 22.8218 35.0454 24.2131 35.0454 26.2616V35.0015H32.3318ZM59.1219 32.5759L59.5144 34.9718C58.7503 35.1326 58.0675 35.213 57.4643 35.213C56.4799 35.213 55.7158 35.057 55.1737 34.7466C54.6309 34.4353 54.2488 34.026 54.0293 33.5169C53.8065 33.0118 53.6971 31.9429 53.6971 30.3151V21.1087H51.7074V18.9983H53.6971V15.0365L56.3946 13.407V18.9983H59.1219V21.1087H56.3946V30.4655C56.3946 31.24 56.4421 31.7378 56.537 31.9582C56.6327 32.1786 56.7887 32.3555 57.0051 32.4866C57.2206 32.6161 57.5294 32.682 57.9316 32.682C58.2324 32.682 58.6297 32.6466 59.1219 32.5759ZM64.393 30.2258L67.0752 29.8036C67.2256 30.8781 67.6455 31.7016 68.3323 32.2743C69.0216 32.8477 69.9835 33.1332 71.2188 33.1332C72.4646 33.1332 73.3895 32.8799 73.9919 32.3732C74.5951 31.8649 74.8967 31.2697 74.8967 30.5861C74.8967 29.9741 74.6297 29.4915 74.0973 29.1401C73.7257 28.8988 72.8016 28.5932 71.3242 28.2208C69.3352 27.7197 67.9567 27.2838 67.1878 26.9179C66.4198 26.5511 65.8367 26.0436 65.4402 25.3954C65.0421 24.7472 64.845 24.0314 64.845 23.2488C64.845 22.5346 65.0083 21.8743 65.334 21.2663C65.6605 20.6591 66.1045 20.154 66.6675 19.7519C67.0905 19.4414 67.6648 19.1768 68.3934 18.9613C69.1221 18.7449 69.903 18.6372 70.7363 18.6372C71.9917 18.6372 73.096 18.8173 74.045 19.1801C74.994 19.5412 75.6945 20.031 76.1473 20.6486C76.5993 21.2663 76.9106 22.0931 77.0811 23.1282L74.4286 23.4893C74.308 22.6657 73.9597 22.0223 73.3815 21.5607C72.8032 21.0982 71.9885 20.8674 70.9325 20.8674C69.6867 20.8674 68.7972 21.0733 68.2656 21.4851C67.7323 21.8977 67.4661 22.3794 67.4661 22.9319C67.4661 23.2834 67.5763 23.5995 67.7983 23.881C68.0186 24.1729 68.3661 24.4142 68.8374 24.604C69.1092 24.7045 69.9079 24.9354 71.2341 25.2973C73.1523 25.8104 74.4914 26.2294 75.2506 26.5552C76.0082 26.8833 76.6034 27.3562 77.036 27.9803C77.4671 28.6028 77.6843 29.3765 77.6843 30.3014C77.6843 31.2046 77.4197 32.0563 76.8929 32.8541C76.3653 33.6536 75.6045 34.2713 74.6104 34.7088C73.6155 35.1455 72.4895 35.3626 71.2341 35.3626C69.1543 35.3626 67.5699 34.9316 66.4801 34.0678C65.3887 33.2048 64.6946 31.9228 64.393 30.2258ZM86.3904 27.0007C86.3904 29.0492 86.8376 30.5845 87.7311 31.6043C88.6255 32.6241 89.7499 33.1332 91.1075 33.1332C92.4522 33.1332 93.5733 32.6209 94.4677 31.5971C95.3612 30.5716 95.8084 29.009 95.8084 26.9098C95.8084 24.9305 95.3588 23.4314 94.4596 22.4124C93.5604 21.3918 92.4425 20.8819 91.1075 20.8819C89.7499 20.8819 88.6255 21.3902 87.7311 22.4043C86.8376 23.4185 86.3904 24.9506 86.3904 27.0007ZM83.6029 27.0007C83.6029 24.037 84.4256 21.8414 86.0736 20.4146C87.4497 19.2299 89.1282 18.6372 91.1075 18.6372C93.3071 18.6372 95.1054 19.3578 96.5024 20.7998C97.8987 22.2411 98.5968 24.2324 98.5968 26.7739C98.5968 28.8328 98.2879 30.4542 97.6702 31.6341C97.0518 32.8139 96.1518 33.7308 94.9719 34.3839C93.7921 35.0369 92.5028 35.3626 91.1075 35.3626C88.8668 35.3626 87.0556 34.646 85.6746 33.208C84.2937 31.7732 83.6029 29.703 83.6029 27.0007Z" fill="#282E70"/>
<path d="M108.366 25.4507H117.302C117.181 24.1052 116.84 23.0958 116.277 22.4219C115.412 21.3779 114.293 20.8552 112.916 20.8552C111.671 20.8552 110.623 21.2718 109.774 22.105C108.925 22.9398 108.455 24.0545 108.366 25.4507ZM117.272 29.8364L120.074 30.183C119.633 31.8205 118.814 33.0912 117.618 33.9952C116.422 34.9 114.896 35.3504 113.037 35.3504C110.696 35.3504 108.841 34.6306 107.469 33.1893C106.097 31.7473 105.412 29.7262 105.412 27.1236C105.412 24.4317 106.105 22.3414 107.492 20.8552C108.878 19.3681 110.677 18.6249 112.886 18.6249C115.026 18.6249 116.775 19.3528 118.131 20.8093C119.486 22.2658 120.165 24.3159 120.165 26.9579C120.165 27.1188 120.16 27.36 120.149 27.6809H108.216C108.315 29.4391 108.813 30.7854 109.707 31.7192C110.601 32.6545 111.716 33.121 113.052 33.121C114.047 33.121 114.896 32.8596 115.599 32.3376C116.302 31.8149 116.859 30.9816 117.272 29.8364Z" fill="#FABD17"/>
</g>
</svg>
