<svg width="20" height="20" viewBox="0 0 20 20" fill="none" xmlns="http://www.w3.org/2000/svg">
<path d="M10 19.1667C5.36919 18.1375 1.66669 13.7683 1.66669 9.16668V4.16668L10 0.833344L18.3334 4.16668V9.16668C18.3334 13.77 14.6309 18.1375 10 19.1667ZM3.33335 5.00001V9.16668C3.38098 11.0935 4.05866 12.9515 5.26267 14.4566C6.46668 15.9616 8.13069 17.0306 10 17.5C11.8693 17.0306 13.5334 15.9616 14.7374 14.4566C15.9414 12.9515 16.6191 11.0935 16.6667 9.16668V5.00001L10 2.50001L3.33335 5.00001Z" fill="#F1F1F3"/>
<path d="M10 9.16667C11.1506 9.16667 12.0834 8.23393 12.0834 7.08333C12.0834 5.93274 11.1506 5 10 5C8.84943 5 7.91669 5.93274 7.91669 7.08333C7.91669 8.23393 8.84943 9.16667 10 9.16667Z" fill="#F1F1F3"/>
<path d="M5.83331 12.5C6.24405 13.2485 6.84631 13.8744 7.57843 14.3137C8.31055 14.753 9.14625 14.9898 9.99998 15C10.8537 14.9898 11.6894 14.753 12.4215 14.3137C13.1537 13.8744 13.7559 13.2485 14.1666 12.5C14.1458 10.92 11.3816 10 9.99998 10C8.61081 10 5.85415 10.92 5.83331 12.5Z" fill="#F1F1F3"/>
</svg>
