<svg width="496" height="129" viewBox="0 0 496 129" fill="none" xmlns="http://www.w3.org/2000/svg">
<rect x="444.923" width="55" height="55" rx="12" transform="rotate(22.3593 444.923 0)" fill="#313036" fill-opacity="0.3"/>
<rect x="444.923" width="55" height="55" rx="12" transform="rotate(22.3593 444.923 0)" fill="url(#paint0_linear_537_5818)"/>
<rect y="7.73157" width="55" height="55" rx="12" transform="rotate(-8.08105 0 7.73157)" fill="#313036" fill-opacity="0.3"/>
<rect y="7.73157" width="55" height="55" rx="12" transform="rotate(-8.08105 0 7.73157)" fill="url(#paint1_linear_537_5818)"/>
<path d="M25.157 50.621L30.0755 33.2106L21.9618 34.3626L35.4545 12.7979L30.6756 29.6291L39.2964 28.4051L25.157 50.621Z" fill="#F1F1F3"/>
<mask id="mask0_537_5818" style="mask-type:alpha" maskUnits="userSpaceOnUse" x="436" y="11" width="48" height="48">
<rect x="449.822" y="11.7471" width="36" height="36" transform="rotate(22.3593 449.822 11.7471)" fill="#D9D9D9"/>
</mask>
<g mask="url(#mask0_537_5818)">
<path d="M444.775 43.7319C444.012 43.418 443.471 42.8777 443.151 42.1109C442.831 41.3441 442.828 40.5792 443.142 39.8162L452.272 17.6206L455.047 18.7618L445.917 40.9574L468.112 50.0874L466.971 52.8618L444.775 43.7319ZM447.874 40.1408L453.01 27.6558L458.559 29.9383L453.423 42.4233L447.874 40.1408ZM454.811 42.9939L462.799 23.5728L468.348 25.8553L460.359 45.2764L454.811 42.9939ZM461.747 45.847L464.6 38.9109L470.149 41.1934L467.296 48.1295L461.747 45.847Z" fill="#F1F1F3"/>
</g>
<rect x="350.188" y="60.7422" width="55" height="55" rx="12" transform="rotate(15.2285 350.188 60.7422)" fill="#313036" fill-opacity="0.3"/>
<rect x="350.188" y="60.7422" width="55" height="55" rx="12" transform="rotate(15.2285 350.188 60.7422)" fill="url(#paint2_linear_537_5818)"/>
<mask id="mask1_537_5818" style="mask-type:alpha" maskUnits="userSpaceOnUse" x="346" y="72" width="45" height="45">
<rect x="356.246" y="72.7552" width="36" height="36" transform="rotate(15.2285 356.246 72.7552)" fill="#D9D9D9"/>
</mask>
<g mask="url(#mask1_537_5818)">
<path d="M370.205 101.429L373.099 102.217L373.887 99.3219L376.782 100.11L377.57 97.2152L374.676 96.4272L375.464 93.5326L372.569 92.7446L371.781 95.6392L368.886 94.8512L368.098 97.7459L370.993 98.5339L370.205 101.429ZM354.156 103.278C353.359 103.061 352.755 102.592 352.343 101.871C351.93 101.15 351.832 100.391 352.049 99.5951L356.777 82.2272C356.994 81.4311 357.463 80.8269 358.184 80.4143C358.905 80.0018 359.664 79.9038 360.46 80.1205L369.144 82.4846L371.25 86.1672L382.829 89.3193C383.625 89.536 384.229 90.0049 384.642 90.7261C385.054 91.4473 385.152 92.2059 384.935 93.0019L380.995 107.475C380.779 108.271 380.31 108.876 379.589 109.288C378.867 109.701 378.109 109.799 377.313 109.582L354.156 103.278ZM359.672 83.0152L354.944 100.383L378.101 106.687L382.041 92.2139L369.268 88.7368L367.162 85.0542L359.672 83.0152Z" fill="#F1F1F3"/>
</g>
<rect x="98.1387" y="62.001" width="55" height="55" rx="12" transform="rotate(11.6834 98.1387 62.001)" fill="#313036" fill-opacity="0.3"/>
<rect x="98.1387" y="62.001" width="55" height="55" rx="12" transform="rotate(11.6834 98.1387 62.001)" fill="url(#paint3_linear_537_5818)"/>
<mask id="mask2_537_5818" style="mask-type:alpha" maskUnits="userSpaceOnUse" x="97" y="73" width="44" height="44">
<rect x="104.927" y="73.6163" width="36" height="36" transform="rotate(11.6834 104.927 73.6163)" fill="#D9D9D9"/>
</mask>
<g mask="url(#mask2_537_5818)">
<path d="M103.262 101.111L101.232 98.8917L111.007 88.6591L114.351 94.7116L122.201 86.3787L124.966 93.1923C124.397 93.1003 123.851 93.0575 123.326 93.0639C122.802 93.0703 122.274 93.1208 121.744 93.2154L121.187 91.8365L113.729 99.7528L110.357 93.656L103.262 101.111ZM129.633 113.955L125.992 108.415C125.431 108.657 124.833 108.801 124.198 108.849C123.563 108.896 122.927 108.854 122.29 108.722C120.454 108.343 119.026 107.377 118.007 105.826C116.987 104.275 116.667 102.581 117.047 100.745C117.427 98.909 118.392 97.4812 119.943 96.4617C121.494 95.4422 123.188 95.1223 125.024 95.5019C126.86 95.8816 128.288 96.847 129.308 98.3981C130.327 99.9492 130.647 101.643 130.267 103.479C130.136 104.116 129.922 104.716 129.627 105.28C129.331 105.845 128.959 106.349 128.51 106.792L132.159 112.295L129.633 113.955ZM122.898 105.784C123.926 105.997 124.869 105.822 125.725 105.259C126.582 104.695 127.117 103.9 127.33 102.871C127.542 101.843 127.367 100.901 126.804 100.044C126.241 99.1871 125.445 98.6524 124.417 98.4398C123.388 98.2272 122.446 98.4024 121.589 98.9656C120.732 99.5288 120.198 100.324 119.985 101.353C119.772 102.381 119.948 103.323 120.511 104.18C121.074 105.037 121.87 105.572 122.898 105.784ZM128.596 94.7089C128.172 94.4168 127.721 94.1577 127.244 93.9315C126.768 93.7053 126.263 93.5243 125.729 93.3884L135.718 83.0469L137.748 85.2665L128.596 94.7089Z" fill="#F1F1F3"/>
</g>
<defs>
<linearGradient id="paint0_linear_537_5818" x1="447.63" y1="3.05273" x2="472.423" y2="55" gradientUnits="userSpaceOnUse">
<stop stop-color="#797583" stop-opacity="0.2"/>
<stop offset="1" stop-color="#363567" stop-opacity="0.2"/>
</linearGradient>
<linearGradient id="paint1_linear_537_5818" x1="2.70745" y1="10.7843" x2="27.5" y2="62.7316" gradientUnits="userSpaceOnUse">
<stop stop-color="#797583" stop-opacity="0.2"/>
<stop offset="1" stop-color="#363567" stop-opacity="0.2"/>
</linearGradient>
<linearGradient id="paint2_linear_537_5818" x1="352.896" y1="63.7949" x2="377.688" y2="115.742" gradientUnits="userSpaceOnUse">
<stop stop-color="#797583" stop-opacity="0.2"/>
<stop offset="1" stop-color="#363567" stop-opacity="0.2"/>
</linearGradient>
<linearGradient id="paint3_linear_537_5818" x1="100.846" y1="65.0537" x2="125.639" y2="117.001" gradientUnits="userSpaceOnUse">
<stop stop-color="#797583" stop-opacity="0.2"/>
<stop offset="1" stop-color="#363567" stop-opacity="0.2"/>
</linearGradient>
</defs>
</svg>
