<svg width="24" height="24" viewBox="0 0 24 24" fill="none" xmlns="http://www.w3.org/2000/svg">
<path d="M7.77273 10.8182C8.67687 10.8182 9.54399 10.459 10.1833 9.81968C10.8226 9.18035 11.1818 8.31324 11.1818 7.40909C11.1818 6.50494 10.8226 5.63783 10.1833 4.9985C9.54399 4.35917 8.67687 4 7.77273 4C6.86858 4 6.00146 4.35917 5.36214 4.9985C4.72281 5.63783 4.36364 6.50494 4.36364 7.40909C4.36364 8.31324 4.72281 9.18035 5.36214 9.81968C6.00146 10.459 6.86858 10.8182 7.77273 10.8182ZM7.77273 10.8182C9.14523 10.8182 10.3445 11.3364 11.1975 12.1975M7.77273 10.8182C5.04545 10.8182 3 12.8636 3 15.5909V19H7.77273M18 13.5455L15.9545 11.5L11.8636 15.5909M14.25 13.2045L16.2955 15.25M9.13636 16.6136C9.13654 17.0659 9.31638 17.4996 9.6363 17.8192C9.95622 18.1389 10.39 18.3184 10.8423 18.3182C11.2945 18.318 11.7282 18.1382 12.0479 17.8183C12.3675 17.4983 12.547 17.0645 12.5468 16.6123C12.5466 16.16 12.3668 15.7264 12.0469 15.4067C11.727 15.087 11.2932 14.9075 10.8409 14.9077C10.3887 14.9079 9.955 15.0877 9.63533 15.4077C9.31567 15.7276 9.13618 16.1614 9.13636 16.6136Z" stroke="#A6A6A6" stroke-width="2"/>
</svg>
