<svg width="69" height="69" viewBox="0 0 69 69" fill="none" xmlns="http://www.w3.org/2000/svg">
<rect x="15.1882" y="0.742188" width="55" height="55" rx="12" transform="rotate(15.2285 15.1882 0.742188)" fill="#313036" fill-opacity="0.3"/>
<rect x="15.1882" y="0.742188" width="55" height="55" rx="12" transform="rotate(15.2285 15.1882 0.742188)" fill="url(#paint0_linear_518_3335)"/>
<mask id="mask0_518_3335" style="mask-type:alpha" maskUnits="userSpaceOnUse" x="11" y="12" width="45" height="45">
<rect x="21.2463" y="12.7552" width="36" height="36" transform="rotate(15.2285 21.2463 12.7552)" fill="#D9D9D9"/>
</mask>
<g mask="url(#mask0_518_3335)">
<path d="M35.2048 41.4285L38.0995 42.2165L38.8875 39.3219L41.7821 40.1099L42.5702 37.2152L39.6755 36.4272L40.4635 33.5326L37.5689 32.7446L36.7808 35.6392L33.8862 34.8512L33.0982 37.7459L35.9928 38.5339L35.2048 41.4285ZM19.1555 43.2778C18.3595 43.0611 17.7552 42.5921 17.3426 41.871C16.9301 41.1498 16.8322 40.3912 17.0489 39.5951L21.7769 22.2272C21.9936 21.4311 22.4626 20.8269 23.1838 20.4143C23.905 20.0018 24.6636 19.9038 25.4596 20.1205L34.1436 22.4846L36.2502 26.1672L47.8288 29.3193C48.6249 29.536 49.2292 30.0049 49.6417 30.7261C50.0543 31.4473 50.1522 32.2059 49.9355 33.0019L45.9954 47.4752C45.7787 48.2713 45.3098 48.8755 44.5886 49.2881C43.8674 49.7006 43.1088 49.7986 42.3128 49.5819L19.1555 43.2778ZM24.6716 23.0152L19.9435 40.3831L43.1008 46.6872L47.0408 32.2139L34.2682 28.7368L32.1615 25.0542L24.6716 23.0152Z" fill="#F1F1F3"/>
</g>
<defs>
<linearGradient id="paint0_linear_518_3335" x1="17.8957" y1="3.79491" x2="42.6882" y2="55.7422" gradientUnits="userSpaceOnUse">
<stop stop-color="#797583" stop-opacity="0.2"/>
<stop offset="1" stop-color="#363567" stop-opacity="0.2"/>
</linearGradient>
</defs>
</svg>
