<svg width="65" height="65" viewBox="0 0 65 65" fill="none" xmlns="http://www.w3.org/2000/svg">
<rect x="11.1387" y="0.000976562" width="55" height="55" rx="12" transform="rotate(11.6834 11.1387 0.000976562)" fill="#313036" fill-opacity="0.3"/>
<rect x="11.1387" y="0.000976562" width="55" height="55" rx="12" transform="rotate(11.6834 11.1387 0.000976562)" fill="url(#paint0_linear_518_3341)"/>
<mask id="mask0_518_3341" style="mask-type:alpha" maskUnits="userSpaceOnUse" x="10" y="11" width="44" height="44">
<rect x="17.9271" y="11.6163" width="36" height="36" transform="rotate(11.6834 17.9271 11.6163)" fill="#D9D9D9"/>
</mask>
<g mask="url(#mask0_518_3341)">
<path d="M16.2623 39.1113L14.2322 36.8917L24.0069 26.6591L27.3505 32.7116L35.2006 24.3787L37.9656 31.1923C37.3975 31.1003 36.8511 31.0575 36.3264 31.0639C35.8018 31.0703 35.2743 31.1208 34.7442 31.2154L34.1869 29.8365L26.7293 37.7528L23.3566 31.656L16.2623 39.1113ZM42.6328 51.955L38.9916 46.4154C38.4311 46.6569 37.8332 46.8013 37.198 46.8487C36.5627 46.896 35.9269 46.8539 35.2903 46.7223C33.4542 46.3426 32.0263 45.3772 31.0068 43.8261C29.9873 42.275 29.6674 40.5814 30.0471 38.7452C30.4268 36.909 31.3922 35.4812 32.9433 34.4617C34.4943 33.4422 36.188 33.1223 38.0241 33.5019C39.8603 33.8816 41.2881 34.847 42.3076 36.3981C43.3272 37.9492 43.6471 39.6428 43.2674 41.479C43.1357 42.1155 42.9222 42.716 42.6268 43.2804C42.3314 43.8447 41.9592 44.3485 41.5101 44.7918L45.1589 50.2947L42.6328 51.955ZM35.8978 43.7844C36.9261 43.997 37.8686 43.8218 38.7254 43.2586C39.5822 42.6954 40.1169 41.8997 40.3295 40.8715C40.5422 39.8432 40.3669 38.9007 39.8037 38.0439C39.2406 37.1871 38.4449 36.6524 37.4166 36.4398C36.3884 36.2272 35.4458 36.4024 34.5891 36.9656C33.7323 37.5288 33.1975 38.3245 32.9849 39.3527C32.7723 40.381 32.9476 41.3235 33.5107 42.1803C34.0739 43.0371 34.8696 43.5718 35.8978 43.7844ZM41.5962 32.7089C41.1716 32.4168 40.721 32.1577 40.2444 31.9315C39.7678 31.7053 39.2628 31.5243 38.7292 31.3884L48.7179 21.0469L50.748 23.2665L41.5962 32.7089Z" fill="#F1F1F3"/>
</g>
<defs>
<linearGradient id="paint0_linear_518_3341" x1="13.8461" y1="3.0537" x2="38.6387" y2="55.001" gradientUnits="userSpaceOnUse">
<stop stop-color="#797583" stop-opacity="0.2"/>
<stop offset="1" stop-color="#363567" stop-opacity="0.2"/>
</linearGradient>
</defs>
</svg>
