<svg width="42" height="42" viewBox="0 0 42 42" fill="none" xmlns="http://www.w3.org/2000/svg">
<path d="M10.5 3.5H26.25C27.1783 3.5 28.0685 3.86875 28.7249 4.52513C29.3813 5.1815 29.75 6.07174 29.75 7V10.5H26.25V7H10.5V35H26.25V31.5H29.75V35C29.75 35.9283 29.3813 36.8185 28.7249 37.4749C28.0685 38.1312 27.1783 38.5 26.25 38.5H10.5C9.57174 38.5 8.6815 38.1312 8.02513 37.4749C7.36875 36.8185 7 35.9283 7 35V7C7 6.07174 7.36875 5.1815 8.02513 4.52513C8.6815 3.86875 9.57174 3.5 10.5 3.5Z" fill="#DC362E"/>
<path d="M28.1575 27.2825L30.625 29.75L39.375 21L30.625 12.25L28.1575 14.7175L32.6725 19.25H15.75V22.75H32.6725L28.1575 27.2825Z" fill="#DC362E"/>
</svg>
