<svg width="30" height="29" viewBox="0 0 30 29" fill="none" xmlns="http://www.w3.org/2000/svg">
<path d="M14.986 19.43C12.1003 19.43 9.7583 17.088 9.7583 14.2023C9.7583 11.3166 12.1003 8.97461 14.986 8.97461C17.8717 8.97461 20.2137 11.3166 20.2137 14.2023C20.2137 17.088 17.8717 19.43 14.986 19.43ZM14.986 11.0657C13.2574 11.0657 11.8494 12.4737 11.8494 14.2023C11.8494 15.9309 13.2574 17.3389 14.986 17.3389C16.7146 17.3389 18.1226 15.9309 18.1226 14.2023C18.1226 12.4737 16.7146 11.0657 14.986 11.0657Z" fill="white"/>
<path d="M19.461 28.4077C19.1682 28.4077 18.8755 28.3659 18.5827 28.2962C17.7184 28.0592 16.9935 27.5155 16.5335 26.7488L16.3662 26.47C15.5437 25.048 14.4145 25.048 13.592 26.47L13.4387 26.7348C12.9786 27.5155 12.2537 28.0731 11.3894 28.2962C10.5112 28.5332 9.60502 28.4077 8.83829 27.9477L6.44052 26.5675C5.59015 26.0796 4.97677 25.285 4.7119 24.3231C4.46097 23.3612 4.58643 22.3714 5.07435 21.5211C5.47862 20.8101 5.59015 20.1688 5.35316 19.7646C5.11617 19.3603 4.51673 19.1233 3.69424 19.1233C1.65892 19.1233 0 17.4644 0 15.4291V12.9755C0 10.9402 1.65892 9.2813 3.69424 9.2813C4.51673 9.2813 5.11617 9.04431 5.35316 8.64004C5.59015 8.23576 5.49256 7.5945 5.07435 6.88353C4.58643 6.03316 4.46097 5.02944 4.7119 4.08149C4.96283 3.11959 5.57621 2.32498 6.44052 1.83706L8.85223 0.456951C10.4275 -0.477063 12.5046 0.0666167 13.4526 1.66978L13.6199 1.94859C14.4424 3.37052 15.5716 3.37052 16.3941 1.94859L16.5474 1.68372C17.4954 0.0666167 19.5725 -0.477063 21.1617 0.470892L23.5595 1.851C24.4099 2.33892 25.0232 3.13353 25.2881 4.09543C25.539 5.05732 25.4136 6.0471 24.9256 6.89747C24.5214 7.60844 24.4099 8.2497 24.6468 8.65398C24.8838 9.05825 25.4833 9.29524 26.3058 9.29524C28.3411 9.29524 30 10.9542 30 12.9895V15.443C30 17.4783 28.3411 19.1372 26.3058 19.1372C25.4833 19.1372 24.8838 19.3742 24.6468 19.7785C24.4099 20.1828 24.5074 20.8241 24.9256 21.535C25.4136 22.3854 25.553 23.3891 25.2881 24.3371C25.0372 25.299 24.4238 26.0936 23.5595 26.5815L21.1478 27.9616C20.618 28.2543 20.0465 28.4077 19.461 28.4077ZM14.9861 23.2497C16.2268 23.2497 17.3838 24.0304 18.1784 25.4105L18.3318 25.6754C18.4991 25.9681 18.7779 26.1772 19.1125 26.2609C19.447 26.3445 19.7816 26.3027 20.0604 26.1354L22.4721 24.7413C22.8346 24.5322 23.1134 24.1837 23.2249 23.7655C23.3364 23.3473 23.2807 22.9151 23.0716 22.5527C22.277 21.1865 22.1794 19.7785 22.7928 18.7051C23.4061 17.6317 24.6747 17.0183 26.2639 17.0183C27.1561 17.0183 27.8671 16.3073 27.8671 15.4151V12.9616C27.8671 12.0833 27.1561 11.3584 26.2639 11.3584C24.6747 11.3584 23.4061 10.7451 22.7928 9.67163C22.1794 8.59822 22.277 7.19022 23.0716 5.82405C23.2807 5.4616 23.3364 5.02944 23.2249 4.61123C23.1134 4.19301 22.8485 3.85844 22.4861 3.63539L20.0743 2.25528C19.4749 1.89282 18.6803 2.10193 18.3178 2.71532L18.1645 2.98019C17.3699 4.3603 16.2128 5.14097 14.9721 5.14097C13.7314 5.14097 12.5743 4.3603 11.7797 2.98019L11.6264 2.70138C11.2779 2.11587 10.4972 1.90677 9.89777 2.25528L7.48606 3.64933C7.12361 3.85844 6.8448 4.20695 6.73327 4.62517C6.62175 5.04338 6.67751 5.47554 6.88662 5.83799C7.68123 7.20416 7.77881 8.61216 7.16543 9.68558C6.55204 10.759 5.28346 11.3724 3.69424 11.3724C2.80204 11.3724 2.09108 12.0833 2.09108 12.9755V15.4291C2.09108 16.3073 2.80204 17.0322 3.69424 17.0322C5.28346 17.0322 6.55204 17.6456 7.16543 18.719C7.77881 19.7925 7.68123 21.2004 6.88662 22.5666C6.67751 22.9291 6.62175 23.3612 6.73327 23.7794C6.8448 24.1977 7.10967 24.5322 7.47212 24.7553L9.88383 26.1354C10.1766 26.3166 10.5251 26.3584 10.8457 26.2748C11.1803 26.1912 11.4591 25.9681 11.6403 25.6754L11.7937 25.4105C12.5883 24.0443 13.7454 23.2497 14.9861 23.2497Z" fill="white"/>
</svg>
