<svg width="42" height="42" viewBox="0 0 42 42" fill="none" xmlns="http://www.w3.org/2000/svg">
<mask id="mask0_537_5811" style="mask-type:alpha" maskUnits="userSpaceOnUse" x="0" y="0" width="42" height="42">
<rect width="42" height="42" fill="#F9F9FB"/>
</mask>
<g mask="url(#mask0_537_5811)">
<path d="M3.9375 15.6425V17.0301V25.1743V26.1998L7.1252 29.3972L7.51614 29.7893L10.5535 32.8358H23.5749V9.1875H10.343L7.30563 12.234L7.1252 12.415L3.9375 15.6425ZM8.6589 17.6333L12.3278 13.9534H18.8535V28.07H12.5082L8.6589 24.1789V17.6333Z" fill="#D3EEE9"/>
<path d="M35.3051 12.415L35.1246 12.234L32.0873 9.1875H18.8553V32.8358H31.8768L34.9141 29.7893L35.3051 29.3972L38.4928 26.1998V15.6425L35.3051 12.415ZM33.7714 24.1789L29.9221 28.07H23.5767V13.9534H30.1025L33.7714 17.6333V24.1789Z" fill="#D3EEE9"/>
<path d="M12.0746 13.9341V9.1875H30.0439V13.9341H23.6021V32.9206H18.8555V13.9341H12.0746Z" fill="#4FA983"/>
</g>
</svg>
