<svg width="24" height="24" viewBox="0 0 24 24" fill="none" xmlns="http://www.w3.org/2000/svg">
<mask id="mask0_682_2359" style="mask-type:alpha" maskUnits="userSpaceOnUse" x="0" y="0" width="24" height="24">
<rect width="24" height="24" fill="#D9D9D9"/>
</mask>
<g mask="url(#mask0_682_2359)">
<path d="M18.525 9L17.425 6.6L15.025 5.5L17.425 4.4L18.525 2L19.625 4.4L22.025 5.5L19.625 6.6L18.525 9ZM20.525 16L19.725 14.3L18.025 13.5L19.725 12.7L20.525 11L21.325 12.7L23.025 13.5L21.325 14.3L20.525 16ZM7.52501 22L7.22501 19.65C7.09167 19.6 6.96251 19.5333 6.83751 19.45C6.71251 19.3667 6.60834 19.2833 6.52501 19.2L4.32501 20.15L1.85001 15.8L3.72501 14.4V13.6L1.85001 12.2L4.32501 7.85L6.52501 8.8C6.60834 8.71667 6.71251 8.63333 6.83751 8.55C6.96251 8.46667 7.09167 8.4 7.22501 8.35L7.52501 6H12.525L12.825 8.35C12.9583 8.4 13.0875 8.46667 13.2125 8.55C13.3375 8.63333 13.4417 8.71667 13.525 8.8L15.725 7.85L18.2 12.2L16.325 13.6V14.4L18.2 15.8L15.725 20.15L13.525 19.2C13.4417 19.2833 13.3375 19.3667 13.2125 19.45C13.0875 19.5333 12.9583 19.6 12.825 19.65L12.525 22H7.52501ZM10.025 17C10.8583 17 11.5667 16.7083 12.15 16.125C12.7333 15.5417 13.025 14.8333 13.025 14C13.025 13.1667 12.7333 12.4583 12.15 11.875C11.5667 11.2917 10.8583 11 10.025 11C9.19167 11 8.48334 11.2917 7.90001 11.875C7.31667 12.4583 7.02501 13.1667 7.02501 14C7.02501 14.8333 7.31667 15.5417 7.90001 16.125C8.48334 16.7083 9.19167 17 10.025 17ZM10.025 15C9.74167 15 9.50417 14.9042 9.31251 14.7125C9.12084 14.5208 9.02501 14.2833 9.02501 14C9.02501 13.7167 9.12084 13.4792 9.31251 13.2875C9.50417 13.0958 9.74167 13 10.025 13C10.3083 13 10.5458 13.0958 10.7375 13.2875C10.9292 13.4792 11.025 13.7167 11.025 14C11.025 14.2833 10.9292 14.5208 10.7375 14.7125C10.5458 14.9042 10.3083 15 10.025 15ZM9.27501 20H10.775L10.975 18.2C11.4583 18.0667 11.8708 17.8958 12.2125 17.6875C12.5542 17.4792 12.8917 17.2 13.225 16.85L14.875 17.6L15.575 16.35L14.125 15.25C14.2583 14.8667 14.325 14.45 14.325 14C14.325 13.55 14.2583 13.1333 14.125 12.75L15.575 11.65L14.875 10.4L13.225 11.15C12.8917 10.8 12.5542 10.5208 12.2125 10.3125C11.8708 10.1042 11.4583 9.93333 10.975 9.8L10.775 8H9.27501L9.07501 9.8C8.59167 9.93333 8.17917 10.1042 7.83751 10.3125C7.49584 10.5208 7.15834 10.8 6.82501 11.15L5.17501 10.4L4.47501 11.65L5.92501 12.75C5.79167 13.1333 5.72084 13.55 5.71251 14C5.70417 14.45 5.77501 14.8667 5.92501 15.25L4.47501 16.35L5.17501 17.6L6.82501 16.85C7.15834 17.2 7.49584 17.4792 7.83751 17.6875C8.17917 17.8958 8.59167 18.0667 9.07501 18.2L9.27501 20Z" fill="#F9F9FB"/>
</g>
</svg>
