<svg width="140" height="52" viewBox="0 0 140 52" fill="none" xmlns="http://www.w3.org/2000/svg">
<mask id="mask0_790_2978" style="mask-type:alpha" maskUnits="userSpaceOnUse" x="0" y="0" width="140" height="52">
<rect width="140" height="52" fill="#D9D9D9"/>
</mask>
<g mask="url(#mask0_790_2978)">
<g clip-path="url(#clip0_790_2978)">
<path d="M34.0097 33.1326L38.0249 24.701L42.0383 33.1326H44.1862L39.2017 22.3584H36.8517L31.8611 33.1326H34.0097Z" fill="#BFBB0D"/>
<path d="M65.7636 23.167C64.8379 22.3734 63.5929 22.0534 62.3472 22.0534C60.1434 22.0534 57.9555 23.0902 57.9555 25.3162C57.9555 29.1766 63.6089 27.8179 63.6089 30.1809C63.6089 31.1741 62.499 31.66 61.5223 31.66C60.5801 31.66 59.6882 31.2497 59.1661 30.5328L57.5679 31.9357C58.5433 32.9867 59.9917 33.3988 61.4732 33.3988C63.8116 33.3988 65.8312 32.2705 65.8312 29.953C65.8312 26.1092 60.1765 27.345 60.1765 25.1798C60.1765 24.1903 61.1519 23.7911 62.1286 23.7911C62.9535 23.7911 63.7612 24.0668 64.2145 24.6461L65.7636 23.167ZM42.7436 19.4401H33.3053V21.1814H42.7436V19.4401ZM116.28 33.1341H118.236L121.001 24.9003H121.033L123.798 33.1341H125.821L129.293 22.3193H127.136L124.792 30.109H124.759L122.13 22.3193H120.039L117.36 30.109H117.326L115.084 22.3193H112.758L116.28 33.1341ZM111.867 25.0379C111.867 23.068 110.013 22.3205 108.21 22.3205H103.557V33.1328H107.856C110.114 33.1328 112.372 32.3988 112.372 30.0482C112.372 28.6569 111.294 27.5882 109.793 27.4365V27.407C111.024 27.0698 111.867 26.2608 111.867 25.0379ZM105.68 28.3682H107.72C109.439 28.3682 110.249 28.765 110.249 29.894C110.249 31.3159 108.732 31.4824 107.636 31.4824H105.68V28.3682ZM109.743 25.3591C109.743 26.1687 109.034 26.719 107.619 26.719H105.68V23.9685H107.434C109.034 23.9685 109.743 24.428 109.743 25.3591ZM93.6896 33.1341H95.8143V24.0613H99.4701V22.3193H90.0325V24.0613H93.6896V33.1341ZM80.2941 33.1341H88.5014V31.3915H82.4168V28.4598H87.8958V26.719H82.4168V24.0613H88.1986V22.3193H80.2941V33.1341ZM67.674 33.1341H69.7974V24.8401H69.8311L75.7314 33.1341H78.4273V22.3193H76.3033V30.3534L76.2707 30.3848H76.3033L76.2707 30.3534L70.4871 22.3193H67.674V33.1341ZM45.2173 33.1341H47.342V24.8401H47.3751L53.2748 33.1341H55.9713V22.3193H53.8467V30.3534L53.8135 30.3848H53.8467L53.8135 30.3534L48.0324 22.3193H45.2173V33.1341ZM30.6633 25.4198C30.6633 22.9918 28.5074 22.3192 26.2138 22.3192H22.0678V33.1339H24.1918V28.5518H25.7433L28.5074 33.1339H31.0681L27.9005 28.3528C29.6701 28.1237 30.6633 26.9775 30.6633 25.4198ZM28.4404 25.4038C28.4404 26.8104 27.0406 26.9032 25.8441 26.9032H24.1918V23.9684H26.0296C27.1248 23.9684 28.4404 24.1226 28.4404 25.4038ZM11.4187 22.3192V24.0612H15.0777V33.1328H17.1998V24.0612H20.8576V22.3192H11.4187Z" fill="#054653"/>
</g>
</g>
<defs>
<clipPath id="clip0_790_2978">
<rect width="118.712" height="14.839" fill="white" transform="translate(11 19)"/>
</clipPath>
</defs>
</svg>
