<svg width="56" height="60" viewBox="0 0 56 60" fill="none" xmlns="http://www.w3.org/2000/svg">
<path fill-rule="evenodd" clip-rule="evenodd" d="M47.5472 15.283V47.5472C47.5472 49.3486 46.8315 51.0763 45.5577 52.3502C44.2839 53.624 42.5562 54.3396 40.7547 54.3396V50.9434C41.6555 50.9434 42.5193 50.5856 43.1562 49.9487C43.7931 49.3117 44.1509 48.4479 44.1509 47.5472V15.283H37.3585C36.0074 15.283 34.7116 14.7463 33.7562 13.7909C32.8009 12.8355 32.2642 11.5398 32.2642 10.1887V3.39623H13.5849C12.6842 3.39623 11.8203 3.75404 11.1834 4.39096C10.5465 5.02787 10.1887 5.89172 10.1887 6.79245V37.3585H6.79245V6.79245C6.79245 4.99098 7.50808 3.2633 8.78192 1.98946C10.0557 0.715631 11.7834 0 13.5849 0L32.2642 0L47.5472 15.283ZM11.9785 40.2453H8.94566L6.15057 45.1325H6.0283L3.20264 40.2453H0.0407547L4.20792 46.98L0 53.8302H2.92415L5.82113 49.0245H5.94L8.82679 53.8302H11.9106L7.6517 47.0649L11.9785 40.2453ZM15.2185 53.8268V44.7928H15.3475L18.5808 52.1253H20.3332L23.546 44.7894H23.6751V53.8268H26.1034V40.2453H23.3864L19.5147 49.0619H19.4298L15.5547 40.2453H12.8174V53.8268H15.2185ZM31.2147 51.5377H36.9747V53.8268H28.5283V40.2453H31.2147V51.5377Z" fill="#F9F9F9"/>
<circle cx="46.4151" cy="50.9433" r="9.0566" fill="#D3EEE9"/>
<mask id="mask0_537_5971" style="mask-type:alpha" maskUnits="userSpaceOnUse" x="41" y="45" width="11" height="12">
<rect x="41.2399" y="45.7681" width="10.3504" height="10.3504" fill="#D9D9D9"/>
</mask>
<g mask="url(#mask0_537_5971)">
<path d="M43.8275 54.3934C43.5903 54.3934 43.3873 54.309 43.2184 54.1401C43.0494 53.9712 42.965 53.7681 42.965 53.5309V52.2371H43.8275V53.5309H49.0027V52.2371H49.8653V53.5309C49.8653 53.7681 49.7808 53.9712 49.6119 54.1401C49.443 54.309 49.2399 54.3934 49.0027 54.3934H43.8275ZM45.9838 52.6684V49.1535L44.8626 50.2748L44.2588 49.6495L46.4151 47.4932L48.5715 49.6495L47.9677 50.2748L46.8464 49.1535V52.6684H45.9838Z" fill="#17161B"/>
</g>
</svg>
