<svg width="42" height="42" viewBox="0 0 42 42" fill="none" xmlns="http://www.w3.org/2000/svg">
<mask id="mask0_542_2374" style="mask-type:alpha" maskUnits="userSpaceOnUse" x="0" y="0" width="42" height="42">
<rect width="42" height="42" fill="#D9D9D9"/>
</mask>
<g mask="url(#mask0_542_2374)">
<path d="M30.7194 20.2939C29.8046 18.8106 27.1355 18.3416 24.5362 19.2646C22.7225 19.9083 21.4016 21.0693 20.9173 22.2704C20.8271 22.439 20.7558 22.6071 20.704 22.771L18.9783 22.9938C19.1333 22.6263 19.3463 22.2511 19.63 21.8726C22.082 18.6115 26.4438 17.2086 30.0651 17.6476C32.0498 17.8874 33.1465 18.9295 33.5091 20.1333L30.7194 20.2939ZM69.3459 18.7999L42.5443 19.6936L36.9149 19.9683L35.5325 20.0352L33.7946 20.1226C33.3451 18.4963 31.8984 17.3584 29.5754 17.0762C25.8114 16.6206 21.4753 18.5589 19.236 20.9611C18.6054 21.6363 17.9702 22.6554 17.9394 23.1272L16.2818 23.3386C17.1522 20.4529 20.7236 17.4954 25.4042 16.0965C29.7166 14.8058 33.774 15.1962 35.949 16.8508C33.9537 14.8749 29.3818 14.3822 24.4562 15.8549C19.3391 17.3867 15.4636 20.5535 14.7756 23.4886L9.3796 24.236L3 25.0618V25.0896L14.6882 24.8019C14.7037 24.9264 14.7221 25.0499 14.7495 25.171C15.1028 26.7115 17.0043 27.4949 18.8963 28C17.7446 27.3842 16.4456 26.7298 16.1724 25.5325C16.1168 25.2951 16.0882 25.0533 16.0788 24.8105L16.8809 24.7481L17.6068 24.7276C17.8919 26.3244 19.7096 27.6625 22.3658 27.8343C23.5151 27.9077 24.7162 27.7723 25.8885 27.482V26.7769C24.7166 27.0616 23.4249 27.1928 22.0166 27.1249C19.75 27.0179 18.3393 26.0406 17.8983 24.7233L21.167 24.642C21.2169 24.6879 21.2745 24.7286 21.3356 24.7683C22.2376 25.7198 23.9965 26.1033 25.8885 25.7664V24.8347C23.7704 25.2389 21.899 24.7925 21.4966 23.7038C21.0365 22.4604 22.6679 20.8482 25.1406 20.1043C27.6134 19.36 29.9908 19.7649 30.4507 21.0093C30.5788 21.3537 30.5408 21.7267 30.3733 22.1022L40.6797 21.2203L42.5323 21.0592L70 18.7999H69.3459Z" fill="#F36518"/>
</g>
</svg>
