<svg width="32" height="32" viewBox="0 0 32 32" fill="none" xmlns="http://www.w3.org/2000/svg">
<rect x="0.5" y="0.5" width="31" height="31" rx="3.5" stroke="#F9F9FB"/>
<path fill-rule="evenodd" clip-rule="evenodd" d="M23.3333 12.5V22C23.3333 22.5304 23.1225 23.0391 22.7475 23.4142C22.3724 23.7893 21.8637 24 21.3333 24V23C21.5985 23 21.8528 22.8946 22.0404 22.7071C22.2279 22.5196 22.3333 22.2652 22.3333 22V12.5H20.3333C19.9354 12.5 19.5539 12.342 19.2726 12.0607C18.9913 11.7794 18.8333 11.3978 18.8333 11V9H13.3333C13.068 9 12.8137 9.10536 12.6261 9.29289C12.4386 9.48043 12.3333 9.73478 12.3333 10V19H11.3333V10C11.3333 9.46957 11.544 8.96086 11.919 8.58579C12.2941 8.21071 12.8028 8 13.3333 8H18.8333L23.3333 12.5ZM12.8603 19.85H11.9673L11.1443 21.289H11.1083L10.2763 19.85H9.34525L10.5723 21.833L9.33325 23.85H10.1943L11.0473 22.435H11.0823L11.9323 23.85H12.8403L11.5863 21.858L12.8603 19.85ZM13.8143 23.849V21.189H13.8523L14.8043 23.348H15.3203L16.2663 21.188H16.3043V23.849H17.0193V19.85H16.2193L15.0793 22.446H15.0543L13.9133 19.85H13.1073V23.849H13.8143ZM18.5243 23.175H20.2203V23.849H17.7333V19.85H18.5243V23.175Z" fill="#F9F9F9"/>
</svg>
