<svg width="27" height="19" viewBox="0 0 27 19" fill="none" xmlns="http://www.w3.org/2000/svg">
<path d="M0 4.91812V5.97528V12.1804V12.9618L2.42872 15.3978L2.72658 15.6966L5.04074 18.0178H14.9618V0H4.88035L2.5662 2.32117L2.42872 2.45906L0 4.91812ZM3.59726 6.43492L6.39257 3.63113H11.3646V14.3866H6.53005L3.59726 11.422V6.43492Z" fill="#4FA983"/>
<path d="M23.8991 2.45906L23.7616 2.32117L21.4474 0H11.366V18.0178H21.2871L23.6012 15.6966L23.8991 15.3978L26.3278 12.9618V4.91812L23.8991 2.45906ZM22.7305 11.422L19.7978 14.3866H14.9632V3.63113H19.9352L22.7305 6.43492V11.422Z" fill="#4FA983"/>
<path d="M6.19971 3.61647V0H19.8906V3.61647H14.9826V18.0824H11.3661V3.61647H6.19971Z" fill="#F1F1F3"/>
</svg>
